<svg width="187" height="56" viewBox="0 0 187 56" fill="none" xmlns="http://www.w3.org/2000/svg">
<g filter="url(#filter0_d_146_13628)">
<rect x="4" y="2" width="179" height="48" rx="11" fill="#FCFBF9"/>
<path d="M33.608 36.536C32.336 36.536 31.322 36.302 30.566 35.834C29.81 35.378 29.432 34.754 29.432 33.962C29.432 33.098 29.918 32.39 30.89 31.838C30.362 31.514 30.098 31.088 30.098 30.56C30.098 30.284 30.176 30.038 30.332 29.822C30.5 29.606 30.722 29.432 30.998 29.3C30.542 28.976 30.194 28.562 29.954 28.058C29.726 27.554 29.612 27.002 29.612 26.402C29.612 25.742 29.756 25.142 30.044 24.602C30.332 24.05 30.752 23.618 31.304 23.306C31.856 22.982 32.51 22.82 33.266 22.82C34.058 22.82 34.742 23.012 35.318 23.396C35.522 23.288 35.792 23.198 36.128 23.126C36.476 23.042 36.848 23 37.244 23H37.82L37.676 24.404H36.866C36.662 24.404 36.494 24.41 36.362 24.422C36.722 24.974 36.902 25.634 36.902 26.402C36.902 27.062 36.758 27.668 36.47 28.22C36.194 28.76 35.78 29.192 35.228 29.516C34.676 29.828 34.022 29.984 33.266 29.984C32.99 29.984 32.672 29.942 32.312 29.858C32.18 29.918 32.114 30.014 32.114 30.146C32.114 30.302 32.204 30.428 32.384 30.524C32.576 30.608 32.894 30.68 33.338 30.74L34.886 30.938C36.95 31.214 37.982 32.084 37.982 33.548C37.982 34.46 37.592 35.186 36.812 35.726C36.044 36.266 34.976 36.536 33.608 36.536ZM33.266 28.328C33.782 28.328 34.178 28.16 34.454 27.824C34.742 27.476 34.886 27.002 34.886 26.402C34.886 25.802 34.742 25.334 34.454 24.998C34.178 24.65 33.782 24.476 33.266 24.476C32.738 24.476 32.33 24.65 32.042 24.998C31.766 25.334 31.628 25.802 31.628 26.402C31.628 27.002 31.766 27.476 32.042 27.824C32.33 28.16 32.738 28.328 33.266 28.328ZM33.698 34.844C35.234 34.844 36.002 34.466 36.002 33.71C36.002 33.374 35.87 33.122 35.606 32.954C35.342 32.798 34.904 32.672 34.292 32.576L32.312 32.288C31.628 32.564 31.286 32.984 31.286 33.548C31.286 33.98 31.496 34.304 31.916 34.52C32.336 34.736 32.93 34.844 33.698 34.844ZM42.8073 32.18C41.8593 32.18 41.0373 31.97 40.3413 31.55C39.6453 31.13 39.1113 30.566 38.7393 29.858C38.3673 29.15 38.1813 28.37 38.1813 27.518C38.1813 26.666 38.3673 25.88 38.7393 25.16C39.1113 24.44 39.6453 23.87 40.3413 23.45C41.0373 23.03 41.8593 22.82 42.8073 22.82C43.7553 22.82 44.5773 23.03 45.2733 23.45C45.9693 23.87 46.5033 24.44 46.8753 25.16C47.2473 25.88 47.4333 26.666 47.4333 27.518C47.4333 28.37 47.2473 29.15 46.8753 29.858C46.5033 30.566 45.9693 31.13 45.2733 31.55C44.5773 31.97 43.7553 32.18 42.8073 32.18ZM42.8073 30.344C43.5393 30.344 44.1093 30.086 44.5173 29.57C44.9373 29.054 45.1473 28.37 45.1473 27.518C45.1473 26.654 44.9373 25.964 44.5173 25.448C44.1093 24.92 43.5393 24.656 42.8073 24.656C42.0753 24.656 41.4993 24.92 41.0793 25.448C40.6713 25.964 40.4673 26.654 40.4673 27.518C40.4673 28.37 40.6713 29.054 41.0793 29.57C41.4993 30.086 42.0753 30.344 42.8073 30.344ZM55.4239 32.18C54.6319 32.18 54.0319 31.952 53.6239 31.496C53.2159 31.028 53.0119 30.47 53.0119 29.822V24.836H51.7339L51.9319 23H53.0119V21.02L55.2439 20.786V23H57.2239V24.836H55.2439V28.904C55.2439 29.384 55.2679 29.72 55.3159 29.912C55.3759 30.092 55.4899 30.212 55.6579 30.272C55.8379 30.32 56.1559 30.344 56.6119 30.344H57.2239L57.0259 32.18H55.4239ZM62.4934 32.18C61.5454 32.18 60.7234 31.97 60.0274 31.55C59.3314 31.13 58.7974 30.566 58.4254 29.858C58.0534 29.15 57.8674 28.37 57.8674 27.518C57.8674 26.666 58.0534 25.88 58.4254 25.16C58.7974 24.44 59.3314 23.87 60.0274 23.45C60.7234 23.03 61.5454 22.82 62.4934 22.82C63.4414 22.82 64.2634 23.03 64.9594 23.45C65.6554 23.87 66.1894 24.44 66.5614 25.16C66.9334 25.88 67.1194 26.666 67.1194 27.518C67.1194 28.37 66.9334 29.15 66.5614 29.858C66.1894 30.566 65.6554 31.13 64.9594 31.55C64.2634 31.97 63.4414 32.18 62.4934 32.18ZM62.4934 30.344C63.2254 30.344 63.7954 30.086 64.2034 29.57C64.6234 29.054 64.8334 28.37 64.8334 27.518C64.8334 26.654 64.6234 25.964 64.2034 25.448C63.7954 24.92 63.2254 24.656 62.4934 24.656C61.7614 24.656 61.1854 24.92 60.7654 25.448C60.3574 25.964 60.1534 26.654 60.1534 27.518C60.1534 28.37 60.3574 29.054 60.7654 29.57C61.1854 30.086 61.7614 30.344 62.4934 30.344ZM74.894 31.406L71.15 23H73.634L75.938 28.796L78.278 23H80.762L75.128 36.356H72.896L74.894 31.406ZM85.4666 32.18C84.5186 32.18 83.6966 31.97 83.0006 31.55C82.3046 31.13 81.7706 30.566 81.3986 29.858C81.0266 29.15 80.8406 28.37 80.8406 27.518C80.8406 26.666 81.0266 25.88 81.3986 25.16C81.7706 24.44 82.3046 23.87 83.0006 23.45C83.6966 23.03 84.5186 22.82 85.4666 22.82C86.4146 22.82 87.2366 23.03 87.9326 23.45C88.6286 23.87 89.1626 24.44 89.5346 25.16C89.9066 25.88 90.0926 26.666 90.0926 27.518C90.0926 28.37 89.9066 29.15 89.5346 29.858C89.1626 30.566 88.6286 31.13 87.9326 31.55C87.2366 31.97 86.4146 32.18 85.4666 32.18ZM85.4666 30.344C86.1986 30.344 86.7686 30.086 87.1766 29.57C87.5966 29.054 87.8066 28.37 87.8066 27.518C87.8066 26.654 87.5966 25.964 87.1766 25.448C86.7686 24.92 86.1986 24.656 85.4666 24.656C84.7346 24.656 84.1586 24.92 83.7386 25.448C83.3306 25.964 83.1266 26.654 83.1266 27.518C83.1266 28.37 83.3306 29.054 83.7386 29.57C84.1586 30.086 84.7346 30.344 85.4666 30.344ZM99.2242 23V32H97.1362L97.1002 31.46C96.8242 31.664 96.5062 31.838 96.1462 31.982C95.7862 32.114 95.4382 32.18 95.1022 32.18C93.7702 32.18 92.7982 31.796 92.1862 31.028C91.5862 30.26 91.2862 29.198 91.2862 27.842V23H93.5182V27.842C93.5182 28.682 93.6562 29.306 93.9322 29.714C94.2202 30.11 94.6762 30.308 95.3002 30.308C95.9962 30.308 96.5602 30.056 96.9922 29.552V23H99.2242ZM101.038 23H103.126L103.18 23.954C103.444 23.654 103.78 23.39 104.188 23.162C104.608 22.934 105.046 22.82 105.502 22.82C105.646 22.82 105.778 22.832 105.898 22.856L105.736 25.052C105.508 24.992 105.25 24.962 104.962 24.962C104.59 24.962 104.248 25.052 103.936 25.232C103.624 25.4 103.402 25.61 103.27 25.862V32H101.038V23ZM112.786 32.18C112.018 32.18 111.442 31.964 111.058 31.532C110.674 31.088 110.482 30.518 110.482 29.822V18.5H112.714V28.904C112.714 29.384 112.738 29.726 112.786 29.93C112.846 30.122 112.942 30.242 113.074 30.29C113.218 30.326 113.458 30.344 113.794 30.344L113.596 32.18H112.786ZM114.941 19.4H117.173V21.632H114.941V19.4ZM114.941 23H117.173V32H114.941V23ZM123.675 22.856C124.527 22.856 125.259 23.066 125.871 23.486C126.483 23.906 126.945 24.47 127.257 25.178C127.569 25.886 127.725 26.666 127.725 27.518C127.725 28.37 127.569 29.15 127.257 29.858C126.945 30.566 126.483 31.13 125.871 31.55C125.259 31.97 124.527 32.18 123.675 32.18C122.727 32.18 121.869 31.922 121.101 31.406L121.065 32H118.977V18.5H121.209V23.666C121.941 23.126 122.763 22.856 123.675 22.856ZM123.351 30.344C124.011 30.344 124.521 30.086 124.881 29.57C125.253 29.054 125.439 28.37 125.439 27.518C125.439 26.666 125.253 25.982 124.881 25.466C124.521 24.95 124.011 24.692 123.351 24.692C122.595 24.692 122.031 24.944 121.659 25.448C121.287 25.952 121.101 26.642 121.101 27.518C121.101 28.394 121.287 29.084 121.659 29.588C122.031 30.092 122.595 30.344 123.351 30.344ZM129.008 23H131.096L131.15 23.954C131.414 23.654 131.75 23.39 132.158 23.162C132.578 22.934 133.016 22.82 133.472 22.82C133.616 22.82 133.748 22.832 133.868 22.856L133.706 25.052C133.478 24.992 133.22 24.962 132.932 24.962C132.56 24.962 132.218 25.052 131.906 25.232C131.594 25.4 131.372 25.61 131.24 25.862V32H129.008V23ZM136.518 32.18C135.774 32.18 135.15 31.94 134.646 31.46C134.154 30.968 133.908 30.308 133.908 29.48C133.908 28.7 134.19 28.076 134.754 27.608C135.318 27.128 135.984 26.792 136.752 26.6C137.52 26.396 138.258 26.282 138.966 26.258C138.942 25.73 138.804 25.352 138.552 25.124C138.312 24.896 137.91 24.782 137.346 24.782C136.95 24.782 136.56 24.836 136.176 24.944C135.804 25.052 135.372 25.226 134.88 25.466L134.682 23.648C135.774 23.12 136.866 22.856 137.958 22.856C139.014 22.856 139.818 23.144 140.37 23.72C140.934 24.296 141.216 25.214 141.216 26.474V28.904C141.216 29.36 141.234 29.69 141.27 29.894C141.318 30.086 141.39 30.212 141.486 30.272C141.594 30.32 141.768 30.344 142.008 30.344H142.296L142.098 32.18H141.288C140.796 32.18 140.382 32.09 140.046 31.91C139.71 31.718 139.452 31.46 139.272 31.136C138.984 31.46 138.588 31.718 138.084 31.91C137.592 32.09 137.07 32.18 136.518 32.18ZM137.454 30.47C137.682 30.47 137.94 30.416 138.228 30.308C138.516 30.188 138.768 30.026 138.984 29.822V27.77C138.264 27.806 137.628 27.962 137.076 28.238C136.524 28.514 136.248 28.898 136.248 29.39C136.248 29.762 136.344 30.038 136.536 30.218C136.728 30.386 137.034 30.47 137.454 30.47ZM143.269 23H145.357L145.411 23.954C145.675 23.654 146.011 23.39 146.419 23.162C146.839 22.934 147.277 22.82 147.733 22.82C147.877 22.82 148.009 22.832 148.129 22.856L147.967 25.052C147.739 24.992 147.481 24.962 147.193 24.962C146.821 24.962 146.479 25.052 146.167 25.232C145.855 25.4 145.633 25.61 145.501 25.862V32H143.269V23ZM151.658 31.406L147.914 23H150.398L152.702 28.796L155.042 23H157.526L151.892 36.356H149.66L151.658 31.406Z" fill="#8C8C8C"/>
</g>
<defs>
<filter id="filter0_d_146_13628" x="0" y="0" width="187" height="56" filterUnits="userSpaceOnUse" color-interpolation-filters="sRGB">
<feFlood flood-opacity="0" result="BackgroundImageFix"/>
<feColorMatrix in="SourceAlpha" type="matrix" values="0 0 0 0 0 0 0 0 0 0 0 0 0 0 0 0 0 0 127 0" result="hardAlpha"/>
<feOffset dy="2"/>
<feGaussianBlur stdDeviation="2"/>
<feComposite in2="hardAlpha" operator="out"/>
<feColorMatrix type="matrix" values="0 0 0 0 0 0 0 0 0 0 0 0 0 0 0 0 0 0 0.25 0"/>
<feBlend mode="normal" in2="BackgroundImageFix" result="effect1_dropShadow_146_13628"/>
<feBlend mode="normal" in="SourceGraphic" in2="effect1_dropShadow_146_13628" result="shape"/>
</filter>
</defs>
</svg>
