<svg width="325" height="463" viewBox="0 0 325 463" fill="none" xmlns="http://www.w3.org/2000/svg">
<g filter="url(#filter0_d_293_11044)">
<rect x="4" y="2" width="317" height="455" rx="11" fill="#FCFBF9"/>
</g>
<path d="M36.24 96H39.144L41.208 104.376L43.464 96.24H45.96L48.192 104.376L50.28 96H53.184L49.68 108H47.184L44.712 100.176L42.24 108H39.744L36.24 96ZM59.7534 108.24C58.4894 108.24 57.3934 107.96 56.4654 107.4C55.5374 106.84 54.8254 106.088 54.3294 105.144C53.8334 104.2 53.5854 103.16 53.5854 102.024C53.5854 100.888 53.8334 99.84 54.3294 98.88C54.8254 97.92 55.5374 97.16 56.4654 96.6C57.3934 96.04 58.4894 95.76 59.7534 95.76C61.0174 95.76 62.1134 96.04 63.0414 96.6C63.9694 97.16 64.6814 97.92 65.1774 98.88C65.6734 99.84 65.9214 100.888 65.9214 102.024C65.9214 103.16 65.6734 104.2 65.1774 105.144C64.6814 106.088 63.9694 106.84 63.0414 107.4C62.1134 107.96 61.0174 108.24 59.7534 108.24ZM59.7534 105.792C60.7294 105.792 61.4894 105.448 62.0334 104.76C62.5934 104.072 62.8734 103.16 62.8734 102.024C62.8734 100.872 62.5934 99.952 62.0334 99.264C61.4894 98.56 60.7294 98.208 59.7534 98.208C58.7774 98.208 58.0094 98.56 57.4494 99.264C56.9054 99.952 56.6334 100.872 56.6334 102.024C56.6334 103.16 56.9054 104.072 57.4494 104.76C58.0094 105.448 58.7774 105.792 59.7534 105.792ZM67.6329 96H70.4169L70.4889 97.272C70.8409 96.872 71.2889 96.52 71.8329 96.216C72.3929 95.912 72.9769 95.76 73.5849 95.76C73.7769 95.76 73.9529 95.776 74.1129 95.808L73.8969 98.736C73.5929 98.656 73.2489 98.616 72.8649 98.616C72.3689 98.616 71.9129 98.736 71.4969 98.976C71.0809 99.2 70.7849 99.48 70.6089 99.816V108H67.6329V96ZM75.1708 90H78.1468V100.92L81.8668 96H85.2268L80.8588 101.76L85.3228 108H81.9628L78.1468 102.672V108H75.1708V90ZM96.9619 108.24C95.6979 108.24 94.6019 107.96 93.6739 107.4C92.7459 106.84 92.0339 106.088 91.5379 105.144C91.0419 104.2 90.7939 103.16 90.7939 102.024C90.7939 100.888 91.0419 99.84 91.5379 98.88C92.0339 97.92 92.7459 97.16 93.6739 96.6C94.6019 96.04 95.6979 95.76 96.9619 95.76C98.2259 95.76 99.3219 96.04 100.25 96.6C101.178 97.16 101.89 97.92 102.386 98.88C102.882 99.84 103.13 100.888 103.13 102.024C103.13 103.16 102.882 104.2 102.386 105.144C101.89 106.088 101.178 106.84 100.25 107.4C99.3219 107.96 98.2259 108.24 96.9619 108.24ZM96.9619 105.792C97.9379 105.792 98.6979 105.448 99.2419 104.76C99.8019 104.072 100.082 103.16 100.082 102.024C100.082 100.872 99.8019 99.952 99.2419 99.264C98.6979 98.56 97.9379 98.208 96.9619 98.208C95.9859 98.208 95.2179 98.56 94.6579 99.264C94.1139 99.952 93.8419 100.872 93.8419 102.024C93.8419 103.16 94.1139 104.072 94.6579 104.76C95.2179 105.448 95.9859 105.792 96.9619 105.792ZM110.889 95.808C112.377 95.808 113.505 96.304 114.273 97.296C115.041 98.288 115.425 99.624 115.425 101.304V108H112.449V101.544C112.449 100.424 112.257 99.6 111.873 99.072C111.505 98.528 110.905 98.256 110.073 98.256C109.161 98.256 108.409 98.6 107.817 99.288V108H104.841V96H107.625L107.673 96.84C108.681 96.152 109.753 95.808 110.889 95.808ZM136.218 95.808C137.818 95.808 139.002 96.296 139.77 97.272C140.554 98.232 140.946 99.584 140.946 101.328V108H137.97V101.544C137.97 100.408 137.794 99.576 137.442 99.048C137.09 98.52 136.514 98.256 135.714 98.256C134.93 98.256 134.338 98.528 133.938 99.072C133.538 99.6 133.338 100.352 133.338 101.328V108H130.362V101.544C130.362 100.408 130.178 99.576 129.81 99.048C129.442 98.52 128.858 98.256 128.058 98.256C127.114 98.256 126.338 98.6 125.73 99.288V108H122.754V96H125.298L125.394 96.96C126.482 96.192 127.658 95.808 128.922 95.808C130.458 95.808 131.602 96.36 132.354 97.464C132.77 96.936 133.314 96.528 133.986 96.24C134.658 95.952 135.402 95.808 136.218 95.808ZM153.624 96V108H150.84L150.792 107.28C150.424 107.552 150 107.784 149.52 107.976C149.04 108.152 148.576 108.24 148.128 108.24C146.352 108.24 145.056 107.728 144.24 106.704C143.44 105.68 143.04 104.264 143.04 102.456V96H146.016V102.456C146.016 103.576 146.2 104.408 146.568 104.952C146.952 105.48 147.56 105.744 148.392 105.744C149.32 105.744 150.072 105.408 150.648 104.736V96H153.624ZM159.114 108.24C158.09 108.24 157.322 107.952 156.81 107.376C156.298 106.784 156.042 106.024 156.042 105.096V90H159.018V103.872C159.018 104.512 159.05 104.968 159.114 105.24C159.194 105.496 159.322 105.656 159.498 105.72C159.69 105.768 160.01 105.792 160.458 105.792L160.194 108.24H159.114ZM165.782 108.24C164.726 108.24 163.926 107.936 163.382 107.328C162.838 106.704 162.566 105.96 162.566 105.096V98.448H160.862L161.126 96H162.566V93.36L165.542 93.048V96H168.182V98.448H165.542V103.872C165.542 104.512 165.574 104.96 165.638 105.216C165.718 105.456 165.87 105.616 166.094 105.696C166.334 105.76 166.758 105.792 167.366 105.792H168.182L167.918 108.24H165.782ZM169.759 91.2H172.735V94.176H169.759V91.2ZM169.759 96H172.735V108H169.759V96ZM181.429 95.808C182.565 95.808 183.541 96.088 184.357 96.648C185.173 97.208 185.789 97.96 186.205 98.904C186.621 99.848 186.829 100.888 186.829 102.024C186.829 103.16 186.621 104.2 186.205 105.144C185.789 106.088 185.173 106.84 184.357 107.4C183.541 107.96 182.565 108.24 181.429 108.24C180.709 108.24 180.093 108.16 179.581 108C179.085 107.856 178.605 107.616 178.141 107.28V113.808H175.165V96H177.565L177.877 97.104C178.389 96.672 178.925 96.352 179.485 96.144C180.045 95.92 180.693 95.808 181.429 95.808ZM180.973 105.792C181.853 105.792 182.541 105.448 183.037 104.76C183.533 104.072 183.781 103.16 183.781 102.024C183.781 100.888 183.533 99.976 183.037 99.288C182.541 98.6 181.853 98.256 180.973 98.256C179.981 98.256 179.237 98.592 178.741 99.264C178.245 99.936 177.997 100.856 177.997 102.024C177.997 103.192 178.245 104.112 178.741 104.784C179.237 105.456 179.981 105.792 180.973 105.792ZM191.612 108.24C190.588 108.24 189.82 107.952 189.308 107.376C188.796 106.784 188.54 106.024 188.54 105.096V90H191.516V103.872C191.516 104.512 191.548 104.968 191.612 105.24C191.692 105.496 191.82 105.656 191.996 105.72C192.188 105.768 192.508 105.792 192.956 105.792L192.692 108.24H191.612ZM200.151 108.24C198.759 108.24 197.567 107.96 196.575 107.4C195.599 106.824 194.863 106.064 194.367 105.12C193.887 104.16 193.647 103.096 193.647 101.928C193.647 100.808 193.879 99.784 194.343 98.856C194.807 97.928 195.479 97.192 196.359 96.648C197.239 96.088 198.287 95.808 199.503 95.808C200.623 95.808 201.567 96.04 202.335 96.504C203.119 96.968 203.703 97.592 204.087 98.376C204.487 99.16 204.687 100.04 204.687 101.016C204.687 101.496 204.623 102.04 204.495 102.648H196.743C196.903 103.704 197.319 104.496 197.991 105.024C198.663 105.536 199.471 105.792 200.415 105.792C201.711 105.792 202.911 105.464 204.015 104.808L204.159 107.328C203.647 107.6 203.047 107.824 202.359 108C201.687 108.16 200.951 108.24 200.151 108.24ZM201.663 100.632C201.663 100.008 201.487 99.456 201.135 98.976C200.783 98.496 200.239 98.256 199.503 98.256C198.767 98.256 198.175 98.472 197.727 98.904C197.279 99.336 196.975 99.912 196.815 100.632H201.663ZM216.42 91.2H219.396V94.176H216.42V91.2ZM216.42 96H219.396V108H216.42V96ZM235.289 95.808C236.889 95.808 238.073 96.296 238.841 97.272C239.625 98.232 240.017 99.584 240.017 101.328V108H237.041V101.544C237.041 100.408 236.865 99.576 236.513 99.048C236.161 98.52 235.585 98.256 234.785 98.256C234.001 98.256 233.409 98.528 233.009 99.072C232.609 99.6 232.409 100.352 232.409 101.328V108H229.433V101.544C229.433 100.408 229.249 99.576 228.881 99.048C228.513 98.52 227.929 98.256 227.129 98.256C226.185 98.256 225.409 98.6 224.801 99.288V108H221.825V96H224.369L224.465 96.96C225.553 96.192 226.729 95.808 227.993 95.808C229.529 95.808 230.673 96.36 231.425 97.464C231.841 96.936 232.385 96.528 233.057 96.24C233.729 95.952 234.473 95.808 235.289 95.808ZM244.917 108.24C243.925 108.24 243.093 107.92 242.421 107.28C241.765 106.624 241.437 105.744 241.437 104.64C241.437 103.6 241.813 102.768 242.565 102.144C243.317 101.504 244.205 101.056 245.229 100.8C246.253 100.528 247.237 100.376 248.181 100.344C248.149 99.64 247.965 99.136 247.629 98.832C247.309 98.528 246.773 98.376 246.021 98.376C245.493 98.376 244.973 98.448 244.461 98.592C243.965 98.736 243.389 98.968 242.733 99.288L242.469 96.864C243.925 96.16 245.381 95.808 246.837 95.808C248.245 95.808 249.317 96.192 250.053 96.96C250.805 97.728 251.181 98.952 251.181 100.632V103.872C251.181 104.48 251.205 104.92 251.253 105.192C251.317 105.448 251.413 105.616 251.541 105.696C251.685 105.76 251.917 105.792 252.237 105.792H252.621L252.357 108.24H251.277C250.621 108.24 250.069 108.12 249.621 107.88C249.173 107.624 248.829 107.28 248.589 106.848C248.205 107.28 247.677 107.624 247.005 107.88C246.349 108.12 245.653 108.24 244.917 108.24ZM246.165 105.96C246.469 105.96 246.813 105.888 247.197 105.744C247.581 105.584 247.917 105.368 248.205 105.096V102.36C247.245 102.408 246.397 102.616 245.661 102.984C244.925 103.352 244.557 103.864 244.557 104.52C244.557 105.016 244.685 105.384 244.941 105.624C245.197 105.848 245.605 105.96 246.165 105.96ZM258.67 114.048C256.974 114.048 255.622 113.736 254.614 113.112C253.606 112.504 253.102 111.672 253.102 110.616C253.102 109.464 253.75 108.52 255.046 107.784C254.342 107.352 253.99 106.784 253.99 106.08C253.99 105.712 254.094 105.384 254.302 105.096C254.526 104.808 254.822 104.576 255.19 104.4C254.582 103.968 254.118 103.416 253.798 102.744C253.494 102.072 253.342 101.336 253.342 100.536C253.342 99.656 253.534 98.856 253.918 98.136C254.302 97.4 254.862 96.824 255.598 96.408C256.334 95.976 257.206 95.76 258.214 95.76C259.27 95.76 260.182 96.016 260.95 96.528C261.222 96.384 261.582 96.264 262.03 96.168C262.494 96.056 262.99 96 263.518 96H264.286L264.094 97.872H263.014C262.742 97.872 262.518 97.88 262.342 97.896C262.822 98.632 263.062 99.512 263.062 100.536C263.062 101.416 262.87 102.224 262.486 102.96C262.118 103.68 261.566 104.256 260.83 104.688C260.094 105.104 259.222 105.312 258.214 105.312C257.846 105.312 257.422 105.256 256.942 105.144C256.766 105.224 256.678 105.352 256.678 105.528C256.678 105.736 256.798 105.904 257.038 106.032C257.294 106.144 257.718 106.24 258.31 106.32L260.374 106.584C263.126 106.952 264.502 108.112 264.502 110.064C264.502 111.28 263.982 112.248 262.942 112.968C261.918 113.688 260.494 114.048 258.67 114.048ZM258.214 103.104C258.902 103.104 259.43 102.88 259.798 102.432C260.182 101.968 260.374 101.336 260.374 100.536C260.374 99.736 260.182 99.112 259.798 98.664C259.43 98.2 258.902 97.968 258.214 97.968C257.51 97.968 256.966 98.2 256.582 98.664C256.214 99.112 256.03 99.736 256.03 100.536C256.03 101.336 256.214 101.968 256.582 102.432C256.966 102.88 257.51 103.104 258.214 103.104ZM258.79 111.792C260.838 111.792 261.862 111.288 261.862 110.28C261.862 109.832 261.686 109.496 261.334 109.272C260.982 109.064 260.398 108.896 259.582 108.768L256.942 108.384C256.03 108.752 255.574 109.312 255.574 110.064C255.574 110.64 255.854 111.072 256.414 111.36C256.974 111.648 257.766 111.792 258.79 111.792ZM271.272 108.24C269.88 108.24 268.688 107.96 267.696 107.4C266.72 106.824 265.984 106.064 265.488 105.12C265.008 104.16 264.768 103.096 264.768 101.928C264.768 100.808 265 99.784 265.464 98.856C265.928 97.928 266.6 97.192 267.48 96.648C268.36 96.088 269.408 95.808 270.624 95.808C271.744 95.808 272.688 96.04 273.456 96.504C274.24 96.968 274.824 97.592 275.208 98.376C275.608 99.16 275.808 100.04 275.808 101.016C275.808 101.496 275.744 102.04 275.616 102.648H267.864C268.024 103.704 268.44 104.496 269.112 105.024C269.784 105.536 270.592 105.792 271.536 105.792C272.832 105.792 274.032 105.464 275.136 104.808L275.28 107.328C274.768 107.6 274.168 107.824 273.48 108C272.808 108.16 272.072 108.24 271.272 108.24ZM272.784 100.632C272.784 100.008 272.608 99.456 272.256 98.976C271.904 98.496 271.36 98.256 270.624 98.256C269.888 98.256 269.296 98.472 268.848 98.904C268.4 99.336 268.096 99.912 267.936 100.632H272.784ZM280.887 108.24C280.119 108.24 279.415 108.168 278.775 108.024C278.151 107.88 277.503 107.656 276.831 107.352L277.095 104.808C277.767 105.208 278.391 105.512 278.967 105.72C279.559 105.912 280.167 106.008 280.791 106.008C282.007 106.008 282.615 105.608 282.615 104.808C282.615 104.376 282.455 104.048 282.135 103.824C281.815 103.584 281.239 103.304 280.407 102.984C279.223 102.552 278.351 102.064 277.791 101.52C277.231 100.96 276.951 100.208 276.951 99.264C276.951 98.224 277.351 97.384 278.151 96.744C278.951 96.088 280.031 95.76 281.391 95.76C282.751 95.76 283.991 96.072 285.111 96.696L284.847 99.24C284.239 98.824 283.663 98.504 283.119 98.28C282.591 98.056 282.031 97.944 281.439 97.944C280.927 97.944 280.527 98.048 280.239 98.256C279.967 98.464 279.831 98.76 279.831 99.144C279.831 99.448 279.911 99.696 280.071 99.888C280.247 100.08 280.487 100.256 280.791 100.416C281.095 100.56 281.599 100.768 282.303 101.04C283.471 101.488 284.311 101.984 284.823 102.528C285.335 103.056 285.591 103.768 285.591 104.664C285.591 105.8 285.183 106.68 284.367 107.304C283.551 107.928 282.391 108.24 280.887 108.24ZM42.84 137.24C41.576 137.24 40.48 136.96 39.552 136.4C38.624 135.84 37.912 135.088 37.416 134.144C36.92 133.2 36.672 132.16 36.672 131.024C36.672 129.888 36.92 128.84 37.416 127.88C37.912 126.92 38.624 126.16 39.552 125.6C40.48 125.04 41.576 124.76 42.84 124.76C44.104 124.76 45.2 125.04 46.128 125.6C47.056 126.16 47.768 126.92 48.264 127.88C48.76 128.84 49.008 129.888 49.008 131.024C49.008 132.16 48.76 133.2 48.264 134.144C47.768 135.088 47.056 135.84 46.128 136.4C45.2 136.96 44.104 137.24 42.84 137.24ZM42.84 134.792C43.816 134.792 44.576 134.448 45.12 133.76C45.68 133.072 45.96 132.16 45.96 131.024C45.96 129.872 45.68 128.952 45.12 128.264C44.576 127.56 43.816 127.208 42.84 127.208C41.864 127.208 41.096 127.56 40.536 128.264C39.992 128.952 39.72 129.872 39.72 131.024C39.72 132.16 39.992 133.072 40.536 133.76C41.096 134.448 41.864 134.792 42.84 134.792ZM56.7675 124.808C58.2555 124.808 59.3835 125.304 60.1515 126.296C60.9195 127.288 61.3035 128.624 61.3035 130.304V137H58.3275V130.544C58.3275 129.424 58.1355 128.6 57.7515 128.072C57.3835 127.528 56.7835 127.256 55.9515 127.256C55.0395 127.256 54.2875 127.6 53.6955 128.288V137H50.7195V125H53.5035L53.5515 125.84C54.5595 125.152 55.6315 124.808 56.7675 124.808ZM72.5443 137.24C71.4883 137.24 70.6883 136.936 70.1443 136.328C69.6003 135.704 69.3283 134.96 69.3283 134.096V127.448H67.6243L67.8883 125H69.3283V122.36L72.3043 122.048V125H74.9443V127.448H72.3043V132.872C72.3043 133.512 72.3363 133.96 72.4003 134.216C72.4803 134.456 72.6323 134.616 72.8563 134.696C73.0963 134.76 73.5203 134.792 74.1283 134.792H74.9443L74.6803 137.24H72.5443ZM82.5703 124.808C84.0903 124.808 85.2183 125.304 85.9543 126.296C86.7063 127.272 87.0823 128.616 87.0823 130.328V137H84.1063V130.544C84.1063 129.408 83.9223 128.576 83.5543 128.048C83.1863 127.52 82.6023 127.256 81.8023 127.256C80.8583 127.256 80.0823 127.6 79.4743 128.288V137H76.4983V119H79.4743V125.768C79.9543 125.464 80.4423 125.232 80.9383 125.072C81.4343 124.896 81.9783 124.808 82.5703 124.808ZM95.1651 137.24C93.7731 137.24 92.5811 136.96 91.5891 136.4C90.6131 135.824 89.8771 135.064 89.3811 134.12C88.9011 133.16 88.6611 132.096 88.6611 130.928C88.6611 129.808 88.8931 128.784 89.3571 127.856C89.8211 126.928 90.4931 126.192 91.3731 125.648C92.2531 125.088 93.3011 124.808 94.5171 124.808C95.6371 124.808 96.5811 125.04 97.3491 125.504C98.1331 125.968 98.7171 126.592 99.1011 127.376C99.5011 128.16 99.7011 129.04 99.7011 130.016C99.7011 130.496 99.6371 131.04 99.5091 131.648H91.7571C91.9171 132.704 92.3331 133.496 93.0051 134.024C93.6771 134.536 94.4851 134.792 95.4291 134.792C96.7251 134.792 97.9251 134.464 99.0291 133.808L99.1731 136.328C98.6611 136.6 98.0611 136.824 97.3731 137C96.7011 137.16 95.9651 137.24 95.1651 137.24ZM96.6771 129.632C96.6771 129.008 96.5011 128.456 96.1491 127.976C95.7971 127.496 95.2531 127.256 94.5171 127.256C93.7811 127.256 93.1891 127.472 92.7411 127.904C92.2931 128.336 91.9891 128.912 91.8291 129.632H96.6771ZM109.811 137.24C109.043 137.24 108.339 137.168 107.699 137.024C107.075 136.88 106.427 136.656 105.755 136.352L106.019 133.808C106.691 134.208 107.315 134.512 107.891 134.72C108.483 134.912 109.091 135.008 109.715 135.008C110.931 135.008 111.539 134.608 111.539 133.808C111.539 133.376 111.379 133.048 111.059 132.824C110.739 132.584 110.163 132.304 109.331 131.984C108.147 131.552 107.275 131.064 106.715 130.52C106.155 129.96 105.875 129.208 105.875 128.264C105.875 127.224 106.275 126.384 107.075 125.744C107.875 125.088 108.955 124.76 110.315 124.76C111.675 124.76 112.915 125.072 114.035 125.696L113.771 128.24C113.163 127.824 112.587 127.504 112.043 127.28C111.515 127.056 110.955 126.944 110.363 126.944C109.851 126.944 109.451 127.048 109.163 127.256C108.891 127.464 108.755 127.76 108.755 128.144C108.755 128.448 108.835 128.696 108.995 128.888C109.171 129.08 109.411 129.256 109.715 129.416C110.019 129.56 110.523 129.768 111.227 130.04C112.395 130.488 113.235 130.984 113.747 131.528C114.259 132.056 114.515 132.768 114.515 133.664C114.515 134.8 114.107 135.68 113.291 136.304C112.475 136.928 111.315 137.24 109.811 137.24ZM118.784 137.24C117.792 137.24 116.96 136.92 116.288 136.28C115.632 135.624 115.304 134.744 115.304 133.64C115.304 132.6 115.68 131.768 116.432 131.144C117.184 130.504 118.072 130.056 119.096 129.8C120.12 129.528 121.104 129.376 122.048 129.344C122.016 128.64 121.832 128.136 121.496 127.832C121.176 127.528 120.64 127.376 119.888 127.376C119.36 127.376 118.84 127.448 118.328 127.592C117.832 127.736 117.256 127.968 116.6 128.288L116.336 125.864C117.792 125.16 119.248 124.808 120.704 124.808C122.112 124.808 123.184 125.192 123.92 125.96C124.672 126.728 125.048 127.952 125.048 129.632V132.872C125.048 133.48 125.072 133.92 125.12 134.192C125.184 134.448 125.28 134.616 125.408 134.696C125.552 134.76 125.784 134.792 126.104 134.792H126.488L126.224 137.24H125.144C124.488 137.24 123.936 137.12 123.488 136.88C123.04 136.624 122.696 136.28 122.456 135.848C122.072 136.28 121.544 136.624 120.872 136.88C120.216 137.12 119.52 137.24 118.784 137.24ZM120.032 134.96C120.336 134.96 120.68 134.888 121.064 134.744C121.448 134.584 121.784 134.368 122.072 134.096V131.36C121.112 131.408 120.264 131.616 119.528 131.984C118.792 132.352 118.424 132.864 118.424 133.52C118.424 134.016 118.552 134.384 118.808 134.624C119.064 134.848 119.472 134.96 120.032 134.96ZM141.249 124.808C142.849 124.808 144.033 125.296 144.801 126.272C145.585 127.232 145.977 128.584 145.977 130.328V137H143.001V130.544C143.001 129.408 142.825 128.576 142.473 128.048C142.121 127.52 141.545 127.256 140.745 127.256C139.961 127.256 139.369 127.528 138.969 128.072C138.569 128.6 138.369 129.352 138.369 130.328V137H135.393V130.544C135.393 129.408 135.209 128.576 134.841 128.048C134.473 127.52 133.889 127.256 133.089 127.256C132.145 127.256 131.369 127.6 130.761 128.288V137H127.785V125H130.329L130.425 125.96C131.513 125.192 132.689 124.808 133.953 124.808C135.489 124.808 136.633 125.36 137.385 126.464C137.801 125.936 138.345 125.528 139.017 125.24C139.689 124.952 140.433 124.808 141.249 124.808ZM154.068 137.24C152.676 137.24 151.484 136.96 150.492 136.4C149.516 135.824 148.78 135.064 148.284 134.12C147.804 133.16 147.564 132.096 147.564 130.928C147.564 129.808 147.796 128.784 148.26 127.856C148.724 126.928 149.396 126.192 150.276 125.648C151.156 125.088 152.204 124.808 153.42 124.808C154.54 124.808 155.484 125.04 156.252 125.504C157.036 125.968 157.62 126.592 158.004 127.376C158.404 128.16 158.604 129.04 158.604 130.016C158.604 130.496 158.54 131.04 158.412 131.648H150.66C150.82 132.704 151.236 133.496 151.908 134.024C152.58 134.536 153.388 134.792 154.332 134.792C155.628 134.792 156.828 134.464 157.932 133.808L158.076 136.328C157.564 136.6 156.964 136.824 156.276 137C155.604 137.16 154.868 137.24 154.068 137.24ZM155.58 129.632C155.58 129.008 155.404 128.456 155.052 127.976C154.7 127.496 154.156 127.256 153.42 127.256C152.684 127.256 152.092 127.472 151.644 127.904C151.196 128.336 150.892 128.912 150.732 129.632H155.58ZM170.874 137.24C169.546 137.24 168.402 136.968 167.442 136.424C166.498 135.864 165.786 135.112 165.306 134.168C164.826 133.224 164.586 132.176 164.586 131.024C164.586 129.856 164.826 128.8 165.306 127.856C165.786 126.896 166.506 126.144 167.466 125.6C168.426 125.04 169.594 124.76 170.97 124.76C172.202 124.76 173.274 125.016 174.186 125.528L173.946 127.928C173.082 127.48 172.186 127.256 171.258 127.256C170.122 127.256 169.234 127.6 168.594 128.288C167.954 128.976 167.634 129.888 167.634 131.024C167.634 132.112 167.962 133.016 168.618 133.736C169.274 134.44 170.146 134.792 171.234 134.792C172.146 134.792 173.058 134.528 173.97 134L174.234 136.52C173.802 136.744 173.29 136.92 172.698 137.048C172.122 137.176 171.514 137.24 170.874 137.24ZM178.46 137.24C177.468 137.24 176.636 136.92 175.964 136.28C175.308 135.624 174.98 134.744 174.98 133.64C174.98 132.6 175.356 131.768 176.108 131.144C176.86 130.504 177.748 130.056 178.772 129.8C179.796 129.528 180.78 129.376 181.724 129.344C181.692 128.64 181.508 128.136 181.172 127.832C180.852 127.528 180.316 127.376 179.564 127.376C179.036 127.376 178.516 127.448 178.004 127.592C177.508 127.736 176.932 127.968 176.276 128.288L176.012 125.864C177.468 125.16 178.924 124.808 180.38 124.808C181.788 124.808 182.86 125.192 183.596 125.96C184.348 126.728 184.724 127.952 184.724 129.632V132.872C184.724 133.48 184.748 133.92 184.796 134.192C184.86 134.448 184.956 134.616 185.084 134.696C185.228 134.76 185.46 134.792 185.78 134.792H186.164L185.9 137.24H184.82C184.164 137.24 183.612 137.12 183.164 136.88C182.716 136.624 182.372 136.28 182.132 135.848C181.748 136.28 181.22 136.624 180.548 136.88C179.892 137.12 179.196 137.24 178.46 137.24ZM179.708 134.96C180.012 134.96 180.356 134.888 180.74 134.744C181.124 134.584 181.46 134.368 181.748 134.096V131.36C180.788 131.408 179.94 131.616 179.204 131.984C178.468 132.352 178.1 132.864 178.1 133.52C178.1 134.016 178.228 134.384 178.484 134.624C178.74 134.848 179.148 134.96 179.708 134.96ZM193.509 124.808C194.997 124.808 196.125 125.304 196.893 126.296C197.661 127.288 198.045 128.624 198.045 130.304V137H195.069V130.544C195.069 129.424 194.877 128.6 194.493 128.072C194.125 127.528 193.525 127.256 192.693 127.256C191.781 127.256 191.029 127.6 190.437 128.288V137H187.461V125H190.245L190.293 125.84C191.301 125.152 192.373 124.808 193.509 124.808ZM198.695 125H201.623L204.575 133.304L207.527 125H210.455L205.847 137H203.303L198.695 125ZM214.037 137.24C213.045 137.24 212.213 136.92 211.541 136.28C210.885 135.624 210.557 134.744 210.557 133.64C210.557 132.6 210.933 131.768 211.685 131.144C212.437 130.504 213.325 130.056 214.349 129.8C215.373 129.528 216.357 129.376 217.301 129.344C217.269 128.64 217.085 128.136 216.749 127.832C216.429 127.528 215.893 127.376 215.141 127.376C214.613 127.376 214.093 127.448 213.581 127.592C213.085 127.736 212.509 127.968 211.853 128.288L211.589 125.864C213.045 125.16 214.501 124.808 215.957 124.808C217.365 124.808 218.437 125.192 219.173 125.96C219.925 126.728 220.301 127.952 220.301 129.632V132.872C220.301 133.48 220.325 133.92 220.373 134.192C220.437 134.448 220.533 134.616 220.661 134.696C220.805 134.76 221.037 134.792 221.357 134.792H221.741L221.477 137.24H220.397C219.741 137.24 219.189 137.12 218.741 136.88C218.293 136.624 217.949 136.28 217.709 135.848C217.325 136.28 216.797 136.624 216.125 136.88C215.469 137.12 214.773 137.24 214.037 137.24ZM215.285 134.96C215.589 134.96 215.933 134.888 216.317 134.744C216.701 134.584 217.037 134.368 217.325 134.096V131.36C216.365 131.408 215.517 131.616 214.781 131.984C214.045 132.352 213.677 132.864 213.677 133.52C213.677 134.016 213.805 134.384 214.061 134.624C214.317 134.848 214.725 134.96 215.285 134.96ZM226.446 137.24C225.678 137.24 224.974 137.168 224.334 137.024C223.71 136.88 223.062 136.656 222.39 136.352L222.654 133.808C223.326 134.208 223.95 134.512 224.526 134.72C225.118 134.912 225.726 135.008 226.35 135.008C227.566 135.008 228.174 134.608 228.174 133.808C228.174 133.376 228.014 133.048 227.694 132.824C227.374 132.584 226.798 132.304 225.966 131.984C224.782 131.552 223.91 131.064 223.35 130.52C222.79 129.96 222.51 129.208 222.51 128.264C222.51 127.224 222.91 126.384 223.71 125.744C224.51 125.088 225.59 124.76 226.95 124.76C228.31 124.76 229.55 125.072 230.67 125.696L230.406 128.24C229.798 127.824 229.222 127.504 228.678 127.28C228.15 127.056 227.59 126.944 226.998 126.944C226.486 126.944 226.086 127.048 225.798 127.256C225.526 127.464 225.39 127.76 225.39 128.144C225.39 128.448 225.47 128.696 225.63 128.888C225.806 129.08 226.046 129.256 226.35 129.416C226.654 129.56 227.158 129.768 227.862 130.04C229.03 130.488 229.87 130.984 230.382 131.528C230.894 132.056 231.15 132.768 231.15 133.664C231.15 134.8 230.742 135.68 229.926 136.304C229.11 136.928 227.95 137.24 226.446 137.24Z" fill="#C4C4C4"/>
<g filter="url(#filter1_d_293_11044)">
<rect x="73" y="157" width="179.796" height="266" rx="6.77315" fill="#C4C4C4"/>
</g>
<g filter="url(#filter2_d_293_11044)">
<rect x="82.8521" y="201.333" width="160.093" height="49.2593" rx="6.77315" fill="#D9D9D9"/>
<rect x="87.7778" y="206.259" width="39.4074" height="39.4074" rx="6.77315" fill="white"/>
<path d="M152.645 229.301C152.172 229.301 151.817 229.168 151.581 228.902C151.344 228.628 151.226 228.277 151.226 227.849V220.877H152.6V227.283C152.6 227.579 152.615 227.79 152.645 227.915C152.682 228.033 152.741 228.107 152.822 228.137C152.911 228.159 153.059 228.17 153.265 228.17L153.144 229.301H152.645ZM155.168 229.301C154.71 229.301 154.326 229.153 154.016 228.857C153.713 228.554 153.561 228.148 153.561 227.638C153.561 227.158 153.735 226.774 154.082 226.485C154.429 226.19 154.84 225.983 155.312 225.865C155.785 225.739 156.24 225.669 156.676 225.654C156.661 225.329 156.576 225.096 156.421 224.956C156.273 224.816 156.025 224.745 155.678 224.745C155.434 224.745 155.194 224.779 154.958 224.845C154.729 224.912 154.463 225.019 154.16 225.167L154.038 224.047C154.71 223.722 155.383 223.559 156.055 223.559C156.705 223.559 157.2 223.737 157.54 224.091C157.887 224.446 158.061 225.011 158.061 225.787V227.283C158.061 227.564 158.072 227.767 158.094 227.893C158.124 228.011 158.168 228.089 158.227 228.126C158.294 228.155 158.401 228.17 158.549 228.17H158.726L158.604 229.301H158.105C157.803 229.301 157.548 229.245 157.341 229.134C157.134 229.016 156.975 228.857 156.864 228.658C156.687 228.857 156.443 229.016 156.133 229.134C155.83 229.245 155.508 229.301 155.168 229.301ZM155.745 228.248C155.885 228.248 156.044 228.214 156.221 228.148C156.399 228.074 156.554 227.974 156.687 227.849V226.585C156.243 226.607 155.852 226.703 155.512 226.873C155.172 227.043 155.002 227.28 155.002 227.583C155.002 227.812 155.061 227.982 155.179 228.093C155.298 228.196 155.486 228.248 155.745 228.248ZM160.761 228.824L158.455 223.648H159.985L161.403 227.217L162.844 223.648H164.374L160.905 231.872H159.53L160.761 228.824ZM167.426 229.301C166.783 229.301 166.232 229.171 165.774 228.913C165.324 228.647 164.984 228.296 164.755 227.86C164.533 227.416 164.422 226.925 164.422 226.386C164.422 225.869 164.529 225.396 164.744 224.967C164.958 224.539 165.268 224.199 165.675 223.947C166.081 223.689 166.565 223.559 167.127 223.559C167.644 223.559 168.08 223.667 168.434 223.881C168.796 224.095 169.066 224.383 169.243 224.745C169.428 225.107 169.521 225.514 169.521 225.965C169.521 226.186 169.491 226.437 169.432 226.718H165.852C165.926 227.206 166.118 227.572 166.428 227.815C166.739 228.052 167.112 228.17 167.548 228.17C168.146 228.17 168.7 228.019 169.21 227.716L169.277 228.879C169.04 229.005 168.763 229.109 168.445 229.19C168.135 229.264 167.795 229.301 167.426 229.301ZM168.124 225.787C168.124 225.499 168.043 225.244 167.88 225.022C167.718 224.801 167.466 224.69 167.127 224.69C166.787 224.69 166.513 224.79 166.306 224.989C166.099 225.189 165.959 225.455 165.885 225.787H168.124ZM170.292 223.648H171.578L171.611 224.236C171.774 224.051 171.981 223.888 172.232 223.748C172.491 223.608 172.76 223.537 173.041 223.537C173.13 223.537 173.211 223.545 173.285 223.559L173.185 224.912C173.045 224.875 172.886 224.856 172.709 224.856C172.48 224.856 172.269 224.912 172.077 225.022C171.885 225.126 171.748 225.255 171.667 225.41V229.19H170.292V223.648ZM181.771 226.264V227.416H180.774V229.19H179.411V227.416H175.542L179.81 221.431H180.774V226.264H181.771ZM179.411 226.264V223.881L177.737 226.264H179.411Z" fill="#8C8C8C"/>
<path d="M222.009 228.029C222.777 227.069 224.313 224.573 227.77 224.573C231.226 224.573 232.666 227.069 233.53 228.029" stroke="#8C8C8C" stroke-width="1.15211" stroke-linecap="round"/>
<line x1="223.672" y1="224.156" x2="224.185" y2="224.926" stroke="#8C8C8C" stroke-width="1.15211" stroke-linecap="round"/>
<line x1="229.647" y1="222.956" x2="229.321" y2="224.419" stroke="#8C8C8C" stroke-width="1.15211" stroke-linecap="round"/>
<line x1="232.755" y1="226.189" x2="234.161" y2="225.06" stroke="#8C8C8C" stroke-width="1.15211" stroke-linecap="round"/>
<circle cx="227.77" cy="227.165" r="2.30422" fill="#8C8C8C" stroke="#8C8C8C" stroke-width="0.576055"/>
<path d="M203.537 221.53C203.537 219.897 204.86 218.574 206.493 218.574H215.359C216.992 218.574 218.315 219.897 218.315 221.53V230.396C218.315 232.029 216.992 233.352 215.359 233.352H206.493C204.86 233.352 203.537 232.029 203.537 230.396V221.53Z" fill="#FCFBF9"/>
<path d="M206.802 230.119V223.962C206.802 223.811 206.895 223.577 207.108 223.369C207.315 223.167 207.586 223.038 207.869 223.038H213.984C214.724 223.038 215.05 223.577 215.05 223.962V230.119C215.05 230.27 214.958 230.504 214.744 230.712C214.538 230.914 214.266 231.043 213.984 231.043H207.869C207.586 231.043 207.315 230.914 207.108 230.712C206.895 230.504 206.802 230.27 206.802 230.119Z" stroke="#8C8C8C" stroke-width="0.923611"/>
<line x1="209.541" y1="224.578" x2="209.541" y2="229.504" stroke="#8C8C8C" stroke-width="0.923611" stroke-linecap="round"/>
<line x1="212.311" y1="224.578" x2="212.311" y2="229.504" stroke="#8C8C8C" stroke-width="0.923611" stroke-linecap="round"/>
<line x1="206.462" y1="221.807" x2="215.39" y2="221.807" stroke="#8C8C8C" stroke-width="0.923611" stroke-linecap="round"/>
<line x1="210.199" y1="221.191" x2="211.653" y2="221.191" stroke="#8C8C8C" stroke-width="0.923611" stroke-linecap="round"/>
</g>
<g filter="url(#filter3_d_293_11044)">
<rect x="82.8521" y="255.518" width="160.093" height="49.2593" rx="6.77315" fill="#FCFBF9"/>
<rect x="87.7778" y="260.444" width="39.4074" height="39.4074" rx="6.77315" fill="white"/>
<path d="M151.413 284.102C150.94 284.102 150.586 283.969 150.349 283.703C150.113 283.429 149.995 283.078 149.995 282.65V275.678H151.369V282.084C151.369 282.38 151.384 282.591 151.413 282.716C151.45 282.834 151.509 282.908 151.591 282.938C151.679 282.96 151.827 282.971 152.034 282.971L151.912 284.102H151.413ZM153.937 284.102C153.479 284.102 153.095 283.954 152.784 283.658C152.481 283.355 152.33 282.949 152.33 282.439C152.33 281.959 152.503 281.575 152.851 281.286C153.198 280.991 153.608 280.784 154.081 280.666C154.554 280.54 155.008 280.47 155.444 280.455C155.429 280.13 155.345 279.897 155.189 279.757C155.042 279.617 154.794 279.546 154.447 279.546C154.203 279.546 153.963 279.58 153.726 279.646C153.497 279.713 153.231 279.82 152.928 279.967L152.806 278.848C153.479 278.523 154.151 278.36 154.824 278.36C155.474 278.36 155.969 278.538 156.309 278.892C156.656 279.247 156.83 279.812 156.83 280.588V282.084C156.83 282.365 156.841 282.568 156.863 282.694C156.892 282.812 156.937 282.89 156.996 282.927C157.062 282.956 157.17 282.971 157.317 282.971H157.495L157.373 284.102H156.874C156.571 284.102 156.316 284.046 156.109 283.935C155.902 283.817 155.744 283.658 155.633 283.459C155.455 283.658 155.212 283.817 154.901 283.935C154.598 284.046 154.277 284.102 153.937 284.102ZM154.513 283.049C154.654 283.049 154.813 283.015 154.99 282.949C155.167 282.875 155.322 282.775 155.455 282.65V281.386C155.012 281.408 154.62 281.504 154.281 281.674C153.941 281.844 153.771 282.081 153.771 282.384C153.771 282.613 153.83 282.783 153.948 282.893C154.066 282.997 154.255 283.049 154.513 283.049ZM159.529 283.625L157.224 278.449H158.753L160.172 282.018L161.613 278.449H163.142L159.673 286.673H158.299L159.529 283.625ZM166.194 284.102C165.551 284.102 165.001 283.972 164.543 283.714C164.092 283.448 163.752 283.097 163.523 282.661C163.302 282.217 163.191 281.726 163.191 281.187C163.191 280.669 163.298 280.197 163.512 279.768C163.726 279.339 164.037 279 164.443 278.748C164.85 278.49 165.334 278.36 165.895 278.36C166.412 278.36 166.848 278.468 167.203 278.682C167.565 278.896 167.835 279.184 168.012 279.546C168.197 279.908 168.289 280.315 168.289 280.765C168.289 280.987 168.26 281.238 168.2 281.519H164.62C164.694 282.007 164.886 282.373 165.197 282.616C165.507 282.853 165.88 282.971 166.316 282.971C166.915 282.971 167.469 282.82 167.979 282.517L168.045 283.68C167.809 283.806 167.532 283.909 167.214 283.991C166.904 284.065 166.564 284.102 166.194 284.102ZM166.893 280.588C166.893 280.3 166.811 280.045 166.649 279.823C166.486 279.602 166.235 279.491 165.895 279.491C165.555 279.491 165.282 279.591 165.075 279.79C164.868 279.99 164.728 280.256 164.654 280.588H166.893ZM169.061 278.449H170.347L170.38 279.036C170.542 278.852 170.749 278.689 171.001 278.549C171.259 278.408 171.529 278.338 171.81 278.338C171.898 278.338 171.98 278.346 172.054 278.36L171.954 279.713C171.813 279.676 171.655 279.657 171.477 279.657C171.248 279.657 171.038 279.713 170.845 279.823C170.653 279.927 170.517 280.056 170.435 280.211V283.991H169.061V278.449ZM178.168 279.89C178.597 280.03 178.933 280.263 179.177 280.588C179.428 280.913 179.553 281.312 179.553 281.785C179.553 282.531 179.302 283.111 178.8 283.525C178.305 283.939 177.636 284.146 176.794 284.146C176.365 284.146 175.959 284.098 175.575 284.002C175.198 283.906 174.876 283.788 174.61 283.647L174.954 282.45C175.589 282.768 176.203 282.927 176.794 282.927C177.207 282.927 177.533 282.831 177.769 282.639C178.013 282.446 178.135 282.162 178.135 281.785C178.135 281.002 177.658 280.61 176.705 280.61H175.918V279.28H176.694C177.093 279.28 177.396 279.192 177.603 279.014C177.817 278.83 177.924 278.571 177.924 278.238C177.924 277.95 177.824 277.721 177.625 277.551C177.433 277.381 177.156 277.296 176.794 277.296C176.498 277.296 176.21 277.341 175.929 277.429C175.656 277.518 175.371 277.647 175.076 277.817L174.865 276.565C175.486 276.24 176.177 276.077 176.938 276.077C177.677 276.077 178.249 276.262 178.656 276.631C179.069 276.993 179.276 277.47 179.276 278.061C179.276 278.482 179.18 278.852 178.988 279.169C178.796 279.48 178.523 279.72 178.168 279.89Z" fill="#8C8C8C"/>
<line x1="224.999" y1="283.487" x2="225.636" y2="282.213" stroke="#8C8C8C" stroke-width="1.15211" stroke-linecap="round"/>
<line x1="230.916" y1="284.384" x2="230.566" y2="282.634" stroke="#8C8C8C" stroke-width="1.15211" stroke-linecap="round"/>
<path d="M234.128 282.071L235.405 283.686" stroke="#8C8C8C" stroke-width="1.15211" stroke-linecap="round"/>
<path d="M223.241 281.38C226.697 282.82 230.729 282.82 234.762 281.38" stroke="#8C8C8C" stroke-width="1.15211" stroke-linecap="round"/>
<path d="M203.537 276.331C203.537 274.698 204.86 273.375 206.493 273.375H215.359C216.992 273.375 218.315 274.698 218.315 276.331V285.197C218.315 286.83 216.992 288.153 215.359 288.153H206.493C204.86 288.153 203.537 286.83 203.537 285.197V276.331Z" fill="#FCFBF9"/>
<path d="M206.802 284.92V278.763C206.802 278.612 206.895 278.378 207.108 278.17C207.315 277.968 207.586 277.839 207.869 277.839H213.984C214.724 277.839 215.05 278.377 215.05 278.763V284.92C215.05 285.071 214.958 285.305 214.744 285.513C214.538 285.715 214.266 285.844 213.984 285.844H207.869C207.586 285.844 207.315 285.715 207.108 285.513C206.895 285.305 206.802 285.071 206.802 284.92Z" stroke="#8C8C8C" stroke-width="0.923611"/>
<line x1="209.541" y1="279.378" x2="209.541" y2="284.304" stroke="#8C8C8C" stroke-width="0.923611" stroke-linecap="round"/>
<line x1="212.311" y1="279.378" x2="212.311" y2="284.304" stroke="#8C8C8C" stroke-width="0.923611" stroke-linecap="round"/>
<line x1="206.462" y1="276.608" x2="215.39" y2="276.608" stroke="#8C8C8C" stroke-width="0.923611" stroke-linecap="round"/>
<line x1="210.199" y1="275.992" x2="211.653" y2="275.992" stroke="#8C8C8C" stroke-width="0.923611" stroke-linecap="round"/>
</g>
<g filter="url(#filter4_d_293_11044)">
<rect x="82.8521" y="309.704" width="160.093" height="49.2593" rx="6.77315" fill="#FCFBF9"/>
<rect x="87.7778" y="314.63" width="39.4074" height="39.4074" rx="6.77315" fill="white"/>
<path d="M151.413 337.055C150.94 337.055 150.586 336.922 150.349 336.656C150.113 336.383 149.995 336.032 149.995 335.603V328.632H151.369V335.038C151.369 335.334 151.384 335.544 151.413 335.67C151.45 335.788 151.509 335.862 151.591 335.892C151.679 335.914 151.827 335.925 152.034 335.925L151.912 337.055H151.413ZM153.937 337.055C153.479 337.055 153.095 336.908 152.784 336.612C152.481 336.309 152.33 335.903 152.33 335.393C152.33 334.913 152.503 334.528 152.851 334.24C153.198 333.945 153.608 333.738 154.081 333.619C154.554 333.494 155.008 333.424 155.444 333.409C155.429 333.084 155.345 332.851 155.189 332.711C155.042 332.57 154.794 332.5 154.447 332.5C154.203 332.5 153.963 332.533 153.726 332.6C153.497 332.666 153.231 332.773 152.928 332.921L152.806 331.802C153.479 331.477 154.151 331.314 154.824 331.314C155.474 331.314 155.969 331.491 156.309 331.846C156.656 332.201 156.83 332.766 156.83 333.542V335.038C156.83 335.319 156.841 335.522 156.863 335.648C156.892 335.766 156.937 335.844 156.996 335.88C157.062 335.91 157.17 335.925 157.317 335.925H157.495L157.373 337.055H156.874C156.571 337.055 156.316 337 156.109 336.889C155.902 336.771 155.744 336.612 155.633 336.412C155.455 336.612 155.212 336.771 154.901 336.889C154.598 337 154.277 337.055 153.937 337.055ZM154.513 336.002C154.654 336.002 154.813 335.969 154.99 335.903C155.167 335.829 155.322 335.729 155.455 335.603V334.34C155.012 334.362 154.62 334.458 154.281 334.628C153.941 334.798 153.771 335.034 153.771 335.337C153.771 335.566 153.83 335.736 153.948 335.847C154.066 335.951 154.255 336.002 154.513 336.002ZM159.529 336.579L157.224 331.403H158.753L160.172 334.972L161.613 331.403H163.142L159.673 339.627H158.299L159.529 336.579ZM166.194 337.055C165.551 337.055 165.001 336.926 164.543 336.667C164.092 336.401 163.752 336.05 163.523 335.614C163.302 335.171 163.191 334.68 163.191 334.14C163.191 333.623 163.298 333.15 163.512 332.722C163.726 332.293 164.037 331.953 164.443 331.702C164.85 331.443 165.334 331.314 165.895 331.314C166.412 331.314 166.848 331.421 167.203 331.636C167.565 331.85 167.835 332.138 168.012 332.5C168.197 332.862 168.289 333.268 168.289 333.719C168.289 333.941 168.26 334.192 168.2 334.473H164.62C164.694 334.961 164.886 335.326 165.197 335.57C165.507 335.807 165.88 335.925 166.316 335.925C166.915 335.925 167.469 335.773 167.979 335.47L168.045 336.634C167.809 336.76 167.532 336.863 167.214 336.944C166.904 337.018 166.564 337.055 166.194 337.055ZM166.893 333.542C166.893 333.254 166.811 332.999 166.649 332.777C166.486 332.555 166.235 332.445 165.895 332.445C165.555 332.445 165.282 332.544 165.075 332.744C164.868 332.943 164.728 333.209 164.654 333.542H166.893ZM169.061 331.403H170.347L170.38 331.99C170.542 331.805 170.749 331.643 171.001 331.503C171.259 331.362 171.529 331.292 171.81 331.292C171.898 331.292 171.98 331.299 172.054 331.314L171.954 332.666C171.813 332.629 171.655 332.611 171.477 332.611C171.248 332.611 171.038 332.666 170.845 332.777C170.653 332.881 170.517 333.01 170.435 333.165V336.944H169.061V331.403ZM176.76 333.808C177.189 333.15 177.481 332.655 177.636 332.323C177.799 331.99 177.88 331.676 177.88 331.381C177.88 331.063 177.788 330.815 177.603 330.638C177.425 330.453 177.178 330.361 176.86 330.361C176.506 330.361 176.177 330.446 175.874 330.616C175.571 330.786 175.275 331.015 174.987 331.303L174.81 329.873C175.157 329.593 175.519 329.382 175.896 329.242C176.273 329.101 176.69 329.031 177.148 329.031C177.599 329.031 177.983 329.127 178.301 329.319C178.619 329.504 178.855 329.755 179.01 330.073C179.173 330.391 179.254 330.741 179.254 331.126C179.254 331.562 179.158 332.009 178.966 332.467C178.781 332.925 178.453 333.512 177.98 334.229L177.071 335.614H179.531V336.944H174.721L176.76 333.808Z" fill="#8C8C8C"/>
<path d="M222.009 336.399C222.777 335.439 224.313 332.943 227.77 332.943C231.226 332.943 232.666 335.439 233.53 336.399" stroke="#8C8C8C" stroke-width="1.15211" stroke-linecap="round"/>
<line x1="223.672" y1="332.527" x2="224.185" y2="333.296" stroke="#8C8C8C" stroke-width="1.15211" stroke-linecap="round"/>
<line x1="229.647" y1="331.326" x2="229.321" y2="332.789" stroke="#8C8C8C" stroke-width="1.15211" stroke-linecap="round"/>
<line x1="232.755" y1="334.559" x2="234.161" y2="333.431" stroke="#8C8C8C" stroke-width="1.15211" stroke-linecap="round"/>
<circle cx="227.77" cy="335.535" r="2.30422" fill="#8C8C8C" stroke="#8C8C8C" stroke-width="0.576055"/>
<path d="M203.537 329.284C203.537 327.652 204.86 326.329 206.493 326.329H215.359C216.992 326.329 218.315 327.652 218.315 329.284V338.151C218.315 339.783 216.992 341.106 215.359 341.106H206.493C204.86 341.106 203.537 339.783 203.537 338.151V329.284Z" fill="#FCFBF9"/>
<path d="M206.802 337.874V331.716C206.802 331.566 206.895 331.332 207.108 331.123C207.315 330.922 207.586 330.793 207.869 330.793H213.984C214.724 330.793 215.05 331.331 215.05 331.716V337.874C215.05 338.024 214.958 338.258 214.744 338.467C214.538 338.668 214.266 338.797 213.984 338.797H207.869C207.586 338.797 207.315 338.668 207.108 338.467C206.895 338.258 206.802 338.024 206.802 337.874Z" stroke="#8C8C8C" stroke-width="0.923611"/>
<line x1="209.541" y1="332.332" x2="209.541" y2="337.258" stroke="#8C8C8C" stroke-width="0.923611" stroke-linecap="round"/>
<line x1="212.311" y1="332.332" x2="212.311" y2="337.258" stroke="#8C8C8C" stroke-width="0.923611" stroke-linecap="round"/>
<line x1="206.462" y1="329.561" x2="215.39" y2="329.561" stroke="#8C8C8C" stroke-width="0.923611" stroke-linecap="round"/>
<line x1="210.199" y1="328.946" x2="211.653" y2="328.946" stroke="#8C8C8C" stroke-width="0.923611" stroke-linecap="round"/>
</g>
<g filter="url(#filter5_d_293_11044)">
<rect x="82.8521" y="363.889" width="160.093" height="49.2593" rx="6.77315" fill="#FCFBF9"/>
<rect x="87.7778" y="368.815" width="39.4074" height="39.4074" rx="6.77315" fill="white"/>
<path d="M151.413 392.472C150.94 392.472 150.586 392.339 150.349 392.073C150.113 391.8 149.995 391.449 149.995 391.02V384.049H151.369V390.455C151.369 390.75 151.384 390.961 151.413 391.087C151.45 391.205 151.509 391.279 151.591 391.308C151.679 391.33 151.827 391.341 152.034 391.341L151.912 392.472H151.413ZM153.937 392.472C153.479 392.472 153.095 392.324 152.784 392.029C152.481 391.726 152.33 391.319 152.33 390.809C152.33 390.329 152.503 389.945 152.851 389.657C153.198 389.361 153.608 389.154 154.081 389.036C154.554 388.91 155.008 388.84 155.444 388.826C155.429 388.5 155.345 388.268 155.189 388.127C155.042 387.987 154.794 387.917 154.447 387.917C154.203 387.917 153.963 387.95 153.726 388.016C153.497 388.083 153.231 388.19 152.928 388.338L152.806 387.218C153.479 386.893 154.151 386.731 154.824 386.731C155.474 386.731 155.969 386.908 156.309 387.263C156.656 387.617 156.83 388.183 156.83 388.959V390.455C156.83 390.736 156.841 390.939 156.863 391.064C156.892 391.183 156.937 391.26 156.996 391.297C157.062 391.327 157.17 391.341 157.317 391.341H157.495L157.373 392.472H156.874C156.571 392.472 156.316 392.417 156.109 392.306C155.902 392.187 155.744 392.029 155.633 391.829C155.455 392.029 155.212 392.187 154.901 392.306C154.598 392.417 154.277 392.472 153.937 392.472ZM154.513 391.419C154.654 391.419 154.813 391.386 154.99 391.319C155.167 391.245 155.322 391.146 155.455 391.02V389.757C155.012 389.779 154.62 389.875 154.281 390.045C153.941 390.215 153.771 390.451 153.771 390.754C153.771 390.983 153.83 391.153 153.948 391.264C154.066 391.367 154.255 391.419 154.513 391.419ZM159.529 391.995L157.224 386.819H158.753L160.172 390.388L161.613 386.819H163.142L159.673 395.043H158.299L159.529 391.995ZM166.194 392.472C165.551 392.472 165.001 392.343 164.543 392.084C164.092 391.818 163.752 391.467 163.523 391.031C163.302 390.588 163.191 390.096 163.191 389.557C163.191 389.04 163.298 388.567 163.512 388.138C163.726 387.71 164.037 387.37 164.443 387.119C164.85 386.86 165.334 386.731 165.895 386.731C166.412 386.731 166.848 386.838 167.203 387.052C167.565 387.266 167.835 387.555 168.012 387.917C168.197 388.279 168.289 388.685 168.289 389.136C168.289 389.358 168.26 389.609 168.2 389.89H164.62C164.694 390.377 164.886 390.743 165.197 390.987C165.507 391.223 165.88 391.341 166.316 391.341C166.915 391.341 167.469 391.19 167.979 390.887L168.045 392.051C167.809 392.176 167.532 392.28 167.214 392.361C166.904 392.435 166.564 392.472 166.194 392.472ZM166.893 388.959C166.893 388.67 166.811 388.415 166.649 388.194C166.486 387.972 166.235 387.861 165.895 387.861C165.555 387.861 165.282 387.961 165.075 388.161C164.868 388.36 164.728 388.626 164.654 388.959H166.893ZM169.061 386.819H170.347L170.38 387.407C170.542 387.222 170.749 387.06 171.001 386.919C171.259 386.779 171.529 386.709 171.81 386.709C171.898 386.709 171.98 386.716 172.054 386.731L171.954 388.083C171.813 388.046 171.655 388.028 171.477 388.028C171.248 388.028 171.038 388.083 170.845 388.194C170.653 388.297 170.517 388.427 170.435 388.582V392.361H169.061V386.819ZM175.829 386.609C175.519 386.816 175.194 386.949 174.854 387.008L174.732 385.811C174.976 385.759 175.249 385.611 175.552 385.368C175.855 385.116 176.059 384.861 176.162 384.603H177.248V392.361H175.829V386.609Z" fill="#8C8C8C"/>
<path d="M222.009 391.2C222.777 390.24 224.313 387.744 227.77 387.744C231.226 387.744 232.666 390.24 233.53 391.2" stroke="#8C8C8C" stroke-width="1.15211" stroke-linecap="round"/>
<line x1="223.672" y1="387.328" x2="224.185" y2="388.097" stroke="#8C8C8C" stroke-width="1.15211" stroke-linecap="round"/>
<line x1="229.647" y1="386.127" x2="229.321" y2="387.59" stroke="#8C8C8C" stroke-width="1.15211" stroke-linecap="round"/>
<line x1="232.755" y1="389.36" x2="234.161" y2="388.232" stroke="#8C8C8C" stroke-width="1.15211" stroke-linecap="round"/>
<circle cx="227.77" cy="390.336" r="2.30422" fill="#8C8C8C" stroke="#8C8C8C" stroke-width="0.576055"/>
<path d="M203.537 384.085C203.537 382.453 204.86 381.13 206.493 381.13H215.359C216.992 381.13 218.315 382.453 218.315 384.085V392.952C218.315 394.584 216.992 395.907 215.359 395.907H206.493C204.86 395.907 203.537 394.584 203.537 392.952V384.085Z" fill="#FCFBF9"/>
<path d="M206.802 392.675V386.517C206.802 386.367 206.895 386.133 207.108 385.924C207.315 385.723 207.586 385.594 207.869 385.594H213.984C214.724 385.594 215.05 386.132 215.05 386.517V392.675C215.05 392.825 214.958 393.059 214.744 393.268C214.538 393.469 214.266 393.598 213.984 393.598H207.869C207.586 393.598 207.315 393.469 207.108 393.268C206.895 393.059 206.802 392.825 206.802 392.675Z" stroke="#8C8C8C" stroke-width="0.923611"/>
<line x1="209.541" y1="387.133" x2="209.541" y2="392.059" stroke="#8C8C8C" stroke-width="0.923611" stroke-linecap="round"/>
<line x1="212.311" y1="387.133" x2="212.311" y2="392.059" stroke="#8C8C8C" stroke-width="0.923611" stroke-linecap="round"/>
<line x1="206.462" y1="384.362" x2="215.39" y2="384.362" stroke="#8C8C8C" stroke-width="0.923611" stroke-linecap="round"/>
<line x1="210.199" y1="383.747" x2="211.653" y2="383.747" stroke="#8C8C8C" stroke-width="0.923611" stroke-linecap="round"/>
</g>
<g filter="url(#filter6_d_293_11044)">
<path d="M213.389 172.763C213.389 169.498 216.035 166.852 219.3 166.852H237.033C240.298 166.852 242.944 169.498 242.944 172.763V190.496C242.944 193.761 240.298 196.407 237.033 196.407H219.3C216.035 196.407 213.389 193.761 213.389 190.496V172.763Z" fill="#FCFBF9"/>
<line x1="228.051" y1="174.549" x2="228.051" y2="188.621" stroke="#8C8C8C" stroke-width="1.84722" stroke-linecap="round"/>
<line x1="235.158" y1="181.514" x2="221.086" y2="181.514" stroke="#8C8C8C" stroke-width="1.84722" stroke-linecap="round"/>
</g>
<g filter="url(#filter7_d_293_11044)">
<path d="M225 41.6C225 36.2981 229.298 32 234.6 32H263.4C268.702 32 273 36.2981 273 41.6V70.4C273 75.7019 268.702 80 263.4 80H234.6C229.298 80 225 75.7019 225 70.4V41.6Z" fill="#FCFBF9"/>
<path d="M253.667 66.8333L253.667 69.0476C253.667 70.6782 252.345 72 250.714 72L235.952 72C234.322 72 233 70.6782 233 69.0476L233 54.2857C233 52.6552 234.322 51.3333 235.952 51.3333L238.167 51.3333" stroke="#8C8C8C" stroke-width="3" stroke-linecap="round" stroke-linejoin="round"/>
<path d="M246.286 61.6667C245.319 61.6667 243.333 60.9286 243.333 58.7143V43.9524C243.333 42.7252 244.284 41 246.286 41H261.048C262.849 41 264 42.4762 264 43.9524V58.7143C264 60.6518 262.244 61.6667 261.048 61.6667L246.286 61.6667Z" stroke="#8C8C8C" stroke-width="3" stroke-linecap="round"/>
</g>
<path d="M51.5061 53H55.8621L58.9581 65.564L62.3421 53.36H66.0861L69.4341 65.564L72.5661 53H76.9221L71.6661 71H67.9221L64.2141 59.264L60.5061 71H56.7621L51.5061 53ZM78.8152 45.8H83.2792V50.264H78.8152V45.8ZM78.8152 53H83.2792V71H78.8152V53ZM92.7916 71.36C91.2076 71.36 90.0076 70.904 89.1916 69.992C88.3756 69.056 87.9676 67.94 87.9676 66.644V56.672H85.4116L85.8076 53H87.9676V49.04L92.4316 48.572V53H96.3916V56.672H92.4316V64.808C92.4316 65.768 92.4796 66.44 92.5756 66.824C92.6956 67.184 92.9236 67.424 93.2596 67.544C93.6196 67.64 94.2556 67.688 95.1676 67.688H96.3916L95.9956 71.36H92.7916ZM107.831 52.712C110.111 52.712 111.803 53.456 112.907 54.944C114.035 56.408 114.599 58.424 114.599 60.992V71H110.135V61.316C110.135 59.612 109.859 58.364 109.307 57.572C108.755 56.78 107.879 56.384 106.679 56.384C105.263 56.384 104.099 56.9 103.187 57.932V71H98.7226V44H103.187V54.152C103.907 53.696 104.639 53.348 105.383 53.108C106.127 52.844 106.943 52.712 107.831 52.712ZM130.201 71.36C128.665 71.36 127.513 70.928 126.745 70.064C125.977 69.176 125.593 68.036 125.593 66.644V44H130.057V64.808C130.057 65.768 130.105 66.452 130.201 66.86C130.321 67.244 130.513 67.484 130.777 67.58C131.065 67.652 131.545 67.688 132.217 67.688L131.821 71.36H130.201ZM138.398 71.36C136.91 71.36 135.662 70.88 134.654 69.92C133.67 68.936 133.178 67.616 133.178 65.96C133.178 64.4 133.742 63.152 134.87 62.216C135.998 61.256 137.33 60.584 138.866 60.2C140.402 59.792 141.878 59.564 143.294 59.516C143.246 58.46 142.97 57.704 142.466 57.248C141.986 56.792 141.182 56.564 140.054 56.564C139.262 56.564 138.482 56.672 137.714 56.888C136.97 57.104 136.106 57.452 135.122 57.932L134.726 54.296C136.91 53.24 139.094 52.712 141.278 52.712C143.39 52.712 144.998 53.288 146.102 54.44C147.23 55.592 147.794 57.428 147.794 59.948V64.808C147.794 65.72 147.83 66.38 147.902 66.788C147.998 67.172 148.142 67.424 148.334 67.544C148.55 67.64 148.898 67.688 149.378 67.688H149.954L149.558 71.36H147.938C146.954 71.36 146.126 71.18 145.454 70.82C144.782 70.436 144.266 69.92 143.906 69.272C143.33 69.92 142.538 70.436 141.53 70.82C140.546 71.18 139.502 71.36 138.398 71.36ZM140.27 67.94C140.726 67.94 141.242 67.832 141.818 67.616C142.394 67.376 142.898 67.052 143.33 66.644V62.54C141.89 62.612 140.618 62.924 139.514 63.476C138.41 64.028 137.858 64.796 137.858 65.78C137.858 66.524 138.05 67.076 138.434 67.436C138.818 67.772 139.43 67.94 140.27 67.94ZM156.562 69.812L149.074 53H154.042L158.65 64.592L163.33 53H168.298L157.03 79.712H152.566L156.562 69.812ZM178.211 71.36C176.123 71.36 174.335 70.94 172.847 70.1C171.383 69.236 170.279 68.096 169.535 66.68C168.815 65.24 168.455 63.644 168.455 61.892C168.455 60.212 168.803 58.676 169.499 57.284C170.195 55.892 171.203 54.788 172.523 53.972C173.843 53.132 175.415 52.712 177.239 52.712C178.919 52.712 180.335 53.06 181.487 53.756C182.663 54.452 183.539 55.388 184.115 56.564C184.715 57.74 185.015 59.06 185.015 60.524C185.015 61.244 184.919 62.06 184.727 62.972H173.099C173.339 64.556 173.963 65.744 174.971 66.536C175.979 67.304 177.191 67.688 178.607 67.688C180.551 67.688 182.351 67.196 184.007 66.212L184.223 69.992C183.455 70.4 182.555 70.736 181.523 71C180.515 71.24 179.411 71.36 178.211 71.36ZM180.479 59.948C180.479 59.012 180.215 58.184 179.687 57.464C179.159 56.744 178.343 56.384 177.239 56.384C176.135 56.384 175.247 56.708 174.575 57.356C173.903 58.004 173.447 58.868 173.207 59.948H180.479ZM187.523 53H191.699L191.807 54.908C192.335 54.308 193.007 53.78 193.823 53.324C194.663 52.868 195.539 52.64 196.451 52.64C196.739 52.64 197.003 52.664 197.243 52.712L196.919 57.104C196.463 56.984 195.947 56.924 195.371 56.924C194.627 56.924 193.943 57.104 193.319 57.464C192.695 57.8 192.251 58.22 191.987 58.724V71H187.523V53ZM203.977 71.36C202.825 71.36 201.769 71.252 200.809 71.036C199.873 70.82 198.901 70.484 197.893 70.028L198.289 66.212C199.297 66.812 200.233 67.268 201.097 67.58C201.985 67.868 202.897 68.012 203.833 68.012C205.657 68.012 206.569 67.412 206.569 66.212C206.569 65.564 206.329 65.072 205.849 64.736C205.369 64.376 204.505 63.956 203.257 63.476C201.481 62.828 200.173 62.096 199.333 61.28C198.493 60.44 198.073 59.312 198.073 57.896C198.073 56.336 198.673 55.076 199.873 54.116C201.073 53.132 202.693 52.64 204.733 52.64C206.773 52.64 208.633 53.108 210.313 54.044L209.917 57.86C209.005 57.236 208.141 56.756 207.325 56.42C206.533 56.084 205.693 55.916 204.805 55.916C204.037 55.916 203.437 56.072 203.005 56.384C202.597 56.696 202.393 57.14 202.393 57.716C202.393 58.172 202.513 58.544 202.753 58.832C203.017 59.12 203.377 59.384 203.833 59.624C204.289 59.84 205.045 60.152 206.101 60.56C207.853 61.232 209.113 61.976 209.881 62.792C210.649 63.584 211.033 64.652 211.033 65.996C211.033 67.7 210.421 69.02 209.197 69.956C207.973 70.892 206.233 71.36 203.977 71.36Z" fill="#8C8C8C"/>
<defs>
<filter id="filter0_d_293_11044" x="0" y="0" width="325" height="463" filterUnits="userSpaceOnUse" color-interpolation-filters="sRGB">
<feFlood flood-opacity="0" result="BackgroundImageFix"/>
<feColorMatrix in="SourceAlpha" type="matrix" values="0 0 0 0 0 0 0 0 0 0 0 0 0 0 0 0 0 0 127 0" result="hardAlpha"/>
<feOffset dy="2"/>
<feGaussianBlur stdDeviation="2"/>
<feComposite in2="hardAlpha" operator="out"/>
<feColorMatrix type="matrix" values="0 0 0 0 0 0 0 0 0 0 0 0 0 0 0 0 0 0 0.25 0"/>
<feBlend mode="normal" in2="BackgroundImageFix" result="effect1_dropShadow_293_11044"/>
<feBlend mode="normal" in="SourceGraphic" in2="effect1_dropShadow_293_11044" result="shape"/>
</filter>
<filter id="filter1_d_293_11044" x="70.537" y="157" width="184.722" height="270.926" filterUnits="userSpaceOnUse" color-interpolation-filters="sRGB">
<feFlood flood-opacity="0" result="BackgroundImageFix"/>
<feColorMatrix in="SourceAlpha" type="matrix" values="0 0 0 0 0 0 0 0 0 0 0 0 0 0 0 0 0 0 127 0" result="hardAlpha"/>
<feOffset dy="2.46296"/>
<feGaussianBlur stdDeviation="1.23148"/>
<feComposite in2="hardAlpha" operator="out"/>
<feColorMatrix type="matrix" values="0 0 0 0 0 0 0 0 0 0 0 0 0 0 0 0 0 0 0.25 0"/>
<feBlend mode="normal" in2="BackgroundImageFix" result="effect1_dropShadow_293_11044"/>
<feBlend mode="normal" in="SourceGraphic" in2="effect1_dropShadow_293_11044" result="shape"/>
</filter>
<filter id="filter2_d_293_11044" x="80.3891" y="200.102" width="165.018" height="54.1852" filterUnits="userSpaceOnUse" color-interpolation-filters="sRGB">
<feFlood flood-opacity="0" result="BackgroundImageFix"/>
<feColorMatrix in="SourceAlpha" type="matrix" values="0 0 0 0 0 0 0 0 0 0 0 0 0 0 0 0 0 0 127 0" result="hardAlpha"/>
<feOffset dy="1.23148"/>
<feGaussianBlur stdDeviation="1.23148"/>
<feComposite in2="hardAlpha" operator="out"/>
<feColorMatrix type="matrix" values="0 0 0 0 0 0 0 0 0 0 0 0 0 0 0 0 0 0 0.25 0"/>
<feBlend mode="normal" in2="BackgroundImageFix" result="effect1_dropShadow_293_11044"/>
<feBlend mode="normal" in="SourceGraphic" in2="effect1_dropShadow_293_11044" result="shape"/>
</filter>
<filter id="filter3_d_293_11044" x="80.3891" y="254.287" width="165.018" height="54.1852" filterUnits="userSpaceOnUse" color-interpolation-filters="sRGB">
<feFlood flood-opacity="0" result="BackgroundImageFix"/>
<feColorMatrix in="SourceAlpha" type="matrix" values="0 0 0 0 0 0 0 0 0 0 0 0 0 0 0 0 0 0 127 0" result="hardAlpha"/>
<feOffset dy="1.23148"/>
<feGaussianBlur stdDeviation="1.23148"/>
<feComposite in2="hardAlpha" operator="out"/>
<feColorMatrix type="matrix" values="0 0 0 0 0 0 0 0 0 0 0 0 0 0 0 0 0 0 0.25 0"/>
<feBlend mode="normal" in2="BackgroundImageFix" result="effect1_dropShadow_293_11044"/>
<feBlend mode="normal" in="SourceGraphic" in2="effect1_dropShadow_293_11044" result="shape"/>
</filter>
<filter id="filter4_d_293_11044" x="80.3891" y="308.472" width="165.018" height="54.1852" filterUnits="userSpaceOnUse" color-interpolation-filters="sRGB">
<feFlood flood-opacity="0" result="BackgroundImageFix"/>
<feColorMatrix in="SourceAlpha" type="matrix" values="0 0 0 0 0 0 0 0 0 0 0 0 0 0 0 0 0 0 127 0" result="hardAlpha"/>
<feOffset dy="1.23148"/>
<feGaussianBlur stdDeviation="1.23148"/>
<feComposite in2="hardAlpha" operator="out"/>
<feColorMatrix type="matrix" values="0 0 0 0 0 0 0 0 0 0 0 0 0 0 0 0 0 0 0.25 0"/>
<feBlend mode="normal" in2="BackgroundImageFix" result="effect1_dropShadow_293_11044"/>
<feBlend mode="normal" in="SourceGraphic" in2="effect1_dropShadow_293_11044" result="shape"/>
</filter>
<filter id="filter5_d_293_11044" x="80.3891" y="362.657" width="165.018" height="54.1852" filterUnits="userSpaceOnUse" color-interpolation-filters="sRGB">
<feFlood flood-opacity="0" result="BackgroundImageFix"/>
<feColorMatrix in="SourceAlpha" type="matrix" values="0 0 0 0 0 0 0 0 0 0 0 0 0 0 0 0 0 0 127 0" result="hardAlpha"/>
<feOffset dy="1.23148"/>
<feGaussianBlur stdDeviation="1.23148"/>
<feComposite in2="hardAlpha" operator="out"/>
<feColorMatrix type="matrix" values="0 0 0 0 0 0 0 0 0 0 0 0 0 0 0 0 0 0 0.25 0"/>
<feBlend mode="normal" in2="BackgroundImageFix" result="effect1_dropShadow_293_11044"/>
<feBlend mode="normal" in="SourceGraphic" in2="effect1_dropShadow_293_11044" result="shape"/>
</filter>
<filter id="filter6_d_293_11044" x="210.926" y="165.62" width="34.4816" height="34.4815" filterUnits="userSpaceOnUse" color-interpolation-filters="sRGB">
<feFlood flood-opacity="0" result="BackgroundImageFix"/>
<feColorMatrix in="SourceAlpha" type="matrix" values="0 0 0 0 0 0 0 0 0 0 0 0 0 0 0 0 0 0 127 0" result="hardAlpha"/>
<feOffset dy="1.23148"/>
<feGaussianBlur stdDeviation="1.23148"/>
<feComposite in2="hardAlpha" operator="out"/>
<feColorMatrix type="matrix" values="0 0 0 0 0 0 0 0 0 0 0 0 0 0 0 0 0 0 0.25 0"/>
<feBlend mode="normal" in2="BackgroundImageFix" result="effect1_dropShadow_293_11044"/>
<feBlend mode="normal" in="SourceGraphic" in2="effect1_dropShadow_293_11044" result="shape"/>
</filter>
<filter id="filter7_d_293_11044" x="221" y="30" width="56" height="56" filterUnits="userSpaceOnUse" color-interpolation-filters="sRGB">
<feFlood flood-opacity="0" result="BackgroundImageFix"/>
<feColorMatrix in="SourceAlpha" type="matrix" values="0 0 0 0 0 0 0 0 0 0 0 0 0 0 0 0 0 0 127 0" result="hardAlpha"/>
<feOffset dy="2"/>
<feGaussianBlur stdDeviation="2"/>
<feComposite in2="hardAlpha" operator="out"/>
<feColorMatrix type="matrix" values="0 0 0 0 0 0 0 0 0 0 0 0 0 0 0 0 0 0 0.25 0"/>
<feBlend mode="normal" in2="BackgroundImageFix" result="effect1_dropShadow_293_11044"/>
<feBlend mode="normal" in="SourceGraphic" in2="effect1_dropShadow_293_11044" result="shape"/>
</filter>
</defs>
</svg>
