<svg width="342" height="228" viewBox="0 0 342 228" fill="none" xmlns="http://www.w3.org/2000/svg">
<g filter="url(#filter0_d_293_11036)">
<rect x="4" y="2" width="334" height="220" rx="11" fill="#FCFBF9"/>
</g>
<path d="M36.9394 53H41.2954L44.3914 65.564L47.7754 53.36H51.5194L54.8674 65.564L57.9994 53H62.3554L57.0994 71H53.3554L49.6474 59.264L45.9394 71H42.1954L36.9394 53ZM64.2485 45.8H68.7125V50.264H64.2485V45.8ZM64.2485 53H68.7125V71H64.2485V53ZM78.2249 71.36C76.6409 71.36 75.4409 70.904 74.6249 69.992C73.8089 69.056 73.4009 67.94 73.4009 66.644V56.672H70.8449L71.2409 53H73.4009V49.04L77.8649 48.572V53H81.8249V56.672H77.8649V64.808C77.8649 65.768 77.9129 66.44 78.0089 66.824C78.1289 67.184 78.3569 67.424 78.6929 67.544C79.0529 67.64 79.6889 67.688 80.6009 67.688H81.8249L81.4289 71.36H78.2249ZM93.2639 52.712C95.5439 52.712 97.2359 53.456 98.3399 54.944C99.4679 56.408 100.032 58.424 100.032 60.992V71H95.5679V61.316C95.5679 59.612 95.2919 58.364 94.7399 57.572C94.1879 56.78 93.3119 56.384 92.1119 56.384C90.6959 56.384 89.5319 56.9 88.6199 57.932V71H84.1559V44H88.6199V54.152C89.3399 53.696 90.0719 53.348 90.8159 53.108C91.5599 52.844 92.3759 52.712 93.2639 52.712ZM112.106 56.672H109.55L109.946 53H112.106V49.184C112.106 47.576 112.574 46.316 113.51 45.404C114.47 44.468 115.826 44 117.578 44C118.562 44 119.534 44.108 120.494 44.324L120.098 47.924C119.69 47.804 119.222 47.744 118.694 47.744C117.278 47.744 116.57 48.488 116.57 49.976V53H120.53V56.672H116.57V71H112.106V56.672ZM126.468 71.36C124.98 71.36 123.732 70.88 122.724 69.92C121.74 68.936 121.248 67.616 121.248 65.96C121.248 64.4 121.812 63.152 122.94 62.216C124.068 61.256 125.4 60.584 126.936 60.2C128.472 59.792 129.948 59.564 131.364 59.516C131.316 58.46 131.04 57.704 130.536 57.248C130.056 56.792 129.252 56.564 128.124 56.564C127.332 56.564 126.552 56.672 125.784 56.888C125.04 57.104 124.176 57.452 123.192 57.932L122.796 54.296C124.98 53.24 127.164 52.712 129.348 52.712C131.46 52.712 133.068 53.288 134.172 54.44C135.3 55.592 135.864 57.428 135.864 59.948V64.808C135.864 65.72 135.9 66.38 135.972 66.788C136.068 67.172 136.212 67.424 136.404 67.544C136.62 67.64 136.968 67.688 137.448 67.688H138.024L137.628 71.36H136.008C135.024 71.36 134.196 71.18 133.524 70.82C132.852 70.436 132.336 69.92 131.976 69.272C131.4 69.92 130.608 70.436 129.6 70.82C128.616 71.18 127.572 71.36 126.468 71.36ZM128.34 67.94C128.796 67.94 129.312 67.832 129.888 67.616C130.464 67.376 130.968 67.052 131.4 66.644V62.54C129.96 62.612 128.688 62.924 127.584 63.476C126.48 64.028 125.928 64.796 125.928 65.78C125.928 66.524 126.12 67.076 126.504 67.436C126.888 67.772 127.5 67.94 128.34 67.94ZM160.165 52.712C162.565 52.712 164.341 53.444 165.493 54.908C166.669 56.348 167.257 58.376 167.257 60.992V71H162.793V61.316C162.793 59.612 162.529 58.364 162.001 57.572C161.473 56.78 160.609 56.384 159.409 56.384C158.233 56.384 157.345 56.792 156.745 57.608C156.145 58.4 155.845 59.528 155.845 60.992V71H151.381V61.316C151.381 59.612 151.105 58.364 150.553 57.572C150.001 56.78 149.125 56.384 147.925 56.384C146.509 56.384 145.345 56.9 144.433 57.932V71H139.969V53H143.785L143.929 54.44C145.561 53.288 147.325 52.712 149.221 52.712C151.525 52.712 153.241 53.54 154.369 55.196C154.993 54.404 155.809 53.792 156.817 53.36C157.825 52.928 158.941 52.712 160.165 52.712ZM170.718 45.8H175.182V50.264H170.718V45.8ZM170.718 53H175.182V71H170.718V53ZM183.435 71.36C181.899 71.36 180.747 70.928 179.979 70.064C179.211 69.176 178.827 68.036 178.827 66.644V44H183.291V64.808C183.291 65.768 183.339 66.452 183.435 66.86C183.555 67.244 183.747 67.484 184.011 67.58C184.299 67.652 184.779 67.688 185.451 67.688L185.055 71.36H183.435ZM187.744 45.8H192.208V50.264H187.744V45.8ZM187.744 53H192.208V71H187.744V53ZM199.74 71.36C198.252 71.36 197.004 70.88 195.996 69.92C195.012 68.936 194.52 67.616 194.52 65.96C194.52 64.4 195.084 63.152 196.212 62.216C197.34 61.256 198.672 60.584 200.208 60.2C201.744 59.792 203.22 59.564 204.636 59.516C204.588 58.46 204.312 57.704 203.808 57.248C203.328 56.792 202.524 56.564 201.396 56.564C200.604 56.564 199.824 56.672 199.056 56.888C198.312 57.104 197.448 57.452 196.464 57.932L196.068 54.296C198.252 53.24 200.436 52.712 202.62 52.712C204.732 52.712 206.34 53.288 207.444 54.44C208.572 55.592 209.136 57.428 209.136 59.948V64.808C209.136 65.72 209.172 66.38 209.244 66.788C209.34 67.172 209.484 67.424 209.676 67.544C209.892 67.64 210.24 67.688 210.72 67.688H211.296L210.9 71.36H209.28C208.296 71.36 207.468 71.18 206.796 70.82C206.124 70.436 205.608 69.92 205.248 69.272C204.672 69.92 203.88 70.436 202.872 70.82C201.888 71.18 200.844 71.36 199.74 71.36ZM201.612 67.94C202.068 67.94 202.584 67.832 203.16 67.616C203.736 67.376 204.24 67.052 204.672 66.644V62.54C203.232 62.612 201.96 62.924 200.856 63.476C199.752 64.028 199.2 64.796 199.2 65.78C199.2 66.524 199.392 67.076 199.776 67.436C200.16 67.772 200.772 67.94 201.612 67.94ZM213.242 53H217.418L217.526 54.908C218.054 54.308 218.726 53.78 219.542 53.324C220.382 52.868 221.258 52.64 222.17 52.64C222.458 52.64 222.722 52.664 222.962 52.712L222.638 57.104C222.182 56.984 221.666 56.924 221.09 56.924C220.346 56.924 219.662 57.104 219.038 57.464C218.414 57.8 217.97 58.22 217.706 58.724V71H213.242V53ZM237.999 71.36C236.415 71.36 235.215 70.904 234.399 69.992C233.583 69.056 233.175 67.94 233.175 66.644V56.672H230.619L231.015 53H233.175V49.04L237.639 48.572V53H241.599V56.672H237.639V64.808C237.639 65.768 237.687 66.44 237.783 66.824C237.903 67.184 238.131 67.424 238.467 67.544C238.827 67.64 239.463 67.688 240.375 67.688H241.599L241.203 71.36H237.999ZM252.138 71.36C250.242 71.36 248.598 70.94 247.206 70.1C245.814 69.26 244.746 68.132 244.002 66.716C243.258 65.3 242.886 63.74 242.886 62.036C242.886 60.332 243.258 58.76 244.002 57.32C244.746 55.88 245.814 54.74 247.206 53.9C248.598 53.06 250.242 52.64 252.138 52.64C254.034 52.64 255.678 53.06 257.07 53.9C258.462 54.74 259.53 55.88 260.274 57.32C261.018 58.76 261.39 60.332 261.39 62.036C261.39 63.74 261.018 65.3 260.274 66.716C259.53 68.132 258.462 69.26 257.07 70.1C255.678 70.94 254.034 71.36 252.138 71.36ZM252.138 67.688C253.602 67.688 254.742 67.172 255.558 66.14C256.398 65.108 256.818 63.74 256.818 62.036C256.818 60.308 256.398 58.928 255.558 57.896C254.742 56.84 253.602 56.312 252.138 56.312C250.674 56.312 249.522 56.84 248.682 57.896C247.866 58.928 247.458 60.308 247.458 62.036C247.458 63.74 247.866 65.108 248.682 66.14C249.522 67.172 250.674 67.688 252.138 67.688ZM272.129 71.36C270.233 71.36 268.589 70.94 267.197 70.1C265.805 69.26 264.737 68.132 263.993 66.716C263.249 65.3 262.877 63.74 262.877 62.036C262.877 60.332 263.249 58.76 263.993 57.32C264.737 55.88 265.805 54.74 267.197 53.9C268.589 53.06 270.233 52.64 272.129 52.64C274.025 52.64 275.669 53.06 277.061 53.9C278.453 54.74 279.521 55.88 280.265 57.32C281.009 58.76 281.381 60.332 281.381 62.036C281.381 63.74 281.009 65.3 280.265 66.716C279.521 68.132 278.453 69.26 277.061 70.1C275.669 70.94 274.025 71.36 272.129 71.36ZM272.129 67.688C273.593 67.688 274.733 67.172 275.549 66.14C276.389 65.108 276.809 63.74 276.809 62.036C276.809 60.308 276.389 58.928 275.549 57.896C274.733 56.84 273.593 56.312 272.129 56.312C270.665 56.312 269.513 56.84 268.673 57.896C267.857 58.928 267.449 60.308 267.449 62.036C267.449 63.74 267.857 65.108 268.673 66.14C269.513 67.172 270.665 67.688 272.129 67.688ZM288.556 71.36C287.02 71.36 285.868 70.928 285.1 70.064C284.332 69.176 283.948 68.036 283.948 66.644V44H288.412V64.808C288.412 65.768 288.46 66.452 288.556 66.86C288.676 67.244 288.868 67.484 289.132 67.58C289.42 67.652 289.9 67.688 290.572 67.688L290.176 71.36H288.556ZM297.977 71.36C296.825 71.36 295.769 71.252 294.809 71.036C293.873 70.82 292.901 70.484 291.893 70.028L292.289 66.212C293.297 66.812 294.233 67.268 295.097 67.58C295.985 67.868 296.897 68.012 297.833 68.012C299.657 68.012 300.569 67.412 300.569 66.212C300.569 65.564 300.329 65.072 299.849 64.736C299.369 64.376 298.505 63.956 297.257 63.476C295.481 62.828 294.173 62.096 293.333 61.28C292.493 60.44 292.073 59.312 292.073 57.896C292.073 56.336 292.673 55.076 293.873 54.116C295.073 53.132 296.693 52.64 298.733 52.64C300.773 52.64 302.633 53.108 304.313 54.044L303.917 57.86C303.005 57.236 302.141 56.756 301.325 56.42C300.533 56.084 299.693 55.916 298.805 55.916C298.037 55.916 297.437 56.072 297.005 56.384C296.597 56.696 296.393 57.14 296.393 57.716C296.393 58.172 296.513 58.544 296.753 58.832C297.017 59.12 297.377 59.384 297.833 59.624C298.289 59.84 299.045 60.152 300.101 60.56C301.853 61.232 303.113 61.976 303.881 62.792C304.649 63.584 305.033 64.652 305.033 65.996C305.033 67.7 304.421 69.02 303.197 69.956C301.973 70.892 300.233 71.36 297.977 71.36Z" fill="#8C8C8C"/>
<g filter="url(#filter1_d_293_11036)">
<path d="M71 101.6C71 96.2981 75.2981 92 80.6 92H109.4C114.702 92 119 96.2981 119 101.6V130.4C119 135.702 114.702 140 109.4 140H80.6C75.2981 140 71 135.702 71 130.4V101.6Z" fill="#FCFBF9"/>
<path d="M94.7409 112.641C95.2588 111.142 96.3958 108.542 97.9363 106.366C99.4142 104.279 101.282 102.601 102.486 101.816C105.164 100.073 106.72 99.6196 108.203 99.4947C109.685 99.3698 111.043 100.728 110.918 102.21C110.793 103.693 110.467 105.296 108.597 107.927C107.778 109.078 106.178 111.033 104.209 112.639C102.163 114.308 99.7326 115.619 98.2357 116.136" stroke="#8C8C8C" stroke-width="3" stroke-linecap="round"/>
<line x1="85.8336" y1="115.884" x2="79.0581" y2="119.95" stroke="#8C8C8C" stroke-width="3" stroke-linecap="round"/>
<path d="M93.9984 124.258C94.4247 123.548 95.346 123.318 96.0564 123.744C96.7668 124.17 96.9971 125.092 96.5709 125.802L93.9984 124.258ZM91.0362 132.111L91.0362 133.611C90.4958 133.611 89.9971 133.32 89.7309 132.85C89.4646 132.38 89.4719 131.803 89.7499 131.339L91.0362 132.111ZM96.1726 130.611C97.0011 130.611 97.6726 131.283 97.6726 132.111C97.6726 132.939 97.0011 133.611 96.1726 133.611L96.1726 130.611ZM96.5709 125.802L92.3224 132.883L89.7499 131.339L93.9984 124.258L96.5709 125.802ZM91.0362 130.611C92.5116 130.611 95.6046 130.611 96.1726 130.611L96.1726 133.611C95.6046 133.611 92.5116 133.611 91.0362 133.611L91.0362 130.611Z" fill="#8C8C8C"/>
<line x1="1.5" y1="-1.5" x2="9.40158" y2="-1.5" transform="matrix(-0.514496 0.857493 0.857493 0.514496 94.7612 122.24)" stroke="#8C8C8C" stroke-width="3" stroke-linecap="round"/>
<line x1="1.5" y1="-1.5" x2="9.40158" y2="-1.5" transform="matrix(0.707107 0.707107 0.707107 -0.707107 79.0938 118.276)" stroke="#8C8C8C" stroke-width="3" stroke-linecap="round"/>
<path d="M90.9999 111.5C95.3692 113.217 97.7833 115.631 99.4999 120C99.4999 120 99.9999 121.5 99.9999 122.5C99.9999 123.5 98.9999 125 98.4999 125.5C98.0856 125.914 97.4999 126 96.4999 125L86.4999 115L86.4998 115C85.4999 114 84.9999 113.5 85.4998 113C85.9998 112.5 87.4999 111 88.4999 111C89.4999 111 90.9999 111.5 90.9999 111.5Z" stroke="#8C8C8C" stroke-width="3" stroke-linecap="round"/>
</g>
<g filter="url(#filter2_d_293_11036)">
<path d="M223 103.6C223 98.2981 227.298 94 232.6 94H261.4C266.702 94 271 98.2981 271 103.6V132.4C271 137.702 266.702 142 261.4 142H232.6C227.298 142 223 137.702 223 132.4V103.6Z" fill="#FCFBF9"/>
<path d="M240.626 131.451L237.418 128.242L233.028 123.852C231.908 122.732 231.908 120.917 233.028 119.797L247.797 105.028C248.917 103.908 250.733 103.908 251.852 105.028L260.629 113.804C261.75 114.925 261.749 116.743 260.626 117.863L247.611 130.838C247.073 131.374 246.917 131.675 247.676 131.675C248.539 131.675 250.034 131.675 252.507 131.675" stroke="#8C8C8C" stroke-width="3" stroke-linecap="round" stroke-linejoin="round"/>
<path d="M238.169 115.187L250.356 127.374" stroke="#8C8C8C" stroke-width="3"/>
</g>
<g filter="url(#filter3_d_293_11036)">
<path d="M147 101.6C147 96.2981 151.298 92 156.6 92H185.4C190.702 92 195 96.2981 195 101.6V130.4C195 135.702 190.702 140 185.4 140H156.6C151.298 140 147 135.702 147 130.4V101.6Z" fill="#FCFBF9"/>
<path d="M184.441 111.11L184.567 104.269C184.597 102.668 183.307 101.354 181.705 101.354H160.288C158.707 101.354 157.425 102.636 157.425 104.217V128.549C157.425 130.13 158.707 131.412 160.288 131.412H181.758C183.339 131.412 184.621 130.13 184.621 128.549V116.812" stroke="#8C8C8C" stroke-width="3" stroke-linecap="round"/>
<path d="M157.425 112.805C157.425 114.236 160.249 114.952 161.004 114.952C161.758 114.952 163.151 114.952 164.582 113.52C166.013 114.952 167.628 114.952 168.16 114.952C168.692 114.952 170.307 114.952 171.739 113.52C173.17 114.952 174.601 114.952 175.317 114.952C176.033 114.952 177.464 114.952 178.895 113.52" stroke="#8C8C8C" stroke-width="3" stroke-linejoin="round"/>
<path d="M173.886 107.079C176.748 110.658 179.611 114.236 182.474 115.667C183.905 116.383 185.488 117.099 186.768 117.099C188.915 117.099 189.694 114.862 188.944 113.361" stroke="#8C8C8C" stroke-width="3" stroke-linecap="round"/>
</g>
<path d="M96.632 169.808C97.768 169.808 98.744 170.088 99.56 170.648C100.376 171.208 100.992 171.96 101.408 172.904C101.824 173.848 102.032 174.888 102.032 176.024C102.032 177.16 101.824 178.2 101.408 179.144C100.992 180.088 100.376 180.84 99.56 181.4C98.744 181.96 97.768 182.24 96.632 182.24C95.368 182.24 94.224 181.896 93.2 181.208L93.152 182H90.368V164H93.344V170.888C94.32 170.168 95.416 169.808 96.632 169.808ZM96.2 179.792C97.08 179.792 97.76 179.448 98.24 178.76C98.736 178.072 98.984 177.16 98.984 176.024C98.984 174.888 98.736 173.976 98.24 173.288C97.76 172.6 97.08 172.256 96.2 172.256C95.192 172.256 94.44 172.592 93.944 173.264C93.448 173.936 93.2 174.856 93.2 176.024C93.2 177.192 93.448 178.112 93.944 178.784C94.44 179.456 95.192 179.792 96.2 179.792ZM103.743 170H106.527L106.599 171.272C106.951 170.872 107.399 170.52 107.943 170.216C108.503 169.912 109.087 169.76 109.695 169.76C109.887 169.76 110.063 169.776 110.223 169.808L110.007 172.736C109.703 172.656 109.359 172.616 108.975 172.616C108.479 172.616 108.023 172.736 107.607 172.976C107.191 173.2 106.895 173.48 106.719 173.816V182H103.743V170ZM121.769 170V182H118.985L118.937 181.28C118.569 181.552 118.145 181.784 117.665 181.976C117.185 182.152 116.721 182.24 116.273 182.24C114.497 182.24 113.201 181.728 112.385 180.704C111.585 179.68 111.185 178.264 111.185 176.456V170H114.161V176.456C114.161 177.576 114.345 178.408 114.713 178.952C115.097 179.48 115.705 179.744 116.537 179.744C117.465 179.744 118.217 179.408 118.793 178.736V170H121.769ZM127.595 182.24C126.827 182.24 126.123 182.168 125.483 182.024C124.859 181.88 124.211 181.656 123.539 181.352L123.803 178.808C124.475 179.208 125.099 179.512 125.675 179.72C126.267 179.912 126.875 180.008 127.499 180.008C128.715 180.008 129.323 179.608 129.323 178.808C129.323 178.376 129.163 178.048 128.843 177.824C128.523 177.584 127.947 177.304 127.115 176.984C125.931 176.552 125.059 176.064 124.499 175.52C123.939 174.96 123.659 174.208 123.659 173.264C123.659 172.224 124.059 171.384 124.859 170.744C125.659 170.088 126.739 169.76 128.099 169.76C129.459 169.76 130.699 170.072 131.819 170.696L131.555 173.24C130.947 172.824 130.371 172.504 129.827 172.28C129.299 172.056 128.739 171.944 128.147 171.944C127.635 171.944 127.235 172.048 126.947 172.256C126.675 172.464 126.539 172.76 126.539 173.144C126.539 173.448 126.619 173.696 126.779 173.888C126.955 174.08 127.195 174.256 127.499 174.416C127.803 174.56 128.307 174.768 129.011 175.04C130.179 175.488 131.019 175.984 131.531 176.528C132.043 177.056 132.299 177.768 132.299 178.664C132.299 179.8 131.891 180.68 131.075 181.304C130.259 181.928 129.099 182.24 127.595 182.24ZM140.023 169.808C141.543 169.808 142.671 170.304 143.407 171.296C144.159 172.272 144.535 173.616 144.535 175.328V182H141.559V175.544C141.559 174.408 141.375 173.576 141.007 173.048C140.639 172.52 140.055 172.256 139.255 172.256C138.311 172.256 137.535 172.6 136.927 173.288V182H133.951V164H136.927V170.768C137.407 170.464 137.895 170.232 138.391 170.072C138.887 169.896 139.431 169.808 140.023 169.808ZM146.93 184.88L147.962 182H146.738V178.736H149.858V181.712L148.322 184.88H146.93ZM157.803 172.448H156.099L156.363 170H157.803V167.456C157.803 166.384 158.115 165.544 158.739 164.936C159.379 164.312 160.283 164 161.451 164C162.107 164 162.755 164.072 163.395 164.216L163.131 166.616C162.859 166.536 162.547 166.496 162.195 166.496C161.251 166.496 160.779 166.992 160.779 167.984V170H163.419V172.448H160.779V182H157.803V172.448ZM164.879 165.2H167.855V168.176H164.879V165.2ZM164.879 170H167.855V182H164.879V170ZM173.357 182.24C172.333 182.24 171.565 181.952 171.053 181.376C170.541 180.784 170.285 180.024 170.285 179.096V164H173.261V177.872C173.261 178.512 173.293 178.968 173.357 179.24C173.437 179.496 173.565 179.656 173.741 179.72C173.933 179.768 174.253 179.792 174.701 179.792L174.437 182.24H173.357ZM179.302 182.24C178.278 182.24 177.51 181.952 176.998 181.376C176.486 180.784 176.23 180.024 176.23 179.096V164H179.206V177.872C179.206 178.512 179.238 178.968 179.302 179.24C179.382 179.496 179.51 179.656 179.686 179.72C179.878 179.768 180.198 179.792 180.646 179.792L180.382 182.24H179.302ZM182.27 184.88L183.302 182H182.078V178.736H185.198V181.712L183.662 184.88H182.27ZM198.207 182.24C196.815 182.24 195.623 181.96 194.631 181.4C193.655 180.824 192.919 180.064 192.423 179.12C191.943 178.16 191.703 177.096 191.703 175.928C191.703 174.808 191.935 173.784 192.399 172.856C192.863 171.928 193.535 171.192 194.415 170.648C195.295 170.088 196.343 169.808 197.559 169.808C198.679 169.808 199.623 170.04 200.391 170.504C201.175 170.968 201.759 171.592 202.143 172.376C202.543 173.16 202.743 174.04 202.743 175.016C202.743 175.496 202.679 176.04 202.551 176.648H194.799C194.959 177.704 195.375 178.496 196.047 179.024C196.719 179.536 197.527 179.792 198.471 179.792C199.767 179.792 200.967 179.464 202.071 178.808L202.215 181.328C201.703 181.6 201.103 181.824 200.415 182C199.743 182.16 199.007 182.24 198.207 182.24ZM199.719 174.632C199.719 174.008 199.543 173.456 199.191 172.976C198.839 172.496 198.295 172.256 197.559 172.256C196.823 172.256 196.231 172.472 195.783 172.904C195.335 173.336 195.031 173.912 194.871 174.632H199.719ZM204.414 170H207.198L207.27 171.272C207.622 170.872 208.07 170.52 208.614 170.216C209.174 169.912 209.758 169.76 210.366 169.76C210.558 169.76 210.734 169.776 210.894 169.808L210.678 172.736C210.374 172.656 210.03 172.616 209.646 172.616C209.15 172.616 208.694 172.736 208.278 172.976C207.862 173.2 207.566 173.48 207.39 173.816V182H204.414V170ZM214.428 182.24C213.436 182.24 212.604 181.92 211.932 181.28C211.276 180.624 210.948 179.744 210.948 178.64C210.948 177.6 211.324 176.768 212.076 176.144C212.828 175.504 213.716 175.056 214.74 174.8C215.764 174.528 216.748 174.376 217.692 174.344C217.66 173.64 217.476 173.136 217.14 172.832C216.82 172.528 216.284 172.376 215.532 172.376C215.004 172.376 214.484 172.448 213.972 172.592C213.476 172.736 212.9 172.968 212.244 173.288L211.98 170.864C213.436 170.16 214.892 169.808 216.348 169.808C217.756 169.808 218.828 170.192 219.564 170.96C220.316 171.728 220.692 172.952 220.692 174.632V177.872C220.692 178.48 220.716 178.92 220.764 179.192C220.828 179.448 220.924 179.616 221.052 179.696C221.196 179.76 221.428 179.792 221.748 179.792H222.132L221.868 182.24H220.788C220.132 182.24 219.58 182.12 219.132 181.88C218.684 181.624 218.34 181.28 218.1 180.848C217.716 181.28 217.188 181.624 216.516 181.88C215.86 182.12 215.164 182.24 214.428 182.24ZM215.676 179.96C215.98 179.96 216.324 179.888 216.708 179.744C217.092 179.584 217.428 179.368 217.716 179.096V176.36C216.756 176.408 215.908 176.616 215.172 176.984C214.436 177.352 214.068 177.864 214.068 178.52C214.068 179.016 214.196 179.384 214.452 179.624C214.708 179.848 215.116 179.96 215.676 179.96ZM226.837 182.24C226.069 182.24 225.365 182.168 224.725 182.024C224.101 181.88 223.453 181.656 222.781 181.352L223.045 178.808C223.717 179.208 224.341 179.512 224.917 179.72C225.509 179.912 226.117 180.008 226.741 180.008C227.957 180.008 228.565 179.608 228.565 178.808C228.565 178.376 228.405 178.048 228.085 177.824C227.765 177.584 227.189 177.304 226.357 176.984C225.173 176.552 224.301 176.064 223.741 175.52C223.181 174.96 222.901 174.208 222.901 173.264C222.901 172.224 223.301 171.384 224.101 170.744C224.901 170.088 225.981 169.76 227.341 169.76C228.701 169.76 229.941 170.072 231.061 170.696L230.797 173.24C230.189 172.824 229.613 172.504 229.069 172.28C228.541 172.056 227.981 171.944 227.389 171.944C226.877 171.944 226.477 172.048 226.189 172.256C225.917 172.464 225.781 172.76 225.781 173.144C225.781 173.448 225.861 173.696 226.021 173.888C226.197 174.08 226.437 174.256 226.741 174.416C227.045 174.56 227.549 174.768 228.253 175.04C229.421 175.488 230.261 175.984 230.773 176.528C231.285 177.056 231.541 177.768 231.541 178.664C231.541 179.8 231.133 180.68 230.317 181.304C229.501 181.928 228.341 182.24 226.837 182.24ZM239.001 182.24C237.609 182.24 236.417 181.96 235.425 181.4C234.449 180.824 233.713 180.064 233.217 179.12C232.737 178.16 232.497 177.096 232.497 175.928C232.497 174.808 232.729 173.784 233.193 172.856C233.657 171.928 234.329 171.192 235.209 170.648C236.089 170.088 237.137 169.808 238.353 169.808C239.473 169.808 240.417 170.04 241.185 170.504C241.969 170.968 242.553 171.592 242.937 172.376C243.337 173.16 243.537 174.04 243.537 175.016C243.537 175.496 243.473 176.04 243.345 176.648H235.593C235.753 177.704 236.169 178.496 236.841 179.024C237.513 179.536 238.321 179.792 239.265 179.792C240.561 179.792 241.761 179.464 242.865 178.808L243.009 181.328C242.497 181.6 241.897 181.824 241.209 182C240.537 182.16 239.801 182.24 239.001 182.24ZM240.513 174.632C240.513 174.008 240.337 173.456 239.985 172.976C239.633 172.496 239.089 172.256 238.353 172.256C237.617 172.256 237.025 172.472 236.577 172.904C236.129 173.336 235.825 173.912 235.665 174.632H240.513ZM245.209 170H247.993L248.065 171.272C248.417 170.872 248.865 170.52 249.409 170.216C249.969 169.912 250.553 169.76 251.161 169.76C251.353 169.76 251.529 169.776 251.689 169.808L251.473 172.736C251.169 172.656 250.825 172.616 250.441 172.616C249.945 172.616 249.489 172.736 249.073 172.976C248.657 173.2 248.361 173.48 248.185 173.816V182H245.209V170Z" fill="#C4C4C4"/>
<defs>
<filter id="filter0_d_293_11036" x="0" y="0" width="342" height="228" filterUnits="userSpaceOnUse" color-interpolation-filters="sRGB">
<feFlood flood-opacity="0" result="BackgroundImageFix"/>
<feColorMatrix in="SourceAlpha" type="matrix" values="0 0 0 0 0 0 0 0 0 0 0 0 0 0 0 0 0 0 127 0" result="hardAlpha"/>
<feOffset dy="2"/>
<feGaussianBlur stdDeviation="2"/>
<feComposite in2="hardAlpha" operator="out"/>
<feColorMatrix type="matrix" values="0 0 0 0 0 0 0 0 0 0 0 0 0 0 0 0 0 0 0.25 0"/>
<feBlend mode="normal" in2="BackgroundImageFix" result="effect1_dropShadow_293_11036"/>
<feBlend mode="normal" in="SourceGraphic" in2="effect1_dropShadow_293_11036" result="shape"/>
</filter>
<filter id="filter1_d_293_11036" x="67" y="90" width="56" height="56" filterUnits="userSpaceOnUse" color-interpolation-filters="sRGB">
<feFlood flood-opacity="0" result="BackgroundImageFix"/>
<feColorMatrix in="SourceAlpha" type="matrix" values="0 0 0 0 0 0 0 0 0 0 0 0 0 0 0 0 0 0 127 0" result="hardAlpha"/>
<feOffset dy="2"/>
<feGaussianBlur stdDeviation="2"/>
<feComposite in2="hardAlpha" operator="out"/>
<feColorMatrix type="matrix" values="0 0 0 0 0 0 0 0 0 0 0 0 0 0 0 0 0 0 0.25 0"/>
<feBlend mode="normal" in2="BackgroundImageFix" result="effect1_dropShadow_293_11036"/>
<feBlend mode="normal" in="SourceGraphic" in2="effect1_dropShadow_293_11036" result="shape"/>
</filter>
<filter id="filter2_d_293_11036" x="219" y="92" width="56" height="56" filterUnits="userSpaceOnUse" color-interpolation-filters="sRGB">
<feFlood flood-opacity="0" result="BackgroundImageFix"/>
<feColorMatrix in="SourceAlpha" type="matrix" values="0 0 0 0 0 0 0 0 0 0 0 0 0 0 0 0 0 0 127 0" result="hardAlpha"/>
<feOffset dy="2"/>
<feGaussianBlur stdDeviation="2"/>
<feComposite in2="hardAlpha" operator="out"/>
<feColorMatrix type="matrix" values="0 0 0 0 0 0 0 0 0 0 0 0 0 0 0 0 0 0 0.25 0"/>
<feBlend mode="normal" in2="BackgroundImageFix" result="effect1_dropShadow_293_11036"/>
<feBlend mode="normal" in="SourceGraphic" in2="effect1_dropShadow_293_11036" result="shape"/>
</filter>
<filter id="filter3_d_293_11036" x="143" y="90" width="56" height="56" filterUnits="userSpaceOnUse" color-interpolation-filters="sRGB">
<feFlood flood-opacity="0" result="BackgroundImageFix"/>
<feColorMatrix in="SourceAlpha" type="matrix" values="0 0 0 0 0 0 0 0 0 0 0 0 0 0 0 0 0 0 127 0" result="hardAlpha"/>
<feOffset dy="2"/>
<feGaussianBlur stdDeviation="2"/>
<feComposite in2="hardAlpha" operator="out"/>
<feColorMatrix type="matrix" values="0 0 0 0 0 0 0 0 0 0 0 0 0 0 0 0 0 0 0.25 0"/>
<feBlend mode="normal" in2="BackgroundImageFix" result="effect1_dropShadow_293_11036"/>
<feBlend mode="normal" in="SourceGraphic" in2="effect1_dropShadow_293_11036" result="shape"/>
</filter>
</defs>
</svg>
