<svg width="96" height="47" viewBox="0 0 96 47" fill="none" xmlns="http://www.w3.org/2000/svg">
<path d="M0.5 0H90.5L95.5 4.5V38.5L90.5 43H0.5V0Z" fill="#A2ADE0"/>
<path d="M18.68 35.976V19.008H22.376V26.988L24.42 25.056H29.516L32.4 27.968V36.088L29.516 39H21.676L18.68 35.976ZM27.64 35.864L28.704 34.772V29.284L27.64 28.192H24.896L22.376 30.712V34.772L23.44 35.864H27.64ZM34.9091 22.144V20.352L36.1971 19.064H38.1571L39.4451 20.352V22.144L38.1571 23.432H36.1971L34.9091 22.144ZM35.3291 25.056H39.0251V39H35.3291V25.056ZM51.05 39L47.97 34.744L44.89 39H40.718L45.926 31.916L40.858 25.056H45.03L47.97 29.144L50.91 25.056H55.082L50.042 31.972L55.222 39H51.05ZM55.8041 36.144V27.968L58.6881 25.056H66.5561L69.4681 27.968V33.26H59.5001V35.052L60.3961 35.976H64.9601L65.8001 35.108V34.38H69.4401V36.2L66.6681 39H58.6321L55.8041 36.144ZM65.7721 30.684V29.06L64.8201 28.08H60.4521L59.5001 29.06V30.684H65.7721ZM72.1283 19.008H75.8243V39H72.1283V19.008ZM78.1964 36.256V34.548H81.8364V35.332L82.4524 35.976H86.9884L87.6044 35.332V34.128L86.9604 33.456H80.9404L78.3084 30.796V27.744L80.9684 25.056H88.2484L90.9644 27.8V29.508H87.3244V28.724L86.7084 28.08H82.5644L81.9484 28.724V29.816L82.5924 30.488H88.6124L91.2444 33.148V36.312L88.5844 39H80.9124L78.1964 36.256Z" fill="#F5F5F5"/>
</svg>