<svg width="174" height="87" viewBox="0 0 174 87" fill="none" xmlns="http://www.w3.org/2000/svg">
<path d="M0 0H164.842L174 8.2421V70.5158L164.842 78.7579H0V0Z" fill="#A2ADE0"/>
<path d="M33.298 65.6087V34.5304H40.0675V49.1464L43.8113 45.6078H53.145L58.4273 50.9414V65.8138L53.145 71.1474H38.7854L33.298 65.6087ZM49.7089 65.4035L51.6577 63.4035V53.3517L49.7089 51.3517H44.6831L40.0675 55.9672V63.4035L42.0163 65.4035H49.7089ZM63.0228 40.2743V36.9921L65.3819 34.633H68.9718L71.3308 36.9921V40.2743L68.9718 42.6333H65.3819L63.0228 40.2743ZM63.7921 45.6078H70.5616V71.1474H63.7921V45.6078ZM92.5861 71.1474L86.9449 63.3522L81.3036 71.1474H73.6623L83.2011 58.1725L73.9187 45.6078H81.56L86.9449 53.0953L92.3297 45.6078H99.9711L90.7399 58.275L100.227 71.1474H92.5861ZM101.294 65.9164V50.9414L106.576 45.6078H120.987L126.32 50.9414V60.6341H108.063V63.9163L109.704 65.6087H118.064L119.602 64.0189V62.6855H126.269V66.0189L121.192 71.1474H106.473L101.294 65.9164ZM119.551 55.916V52.9415L117.807 51.1465H109.807L108.063 52.9415V55.916H119.551ZM131.193 34.5304H137.962V71.1474H131.193V34.5304ZM142.307 66.1215V62.9932H148.974V64.4291L150.102 65.6087H158.41L159.538 64.4291V62.2239L158.359 60.9931H147.333L142.512 56.1211V50.5311L147.384 45.6078H160.718L165.693 50.6337V53.762H159.026V52.3261L157.897 51.1465H150.307L149.179 52.3261V54.3261L150.359 55.557H161.385L166.205 60.429V66.2241L161.333 71.1474H147.282L142.307 66.1215Z" fill="#F5F5F5"/>
</svg>