<svg width="48" height="48" viewBox="0 0 48 48" fill="none" xmlns="http://www.w3.org/2000/svg">
<rect width="48" height="48" fill="none"/>
<path d="M0 9.6C0 4.29807 4.29807 0 9.6 0H38.4C43.7019 0 48 4.29807 48 9.6V38.4C48 43.7019 43.7019 48 38.4 48H9.6C4.29807 48 0 43.7019 0 38.4V9.6Z" fill="#FCFBF9"/>
<path d="M23.741 20.6408C24.2589 19.1417 25.3959 16.5419 26.9364 14.3664C28.4143 12.2794 30.2817 10.6011 31.4865 9.81637C34.1637 8.07272 35.72 7.61958 37.2027 7.4947C38.6854 7.36982 40.0432 8.72764 39.9183 10.2103C39.7934 11.693 39.4671 13.2957 37.5966 15.9265C36.7777 17.0785 35.1784 19.0326 33.2091 20.6391C31.1626 22.3084 28.7326 23.6185 27.2358 24.1356" stroke="#8C8C8C" stroke-width="3" stroke-linecap="round"/>
<line x1="14.8335" y1="23.8844" x2="8.05794" y2="27.9497" stroke="#8C8C8C" stroke-width="3" stroke-linecap="round"/>
<path d="M22.9982 32.2584C23.4244 31.548 24.3458 31.3177 25.0562 31.7439C25.7666 32.1701 25.9969 33.0915 25.5707 33.8019L22.9982 32.2584ZM20.036 40.111L20.036 41.611C19.4956 41.611 18.9969 41.3203 18.7307 40.85C18.4644 40.3797 18.4717 39.8026 18.7497 39.3392L20.036 40.111ZM25.1724 38.611C26.0008 38.611 26.6724 39.2825 26.6724 40.111C26.6724 40.9394 26.0008 41.611 25.1724 41.611L25.1724 38.611ZM25.5707 33.8019L21.3222 40.8827L18.7497 39.3392L22.9982 32.2584L25.5707 33.8019ZM20.036 38.611C21.5114 38.611 24.6043 38.611 25.1724 38.611L25.1724 41.611C24.6043 41.611 21.5114 41.611 20.036 41.611L20.036 38.611Z" fill="#8C8C8C"/>
<line x1="1.5" y1="-1.5" x2="9.40158" y2="-1.5" transform="matrix(-0.514496 0.857493 0.857493 0.514496 23.7612 30.2397)" stroke="#8C8C8C" stroke-width="3" stroke-linecap="round"/>
<line x1="1.5" y1="-1.5" x2="9.40158" y2="-1.5" transform="matrix(0.707107 0.707107 0.707107 -0.707107 8.09393 26.2761)" stroke="#8C8C8C" stroke-width="3" stroke-linecap="round"/>
<path d="M20 19.5C24.3693 21.2165 26.7835 23.6307 28.5 28C28.5 28 29 29.5 29 30.5C29 31.5 28 33 27.5 33.5C27.0858 33.9142 26.5 34 25.5 33L15.5 23L15.5 23C14.5 22 14 21.5 14.5 21C15 20.5 16.5 19 17.5 19C18.5 19 20 19.5 20 19.5Z" stroke="#8C8C8C" stroke-width="3" stroke-linecap="round"/>
</svg>
