<svg width="126" height="56" viewBox="0 0 126 56" fill="none" xmlns="http://www.w3.org/2000/svg">
<g filter="url(#filter0_d_146_13630)">
<rect x="4" y="2" width="118" height="48" rx="11" fill="#FCFBF9"/>
<path d="M43.22 32.18C42.224 32.18 41.366 31.976 40.646 31.568C39.938 31.148 39.404 30.584 39.044 29.876C38.684 29.168 38.504 28.382 38.504 27.518C38.504 26.642 38.684 25.85 39.044 25.142C39.404 24.422 39.944 23.858 40.664 23.45C41.384 23.03 42.26 22.82 43.292 22.82C44.216 22.82 45.02 23.012 45.704 23.396L45.524 25.196C44.876 24.86 44.204 24.692 43.508 24.692C42.656 24.692 41.99 24.95 41.51 25.466C41.03 25.982 40.79 26.666 40.79 27.518C40.79 28.334 41.036 29.012 41.528 29.552C42.02 30.08 42.674 30.344 43.49 30.344C44.174 30.344 44.858 30.146 45.542 29.75L45.74 31.64C45.416 31.808 45.032 31.94 44.588 32.036C44.156 32.132 43.7 32.18 43.22 32.18ZM46.9654 23H49.0534L49.1074 23.954C49.3714 23.654 49.7074 23.39 50.1154 23.162C50.5354 22.934 50.9734 22.82 51.4294 22.82C51.5734 22.82 51.7054 22.832 51.8254 22.856L51.6634 25.052C51.4354 24.992 51.1774 24.962 50.8894 24.962C50.5174 24.962 50.1754 25.052 49.8634 25.232C49.5514 25.4 49.3294 25.61 49.1974 25.862V32H46.9654V23ZM56.8166 32.18C55.7726 32.18 54.8786 31.97 54.1346 31.55C53.4026 31.118 52.8506 30.548 52.4786 29.84C52.1186 29.12 51.9386 28.322 51.9386 27.446C51.9386 26.606 52.1126 25.838 52.4606 25.142C52.8086 24.446 53.3126 23.894 53.9726 23.486C54.6326 23.066 55.4186 22.856 56.3306 22.856C57.1706 22.856 57.8786 23.03 58.4546 23.378C59.0426 23.726 59.4806 24.194 59.7686 24.782C60.0686 25.37 60.2186 26.03 60.2186 26.762C60.2186 27.122 60.1706 27.53 60.0746 27.986H54.2606C54.3806 28.778 54.6926 29.372 55.1966 29.768C55.7006 30.152 56.3066 30.344 57.0146 30.344C57.9866 30.344 58.8866 30.098 59.7146 29.606L59.8226 31.496C59.4386 31.7 58.9886 31.868 58.4726 32C57.9686 32.12 57.4166 32.18 56.8166 32.18ZM57.9506 26.474C57.9506 26.006 57.8186 25.592 57.5546 25.232C57.2906 24.872 56.8826 24.692 56.3306 24.692C55.7786 24.692 55.3346 24.854 54.9986 25.178C54.6626 25.502 54.4346 25.934 54.3146 26.474H57.9506ZM63.4163 32.18C62.6723 32.18 62.0483 31.94 61.5443 31.46C61.0523 30.968 60.8063 30.308 60.8063 29.48C60.8063 28.7 61.0883 28.076 61.6523 27.608C62.2163 27.128 62.8823 26.792 63.6503 26.6C64.4183 26.396 65.1563 26.282 65.8643 26.258C65.8403 25.73 65.7023 25.352 65.4503 25.124C65.2103 24.896 64.8083 24.782 64.2443 24.782C63.8483 24.782 63.4583 24.836 63.0743 24.944C62.7023 25.052 62.2703 25.226 61.7783 25.466L61.5803 23.648C62.6723 23.12 63.7643 22.856 64.8563 22.856C65.9123 22.856 66.7163 23.144 67.2683 23.72C67.8323 24.296 68.1143 25.214 68.1143 26.474V28.904C68.1143 29.36 68.1323 29.69 68.1683 29.894C68.2163 30.086 68.2883 30.212 68.3843 30.272C68.4923 30.32 68.6663 30.344 68.9063 30.344H69.1943L68.9963 32.18H68.1863C67.6943 32.18 67.2803 32.09 66.9443 31.91C66.6083 31.718 66.3503 31.46 66.1703 31.136C65.8823 31.46 65.4863 31.718 64.9823 31.91C64.4903 32.09 63.9683 32.18 63.4163 32.18ZM64.3523 30.47C64.5803 30.47 64.8383 30.416 65.1263 30.308C65.4143 30.188 65.6663 30.026 65.8823 29.822V27.77C65.1623 27.806 64.5263 27.962 63.9743 28.238C63.4223 28.514 63.1463 28.898 63.1463 29.39C63.1463 29.762 63.2423 30.038 63.4343 30.218C63.6263 30.386 63.9323 30.47 64.3523 30.47ZM72.9605 32.18C72.1685 32.18 71.5685 31.952 71.1605 31.496C70.7525 31.028 70.5485 30.47 70.5485 29.822V24.836H69.2705L69.4685 23H70.5485V21.02L72.7805 20.786V23H74.7605V24.836H72.7805V28.904C72.7805 29.384 72.8045 29.72 72.8525 29.912C72.9125 30.092 73.0265 30.212 73.1945 30.272C73.3745 30.32 73.6925 30.344 74.1485 30.344H74.7605L74.5625 32.18H72.9605ZM80.282 32.18C79.238 32.18 78.344 31.97 77.6 31.55C76.868 31.118 76.316 30.548 75.944 29.84C75.584 29.12 75.404 28.322 75.404 27.446C75.404 26.606 75.578 25.838 75.926 25.142C76.274 24.446 76.778 23.894 77.438 23.486C78.098 23.066 78.884 22.856 79.796 22.856C80.636 22.856 81.344 23.03 81.92 23.378C82.508 23.726 82.946 24.194 83.234 24.782C83.534 25.37 83.684 26.03 83.684 26.762C83.684 27.122 83.636 27.53 83.54 27.986H77.726C77.846 28.778 78.158 29.372 78.662 29.768C79.166 30.152 79.772 30.344 80.48 30.344C81.452 30.344 82.352 30.098 83.18 29.606L83.288 31.496C82.904 31.7 82.454 31.868 81.938 32C81.434 32.12 80.882 32.18 80.282 32.18ZM81.416 26.474C81.416 26.006 81.284 25.592 81.02 25.232C80.756 24.872 80.348 24.692 79.796 24.692C79.244 24.692 78.8 24.854 78.464 25.178C78.128 25.502 77.9 25.934 77.78 26.474H81.416Z" fill="#8C8C8C"/>
</g>
<defs>
<filter id="filter0_d_146_13630" x="0" y="0" width="126" height="56" filterUnits="userSpaceOnUse" color-interpolation-filters="sRGB">
<feFlood flood-opacity="0" result="BackgroundImageFix"/>
<feColorMatrix in="SourceAlpha" type="matrix" values="0 0 0 0 0 0 0 0 0 0 0 0 0 0 0 0 0 0 127 0" result="hardAlpha"/>
<feOffset dy="2"/>
<feGaussianBlur stdDeviation="2"/>
<feComposite in2="hardAlpha" operator="out"/>
<feColorMatrix type="matrix" values="0 0 0 0 0 0 0 0 0 0 0 0 0 0 0 0 0 0 0.25 0"/>
<feBlend mode="normal" in2="BackgroundImageFix" result="effect1_dropShadow_146_13630"/>
<feBlend mode="normal" in="SourceGraphic" in2="effect1_dropShadow_146_13630" result="shape"/>
</filter>
</defs>
</svg>
