<svg width="48" height="48" viewBox="0 0 48 48" fill="none" xmlns="http://www.w3.org/2000/svg">
<g clip-path="url(#clip0_40_222)">
<rect width="48" height="48" fill="white"/>
<path d="M0 9.6C0 4.29807 4.29807 0 9.6 0H38.4C43.7019 0 48 4.29807 48 9.6V38.4C48 43.7019 43.7019 48 38.4 48H9.6C4.29807 48 0 43.7019 0 38.4V9.6Z" fill="#7C7C7C"/>
<mask id="mask0_40_222" style="mask-type:alpha" maskUnits="userSpaceOnUse" x="0" y="0" width="48" height="48">
<path d="M0 9.6C0 4.29807 4.29807 0 9.6 0H38.4C43.7019 0 48 4.29807 48 9.6V38.4C48 43.7019 43.7019 48 38.4 48H9.6C4.29807 48 0 43.7019 0 38.4V9.6Z" fill="#7C7C7C"/>
</mask>
<g mask="url(#mask0_40_222)">
<path d="M17.5 29.3334C15 29.3334 13.3333 26.5 13.3333 25V12C13.3333 10 15 8.00003 17.5 8.00003H30.5C33 8.00003 34.6667 10 34.6667 12V25C34.6667 26.5 33.5 29.3334 30.5 29.3334H17.5Z" fill="#EBEBEB"/>
<path d="M9.33331 53.3334C7.19998 53.3334 5.33331 52.75 5.33331 51.5834V38C5.33331 38 5.71781 34.6667 9.33331 34.6667H38.6667C41.9204 34.6667 42.6667 37.4167 42.6667 38V51.5834C42.6667 52.6269 40.8285 53.3334 38.6667 53.3334H9.33331Z" fill="#EBEBEB"/>
</g>
</g>
<defs>
<clipPath id="clip0_40_222">
<rect width="48" height="48" fill="white"/>
</clipPath>
</defs>
</svg>
