<svg width="339" height="188" viewBox="0 0 339 188" fill="none" xmlns="http://www.w3.org/2000/svg">
<g filter="url(#filter0_d_293_11041)">
<rect x="4" y="2" width="331" height="180" rx="11" fill="#FCFBF9"/>
</g>
<path d="M50.9191 54H55.2751L58.3711 66.564L61.7551 54.36H65.4991L68.8471 66.564L71.9791 54H76.3351L71.0791 72H67.3351L63.6271 60.264L59.9191 72H56.1751L50.9191 54ZM78.2282 46.8H82.6922V51.264H78.2282V46.8ZM78.2282 54H82.6922V72H78.2282V54ZM92.2046 72.36C90.6206 72.36 89.4206 71.904 88.6046 70.992C87.7886 70.056 87.3806 68.94 87.3806 67.644V57.672H84.8246L85.2206 54H87.3806V50.04L91.8446 49.572V54H95.8046V57.672H91.8446V65.808C91.8446 66.768 91.8926 67.44 91.9886 67.824C92.1086 68.184 92.3366 68.424 92.6726 68.544C93.0326 68.64 93.6686 68.688 94.5806 68.688H95.8046L95.4086 72.36H92.2046ZM107.244 53.712C109.524 53.712 111.216 54.456 112.32 55.944C113.448 57.408 114.012 59.424 114.012 61.992V72H109.548V62.316C109.548 60.612 109.272 59.364 108.72 58.572C108.168 57.78 107.292 57.384 106.092 57.384C104.676 57.384 103.512 57.9 102.6 58.932V72H98.1356V45H102.6V55.152C103.32 54.696 104.052 54.348 104.796 54.108C105.54 53.844 106.356 53.712 107.244 53.712ZM141.422 45V72H137.21L137.138 70.848C136.442 71.352 135.71 71.736 134.942 72C134.198 72.24 133.31 72.36 132.278 72.36C130.526 72.36 129.014 71.94 127.742 71.1C126.494 70.26 125.546 69.132 124.898 67.716C124.25 66.3 123.926 64.74 123.926 63.036C123.926 61.332 124.25 59.772 124.898 58.356C125.546 56.94 126.494 55.812 127.742 54.972C129.014 54.132 130.526 53.712 132.278 53.712C134.03 53.712 135.59 54.192 136.958 55.152V45H141.422ZM132.926 68.688C134.342 68.688 135.398 68.184 136.094 67.176C136.814 66.168 137.174 64.788 137.174 63.036C137.174 61.284 136.814 59.904 136.094 58.896C135.398 57.888 134.342 57.384 132.926 57.384C131.534 57.384 130.442 57.9 129.65 58.932C128.882 59.964 128.498 61.332 128.498 63.036C128.498 64.74 128.882 66.108 129.65 67.14C130.442 68.172 131.534 68.688 132.926 68.688ZM153.204 72.36C151.308 72.36 149.664 71.94 148.272 71.1C146.88 70.26 145.812 69.132 145.068 67.716C144.324 66.3 143.952 64.74 143.952 63.036C143.952 61.332 144.324 59.76 145.068 58.32C145.812 56.88 146.88 55.74 148.272 54.9C149.664 54.06 151.308 53.64 153.204 53.64C155.1 53.64 156.744 54.06 158.136 54.9C159.528 55.74 160.596 56.88 161.34 58.32C162.084 59.76 162.456 61.332 162.456 63.036C162.456 64.74 162.084 66.3 161.34 67.716C160.596 69.132 159.528 70.26 158.136 71.1C156.744 71.94 155.1 72.36 153.204 72.36ZM153.204 68.688C154.668 68.688 155.808 68.172 156.624 67.14C157.464 66.108 157.884 64.74 157.884 63.036C157.884 61.308 157.464 59.928 156.624 58.896C155.808 57.84 154.668 57.312 153.204 57.312C151.74 57.312 150.588 57.84 149.748 58.896C148.932 59.928 148.524 61.308 148.524 63.036C148.524 64.74 148.932 66.108 149.748 67.14C150.588 68.172 151.74 68.688 153.204 68.688ZM163.084 54H167.44L170.536 66.564L173.92 54.36H177.664L181.012 66.564L184.144 54H188.5L183.244 72H179.5L175.792 60.264L172.084 72H168.34L163.084 54ZM199.465 53.712C201.697 53.712 203.389 54.456 204.541 55.944C205.693 57.432 206.269 59.436 206.269 61.956V72H201.805V62.316C201.805 60.636 201.517 59.4 200.941 58.608C200.389 57.792 199.489 57.384 198.241 57.384C196.873 57.384 195.745 57.9 194.857 58.932V72H190.393V54H194.569L194.641 55.26C196.153 54.228 197.761 53.712 199.465 53.712ZM214.325 72.36C212.789 72.36 211.637 71.928 210.869 71.064C210.101 70.176 209.717 69.036 209.717 67.644V45H214.181V65.808C214.181 66.768 214.229 67.452 214.325 67.86C214.445 68.244 214.637 68.484 214.901 68.58C215.189 68.652 215.669 68.688 216.341 68.688L215.945 72.36H214.325ZM226.63 72.36C224.734 72.36 223.09 71.94 221.698 71.1C220.306 70.26 219.238 69.132 218.494 67.716C217.75 66.3 217.378 64.74 217.378 63.036C217.378 61.332 217.75 59.76 218.494 58.32C219.238 56.88 220.306 55.74 221.698 54.9C223.09 54.06 224.734 53.64 226.63 53.64C228.526 53.64 230.17 54.06 231.562 54.9C232.954 55.74 234.022 56.88 234.766 58.32C235.51 59.76 235.882 61.332 235.882 63.036C235.882 64.74 235.51 66.3 234.766 67.716C234.022 69.132 232.954 70.26 231.562 71.1C230.17 71.94 228.526 72.36 226.63 72.36ZM226.63 68.688C228.094 68.688 229.234 68.172 230.05 67.14C230.89 66.108 231.31 64.74 231.31 63.036C231.31 61.308 230.89 59.928 230.05 58.896C229.234 57.84 228.094 57.312 226.63 57.312C225.166 57.312 224.014 57.84 223.174 58.896C222.358 59.928 221.95 61.308 221.95 63.036C221.95 64.74 222.358 66.108 223.174 67.14C224.014 68.172 225.166 68.688 226.63 68.688ZM242.337 72.36C240.849 72.36 239.601 71.88 238.593 70.92C237.609 69.936 237.117 68.616 237.117 66.96C237.117 65.4 237.681 64.152 238.809 63.216C239.937 62.256 241.269 61.584 242.805 61.2C244.341 60.792 245.817 60.564 247.233 60.516C247.185 59.46 246.909 58.704 246.405 58.248C245.925 57.792 245.121 57.564 243.993 57.564C243.201 57.564 242.421 57.672 241.653 57.888C240.909 58.104 240.045 58.452 239.061 58.932L238.665 55.296C240.849 54.24 243.033 53.712 245.217 53.712C247.329 53.712 248.937 54.288 250.041 55.44C251.169 56.592 251.733 58.428 251.733 60.948V65.808C251.733 66.72 251.769 67.38 251.841 67.788C251.937 68.172 252.081 68.424 252.273 68.544C252.489 68.64 252.837 68.688 253.317 68.688H253.893L253.497 72.36H251.877C250.893 72.36 250.065 72.18 249.393 71.82C248.721 71.436 248.205 70.92 247.845 70.272C247.269 70.92 246.477 71.436 245.469 71.82C244.485 72.18 243.441 72.36 242.337 72.36ZM244.209 68.94C244.665 68.94 245.181 68.832 245.757 68.616C246.333 68.376 246.837 68.052 247.269 67.644V63.54C245.829 63.612 244.557 63.924 243.453 64.476C242.349 65.028 241.797 65.796 241.797 66.78C241.797 67.524 241.989 68.076 242.373 68.436C242.757 68.772 243.369 68.94 244.209 68.94ZM272.255 45V72H268.043L267.971 70.848C267.275 71.352 266.543 71.736 265.775 72C265.031 72.24 264.143 72.36 263.111 72.36C261.359 72.36 259.847 71.94 258.575 71.1C257.327 70.26 256.379 69.132 255.731 67.716C255.083 66.3 254.759 64.74 254.759 63.036C254.759 61.332 255.083 59.772 255.731 58.356C256.379 56.94 257.327 55.812 258.575 54.972C259.847 54.132 261.359 53.712 263.111 53.712C264.863 53.712 266.423 54.192 267.791 55.152V45H272.255ZM263.759 68.688C265.175 68.688 266.231 68.184 266.927 67.176C267.647 66.168 268.007 64.788 268.007 63.036C268.007 61.284 267.647 59.904 266.927 58.896C266.231 57.888 265.175 57.384 263.759 57.384C262.367 57.384 261.275 57.9 260.483 58.932C259.715 59.964 259.331 61.332 259.331 63.036C259.331 64.74 259.715 66.108 260.483 67.14C261.275 68.172 262.367 68.688 263.759 68.688ZM280.977 72.36C279.825 72.36 278.769 72.252 277.809 72.036C276.873 71.82 275.901 71.484 274.893 71.028L275.289 67.212C276.297 67.812 277.233 68.268 278.097 68.58C278.985 68.868 279.897 69.012 280.833 69.012C282.657 69.012 283.569 68.412 283.569 67.212C283.569 66.564 283.329 66.072 282.849 65.736C282.369 65.376 281.505 64.956 280.257 64.476C278.481 63.828 277.173 63.096 276.333 62.28C275.493 61.44 275.073 60.312 275.073 58.896C275.073 57.336 275.673 56.076 276.873 55.116C278.073 54.132 279.693 53.64 281.733 53.64C283.773 53.64 285.633 54.108 287.313 55.044L286.917 58.86C286.005 58.236 285.141 57.756 284.325 57.42C283.533 57.084 282.693 56.916 281.805 56.916C281.037 56.916 280.437 57.072 280.005 57.384C279.597 57.696 279.393 58.14 279.393 58.716C279.393 59.172 279.513 59.544 279.753 59.832C280.017 60.12 280.377 60.384 280.833 60.624C281.289 60.84 282.045 61.152 283.101 61.56C284.853 62.232 286.113 62.976 286.881 63.792C287.649 64.584 288.033 65.652 288.033 66.996C288.033 68.7 287.421 70.02 286.197 70.956C284.973 71.892 283.233 72.36 280.977 72.36Z" fill="#8C8C8C"/>
<g filter="url(#filter1_d_293_11041)">
<path d="M36 102.6C36 97.2981 40.2981 93 45.6 93H74.4C79.7019 93 84 97.2981 84 102.6V131.4C84 136.702 79.7019 141 74.4 141H45.6C40.2981 141 36 136.702 36 131.4V102.6Z" fill="#FCFBF9"/>
<path d="M59.7314 103C59.7314 116.696 59.7314 121.353 59.7314 121.97" stroke="#8C8C8C" stroke-width="3" stroke-linecap="round"/>
<path d="M44 121.582V128.522C44 128.985 44 131.298 46.7761 131.298C47.7015 131.298 71.2985 131.298 72.2239 131.298C75 131.298 75 128.985 75 128.522V121.582" stroke="#8C8C8C" stroke-width="3" stroke-linecap="round"/>
<path d="M52.3281 115.03C52.3281 115.03 57.8804 123.358 58.8057 123.821C59.7311 124.284 59.7311 124.284 60.6565 123.821C61.5819 123.358 67.1341 115.03 67.1341 115.03" stroke="#8C8C8C" stroke-width="3" stroke-linecap="round"/>
</g>
<path d="M105.368 94H108.344V104.92L112.064 100H115.424L111.056 105.76L115.52 112H112.16L108.344 106.672V112H105.368V94ZM121.949 112.24C120.557 112.24 119.365 111.96 118.373 111.4C117.397 110.824 116.661 110.064 116.165 109.12C115.685 108.16 115.445 107.096 115.445 105.928C115.445 104.808 115.677 103.784 116.141 102.856C116.605 101.928 117.277 101.192 118.157 100.648C119.037 100.088 120.085 99.808 121.301 99.808C122.421 99.808 123.365 100.04 124.133 100.504C124.917 100.968 125.501 101.592 125.885 102.376C126.285 103.16 126.485 104.04 126.485 105.016C126.485 105.496 126.421 106.04 126.293 106.648H118.541C118.701 107.704 119.117 108.496 119.789 109.024C120.461 109.536 121.269 109.792 122.213 109.792C123.509 109.792 124.709 109.464 125.813 108.808L125.957 111.328C125.445 111.6 124.845 111.824 124.157 112C123.485 112.16 122.749 112.24 121.949 112.24ZM123.461 104.632C123.461 104.008 123.285 103.456 122.933 102.976C122.581 102.496 122.037 102.256 121.301 102.256C120.565 102.256 119.973 102.472 119.525 102.904C119.077 103.336 118.773 103.912 118.613 104.632H123.461ZM133.94 112.24C132.548 112.24 131.356 111.96 130.364 111.4C129.388 110.824 128.652 110.064 128.156 109.12C127.676 108.16 127.436 107.096 127.436 105.928C127.436 104.808 127.668 103.784 128.132 102.856C128.596 101.928 129.268 101.192 130.148 100.648C131.028 100.088 132.076 99.808 133.292 99.808C134.412 99.808 135.356 100.04 136.124 100.504C136.908 100.968 137.492 101.592 137.876 102.376C138.276 103.16 138.476 104.04 138.476 105.016C138.476 105.496 138.412 106.04 138.284 106.648H130.532C130.692 107.704 131.108 108.496 131.78 109.024C132.452 109.536 133.26 109.792 134.204 109.792C135.5 109.792 136.7 109.464 137.804 108.808L137.948 111.328C137.436 111.6 136.836 111.824 136.148 112C135.476 112.16 134.74 112.24 133.94 112.24ZM135.452 104.632C135.452 104.008 135.276 103.456 134.924 102.976C134.572 102.496 134.028 102.256 133.292 102.256C132.556 102.256 131.964 102.472 131.516 102.904C131.068 103.336 130.764 103.912 130.604 104.632H135.452ZM146.412 99.808C147.548 99.808 148.524 100.088 149.34 100.648C150.156 101.208 150.772 101.96 151.188 102.904C151.604 103.848 151.812 104.888 151.812 106.024C151.812 107.16 151.604 108.2 151.188 109.144C150.772 110.088 150.156 110.84 149.34 111.4C148.524 111.96 147.548 112.24 146.412 112.24C145.692 112.24 145.076 112.16 144.564 112C144.068 111.856 143.588 111.616 143.124 111.28V117.808H140.148V100H142.548L142.86 101.104C143.372 100.672 143.908 100.352 144.468 100.144C145.028 99.92 145.676 99.808 146.412 99.808ZM145.956 109.792C146.836 109.792 147.524 109.448 148.02 108.76C148.516 108.072 148.764 107.16 148.764 106.024C148.764 104.888 148.516 103.976 148.02 103.288C147.524 102.6 146.836 102.256 145.956 102.256C144.964 102.256 144.22 102.592 143.724 103.264C143.228 103.936 142.98 104.856 142.98 106.024C142.98 107.192 143.228 108.112 143.724 108.784C144.22 109.456 144.964 109.792 145.956 109.792ZM162.177 111.208L157.185 100H160.497L163.569 107.728L166.689 100H170.001L162.489 117.808H159.513L162.177 111.208ZM176.274 112.24C175.01 112.24 173.914 111.96 172.986 111.4C172.058 110.84 171.346 110.088 170.85 109.144C170.354 108.2 170.106 107.16 170.106 106.024C170.106 104.888 170.354 103.84 170.85 102.88C171.346 101.92 172.058 101.16 172.986 100.6C173.914 100.04 175.01 99.76 176.274 99.76C177.538 99.76 178.634 100.04 179.562 100.6C180.49 101.16 181.202 101.92 181.698 102.88C182.194 103.84 182.442 104.888 182.442 106.024C182.442 107.16 182.194 108.2 181.698 109.144C181.202 110.088 180.49 110.84 179.562 111.4C178.634 111.96 177.538 112.24 176.274 112.24ZM176.274 109.792C177.25 109.792 178.01 109.448 178.554 108.76C179.114 108.072 179.394 107.16 179.394 106.024C179.394 104.872 179.114 103.952 178.554 103.264C178.01 102.56 177.25 102.208 176.274 102.208C175.298 102.208 174.53 102.56 173.97 103.264C173.426 103.952 173.154 104.872 173.154 106.024C173.154 107.16 173.426 108.072 173.97 108.76C174.53 109.448 175.298 109.792 176.274 109.792ZM194.617 100V112H191.833L191.785 111.28C191.417 111.552 190.993 111.784 190.513 111.976C190.033 112.152 189.569 112.24 189.121 112.24C187.345 112.24 186.049 111.728 185.233 110.704C184.433 109.68 184.033 108.264 184.033 106.456V100H187.009V106.456C187.009 107.576 187.193 108.408 187.561 108.952C187.945 109.48 188.553 109.744 189.385 109.744C190.313 109.744 191.065 109.408 191.641 108.736V100H194.617ZM197.035 100H199.819L199.891 101.272C200.243 100.872 200.691 100.52 201.235 100.216C201.795 99.912 202.379 99.76 202.987 99.76C203.179 99.76 203.355 99.776 203.515 99.808L203.299 102.736C202.995 102.656 202.651 102.616 202.267 102.616C201.771 102.616 201.315 102.736 200.899 102.976C200.483 103.2 200.187 103.48 200.011 103.816V112H197.035V100ZM215.868 99.808C217.004 99.808 217.98 100.088 218.796 100.648C219.612 101.208 220.228 101.96 220.644 102.904C221.06 103.848 221.268 104.888 221.268 106.024C221.268 107.16 221.06 108.2 220.644 109.144C220.228 110.088 219.612 110.84 218.796 111.4C217.98 111.96 217.004 112.24 215.868 112.24C214.604 112.24 213.46 111.896 212.436 111.208L212.388 112H209.604V94H212.58V100.888C213.556 100.168 214.652 99.808 215.868 99.808ZM215.436 109.792C216.316 109.792 216.996 109.448 217.476 108.76C217.972 108.072 218.22 107.16 218.22 106.024C218.22 104.888 217.972 103.976 217.476 103.288C216.996 102.6 216.316 102.256 215.436 102.256C214.428 102.256 213.676 102.592 213.18 103.264C212.684 103.936 212.436 104.856 212.436 106.024C212.436 107.192 212.684 108.112 213.18 108.784C213.676 109.456 214.428 109.792 215.436 109.792ZM228.763 112.24C227.371 112.24 226.179 111.96 225.187 111.4C224.211 110.824 223.475 110.064 222.979 109.12C222.499 108.16 222.259 107.096 222.259 105.928C222.259 104.808 222.491 103.784 222.955 102.856C223.419 101.928 224.091 101.192 224.971 100.648C225.851 100.088 226.899 99.808 228.115 99.808C229.235 99.808 230.179 100.04 230.947 100.504C231.731 100.968 232.315 101.592 232.699 102.376C233.099 103.16 233.299 104.04 233.299 105.016C233.299 105.496 233.235 106.04 233.107 106.648H225.355C225.515 107.704 225.931 108.496 226.603 109.024C227.275 109.536 228.083 109.792 229.027 109.792C230.323 109.792 231.523 109.464 232.627 108.808L232.771 111.328C232.259 111.6 231.659 111.824 230.971 112C230.299 112.16 229.563 112.24 228.763 112.24ZM230.275 104.632C230.275 104.008 230.099 103.456 229.747 102.976C229.395 102.496 228.851 102.256 228.115 102.256C227.379 102.256 226.787 102.472 226.339 102.904C225.891 103.336 225.587 103.912 225.427 104.632H230.275ZM237.562 112.24C236.57 112.24 235.738 111.92 235.066 111.28C234.41 110.624 234.082 109.744 234.082 108.64C234.082 107.6 234.458 106.768 235.21 106.144C235.962 105.504 236.85 105.056 237.874 104.8C238.898 104.528 239.882 104.376 240.826 104.344C240.794 103.64 240.61 103.136 240.274 102.832C239.954 102.528 239.418 102.376 238.666 102.376C238.138 102.376 237.618 102.448 237.106 102.592C236.61 102.736 236.034 102.968 235.378 103.288L235.114 100.864C236.57 100.16 238.026 99.808 239.482 99.808C240.89 99.808 241.962 100.192 242.698 100.96C243.45 101.728 243.826 102.952 243.826 104.632V107.872C243.826 108.48 243.85 108.92 243.898 109.192C243.962 109.448 244.058 109.616 244.186 109.696C244.33 109.76 244.562 109.792 244.882 109.792H245.266L245.002 112.24H243.922C243.266 112.24 242.714 112.12 242.266 111.88C241.818 111.624 241.474 111.28 241.234 110.848C240.85 111.28 240.322 111.624 239.65 111.88C238.994 112.12 238.298 112.24 237.562 112.24ZM238.81 109.96C239.114 109.96 239.458 109.888 239.842 109.744C240.226 109.584 240.562 109.368 240.85 109.096V106.36C239.89 106.408 239.042 106.616 238.306 106.984C237.57 107.352 237.202 107.864 237.202 108.52C237.202 109.016 237.33 109.384 237.586 109.624C237.842 109.848 238.25 109.96 238.81 109.96ZM256.934 100V112H254.15L254.102 111.28C253.734 111.552 253.31 111.784 252.83 111.976C252.35 112.152 251.886 112.24 251.438 112.24C249.662 112.24 248.366 111.728 247.55 110.704C246.75 109.68 246.35 108.264 246.35 106.456V100H249.326V106.456C249.326 107.576 249.51 108.408 249.878 108.952C250.262 109.48 250.87 109.744 251.702 109.744C252.63 109.744 253.382 109.408 253.958 108.736V100H256.934ZM263.264 112.24C262.208 112.24 261.408 111.936 260.864 111.328C260.32 110.704 260.048 109.96 260.048 109.096V102.448H258.344L258.608 100H260.048V97.36L263.024 97.048V100H265.664V102.448H263.024V107.872C263.024 108.512 263.056 108.96 263.12 109.216C263.2 109.456 263.352 109.616 263.576 109.696C263.816 109.76 264.24 109.792 264.848 109.792H265.664L265.4 112.24H263.264ZM267.242 95.2H270.218V98.176H267.242V95.2ZM267.242 100H270.218V112H267.242V100ZM273.368 102.448H271.664L271.928 100H273.368V97.456C273.368 96.384 273.68 95.544 274.304 94.936C274.944 94.312 275.848 94 277.016 94C277.672 94 278.32 94.072 278.96 94.216L278.696 96.616C278.424 96.536 278.112 96.496 277.76 96.496C276.816 96.496 276.344 96.992 276.344 97.984V100H278.984V102.448H276.344V112H273.368V102.448ZM290.908 100V112H288.124L288.076 111.28C287.708 111.552 287.284 111.784 286.804 111.976C286.324 112.152 285.86 112.24 285.412 112.24C283.636 112.24 282.34 111.728 281.524 110.704C280.724 109.68 280.324 108.264 280.324 106.456V100H283.3V106.456C283.3 107.576 283.484 108.408 283.852 108.952C284.236 109.48 284.844 109.744 285.676 109.744C286.604 109.744 287.356 109.408 287.932 108.736V100H290.908ZM296.398 112.24C295.374 112.24 294.606 111.952 294.094 111.376C293.582 110.784 293.326 110.024 293.326 109.096V94H296.302V107.872C296.302 108.512 296.334 108.968 296.398 109.24C296.478 109.496 296.606 109.656 296.782 109.72C296.974 109.768 297.294 109.792 297.742 109.792L297.478 112.24H296.398ZM104.24 129H107.144L109.208 137.376L111.464 129.24H113.96L116.192 137.376L118.28 129H121.184L117.68 141H115.184L112.712 133.176L110.24 141H107.744L104.24 129ZM127.753 141.24C126.489 141.24 125.393 140.96 124.465 140.4C123.537 139.84 122.825 139.088 122.329 138.144C121.833 137.2 121.585 136.16 121.585 135.024C121.585 133.888 121.833 132.84 122.329 131.88C122.825 130.92 123.537 130.16 124.465 129.6C125.393 129.04 126.489 128.76 127.753 128.76C129.017 128.76 130.113 129.04 131.041 129.6C131.969 130.16 132.681 130.92 133.177 131.88C133.673 132.84 133.921 133.888 133.921 135.024C133.921 136.16 133.673 137.2 133.177 138.144C132.681 139.088 131.969 139.84 131.041 140.4C130.113 140.96 129.017 141.24 127.753 141.24ZM127.753 138.792C128.729 138.792 129.489 138.448 130.033 137.76C130.593 137.072 130.873 136.16 130.873 135.024C130.873 133.872 130.593 132.952 130.033 132.264C129.489 131.56 128.729 131.208 127.753 131.208C126.777 131.208 126.009 131.56 125.449 132.264C124.905 132.952 124.633 133.872 124.633 135.024C124.633 136.16 124.905 137.072 125.449 137.76C126.009 138.448 126.777 138.792 127.753 138.792ZM135.633 129H138.417L138.489 130.272C138.841 129.872 139.289 129.52 139.833 129.216C140.393 128.912 140.977 128.76 141.585 128.76C141.777 128.76 141.953 128.776 142.113 128.808L141.897 131.736C141.593 131.656 141.249 131.616 140.865 131.616C140.369 131.616 139.913 131.736 139.497 131.976C139.081 132.2 138.785 132.48 138.609 132.816V141H135.633V129ZM143.171 123H146.147V133.92L149.867 129H153.227L148.859 134.76L153.323 141H149.963L146.147 135.672V141H143.171V123ZM157.891 141.24C157.123 141.24 156.419 141.168 155.779 141.024C155.155 140.88 154.507 140.656 153.835 140.352L154.099 137.808C154.771 138.208 155.395 138.512 155.971 138.72C156.563 138.912 157.171 139.008 157.795 139.008C159.011 139.008 159.619 138.608 159.619 137.808C159.619 137.376 159.459 137.048 159.139 136.824C158.819 136.584 158.243 136.304 157.411 135.984C156.227 135.552 155.355 135.064 154.795 134.52C154.235 133.96 153.955 133.208 153.955 132.264C153.955 131.224 154.355 130.384 155.155 129.744C155.955 129.088 157.035 128.76 158.395 128.76C159.755 128.76 160.995 129.072 162.115 129.696L161.851 132.24C161.243 131.824 160.667 131.504 160.123 131.28C159.595 131.056 159.035 130.944 158.443 130.944C157.931 130.944 157.531 131.048 157.243 131.256C156.971 131.464 156.835 131.76 156.835 132.144C156.835 132.448 156.915 132.696 157.075 132.888C157.251 133.08 157.491 133.256 157.795 133.416C158.099 133.56 158.603 133.768 159.307 134.04C160.475 134.488 161.315 134.984 161.827 135.528C162.339 136.056 162.595 136.768 162.595 137.664C162.595 138.8 162.187 139.68 161.371 140.304C160.555 140.928 159.395 141.24 157.891 141.24ZM174.75 141.24C173.486 141.24 172.39 140.96 171.462 140.4C170.534 139.84 169.822 139.088 169.326 138.144C168.83 137.2 168.582 136.16 168.582 135.024C168.582 133.888 168.83 132.84 169.326 131.88C169.822 130.92 170.534 130.16 171.462 129.6C172.39 129.04 173.486 128.76 174.75 128.76C176.014 128.76 177.11 129.04 178.038 129.6C178.966 130.16 179.678 130.92 180.174 131.88C180.67 132.84 180.918 133.888 180.918 135.024C180.918 136.16 180.67 137.2 180.174 138.144C179.678 139.088 178.966 139.84 178.038 140.4C177.11 140.96 176.014 141.24 174.75 141.24ZM174.75 138.792C175.726 138.792 176.486 138.448 177.03 137.76C177.59 137.072 177.87 136.16 177.87 135.024C177.87 133.872 177.59 132.952 177.03 132.264C176.486 131.56 175.726 131.208 174.75 131.208C173.774 131.208 173.006 131.56 172.446 132.264C171.902 132.952 171.63 133.872 171.63 135.024C171.63 136.16 171.902 137.072 172.446 137.76C173.006 138.448 173.774 138.792 174.75 138.792ZM183.209 131.448H181.505L181.769 129H183.209V126.456C183.209 125.384 183.521 124.544 184.145 123.936C184.785 123.312 185.689 123 186.857 123C187.513 123 188.161 123.072 188.801 123.216L188.537 125.616C188.265 125.536 187.953 125.496 187.601 125.496C186.657 125.496 186.185 125.992 186.185 126.984V129H188.825V131.448H186.185V141H183.209V131.448ZM197.908 141.24C196.916 141.24 196.084 140.92 195.412 140.28C194.756 139.624 194.428 138.744 194.428 137.64C194.428 136.6 194.804 135.768 195.556 135.144C196.308 134.504 197.196 134.056 198.22 133.8C199.244 133.528 200.228 133.376 201.172 133.344C201.14 132.64 200.956 132.136 200.62 131.832C200.3 131.528 199.764 131.376 199.012 131.376C198.484 131.376 197.964 131.448 197.452 131.592C196.956 131.736 196.38 131.968 195.724 132.288L195.46 129.864C196.916 129.16 198.372 128.808 199.828 128.808C201.236 128.808 202.308 129.192 203.044 129.96C203.796 130.728 204.172 131.952 204.172 133.632V136.872C204.172 137.48 204.196 137.92 204.244 138.192C204.308 138.448 204.404 138.616 204.532 138.696C204.676 138.76 204.908 138.792 205.228 138.792H205.612L205.348 141.24H204.268C203.612 141.24 203.06 141.12 202.612 140.88C202.164 140.624 201.82 140.28 201.58 139.848C201.196 140.28 200.668 140.624 199.996 140.88C199.34 141.12 198.644 141.24 197.908 141.24ZM199.156 138.96C199.46 138.96 199.804 138.888 200.188 138.744C200.572 138.584 200.908 138.368 201.196 138.096V135.36C200.236 135.408 199.388 135.616 198.652 135.984C197.916 136.352 197.548 136.864 197.548 137.52C197.548 138.016 197.676 138.384 197.932 138.624C198.188 138.848 198.596 138.96 199.156 138.96ZM206.909 129H209.693L209.765 130.272C210.117 129.872 210.565 129.52 211.109 129.216C211.669 128.912 212.253 128.76 212.861 128.76C213.053 128.76 213.229 128.776 213.389 128.808L213.173 131.736C212.869 131.656 212.525 131.616 212.141 131.616C211.645 131.616 211.189 131.736 210.773 131.976C210.357 132.2 210.061 132.48 209.885 132.816V141H206.909V129ZM218.383 141.24C217.327 141.24 216.527 140.936 215.983 140.328C215.439 139.704 215.167 138.96 215.167 138.096V131.448H213.463L213.727 129H215.167V126.36L218.143 126.048V129H220.783V131.448H218.143V136.872C218.143 137.512 218.175 137.96 218.239 138.216C218.319 138.456 218.471 138.616 218.695 138.696C218.935 138.76 219.359 138.792 219.967 138.792H220.783L220.519 141.24H218.383Z" fill="#C4C4C4"/>
<defs>
<filter id="filter0_d_293_11041" x="0" y="0" width="339" height="188" filterUnits="userSpaceOnUse" color-interpolation-filters="sRGB">
<feFlood flood-opacity="0" result="BackgroundImageFix"/>
<feColorMatrix in="SourceAlpha" type="matrix" values="0 0 0 0 0 0 0 0 0 0 0 0 0 0 0 0 0 0 127 0" result="hardAlpha"/>
<feOffset dy="2"/>
<feGaussianBlur stdDeviation="2"/>
<feComposite in2="hardAlpha" operator="out"/>
<feColorMatrix type="matrix" values="0 0 0 0 0 0 0 0 0 0 0 0 0 0 0 0 0 0 0.25 0"/>
<feBlend mode="normal" in2="BackgroundImageFix" result="effect1_dropShadow_293_11041"/>
<feBlend mode="normal" in="SourceGraphic" in2="effect1_dropShadow_293_11041" result="shape"/>
</filter>
<filter id="filter1_d_293_11041" x="32" y="91" width="56" height="56" filterUnits="userSpaceOnUse" color-interpolation-filters="sRGB">
<feFlood flood-opacity="0" result="BackgroundImageFix"/>
<feColorMatrix in="SourceAlpha" type="matrix" values="0 0 0 0 0 0 0 0 0 0 0 0 0 0 0 0 0 0 127 0" result="hardAlpha"/>
<feOffset dy="2"/>
<feGaussianBlur stdDeviation="2"/>
<feComposite in2="hardAlpha" operator="out"/>
<feColorMatrix type="matrix" values="0 0 0 0 0 0 0 0 0 0 0 0 0 0 0 0 0 0 0.25 0"/>
<feBlend mode="normal" in2="BackgroundImageFix" result="effect1_dropShadow_293_11041"/>
<feBlend mode="normal" in="SourceGraphic" in2="effect1_dropShadow_293_11041" result="shape"/>
</filter>
</defs>
</svg>
