<svg width="48" height="48" viewBox="0 0 48 48" fill="none" xmlns="http://www.w3.org/2000/svg">
<rect width="48" height="48" fill="none"/>
<path d="M0 9.6C0 4.29807 4.29807 0 9.6 0H38.4C43.7019 0 48 4.29807 48 9.6V38.4C48 43.7019 43.7019 48 38.4 48H9.6C4.29807 48 0 43.7019 0 38.4V9.6Z" fill="#FCFBF9"/>
<path d="M20.5165 36.1115L21.1892 37.4203L21.3941 37.315L21.5571 37.152L20.5165 36.1115ZM7.45696 39.2849C7.19995 40.0559 7.61664 40.8893 8.38764 41.1463C9.15865 41.4033 9.99201 40.9866 10.249 40.2156L7.45696 39.2849ZM13.7307 39.7503V38.2787V39.7503ZM24.8797 41.2218C25.6924 41.2218 26.3512 40.563 26.3512 39.7503C26.3512 38.9376 25.6924 38.2787 24.8797 38.2787V41.2218ZM13.7099 29.3048L26.4966 16.5181L24.4155 14.437L11.6288 27.2237L13.7099 29.3048ZM32.2627 22.2842L19.476 35.0709L21.5571 37.152L34.3438 24.3653L32.2627 22.2842ZM26.4966 16.5181C26.847 16.1677 27.156 15.8371 27.3854 15.5982C27.6384 15.3348 27.782 15.1968 27.8778 15.1217C27.9909 15.0331 27.8576 15.1786 27.5553 15.1927C27.1667 15.2108 26.9419 15.0066 26.9249 14.9896L29.006 12.9085C28.662 12.5645 28.1284 12.2197 27.4183 12.2528C26.7944 12.2818 26.327 12.5979 26.0628 12.8049C25.7812 13.0255 25.5042 13.3081 25.2626 13.5597C24.9976 13.8357 24.7381 14.1144 24.4155 14.437L26.4966 16.5181ZM26.9249 14.9896L33.7912 21.8559L35.8723 19.7748L29.006 12.9085L26.9249 14.9896ZM33.7912 21.8559C33.7742 21.8389 33.57 21.6142 33.5882 21.2256C33.6022 20.9232 33.7477 20.7899 33.6591 20.9031C33.5841 20.9988 33.446 21.1425 33.1826 21.3954C32.9437 21.6248 32.6131 21.9338 32.2627 22.2842L34.3438 24.3653C34.6664 24.0427 34.9451 23.7833 35.2212 23.5182C35.4727 23.2766 35.7553 22.9996 35.9759 22.718C36.1829 22.4538 36.499 21.9865 36.5281 21.3625C36.5611 20.6524 36.2163 20.1188 35.8723 19.7748L33.7912 21.8559ZM10.249 40.2156C10.6061 39.1444 11.2689 36.4519 11.9325 34.1329C12.2785 32.9237 12.6354 31.7707 12.9809 30.8498C13.1539 30.3888 13.3151 30.0103 13.4604 29.7231C13.5327 29.5804 13.5945 29.4732 13.6445 29.3966C13.6971 29.316 13.7205 29.2942 13.7099 29.3048L11.6288 27.2237C11.2926 27.56 11.0333 28.0012 10.8345 28.394C10.6226 28.8128 10.4189 29.3002 10.2254 29.8159C9.83811 30.8481 9.4557 32.0905 9.10296 33.3233C8.36904 35.8882 7.7967 38.2657 7.45696 39.2849L10.249 40.2156ZM19.8439 34.8027C18.8926 35.2916 17.1103 36.205 15.6056 36.9961C14.8553 37.3905 14.1617 37.761 13.6712 38.0357C13.4325 38.1694 13.2134 38.2961 13.0562 38.3975C13.002 38.4325 12.8604 38.5235 12.7335 38.6413C12.6966 38.6755 12.6259 38.7438 12.5522 38.8403C12.5078 38.8985 12.3111 39.1543 12.2585 39.5478C12.2276 39.7793 12.2439 40.0866 12.3994 40.4C12.5548 40.7133 12.7895 40.9119 12.9917 41.027C13.3356 41.2229 13.6574 41.2218 13.7307 41.2218V38.2787C13.7942 38.2787 14.1088 38.2763 14.4482 38.4696C14.6482 38.5835 14.8813 38.7805 15.0357 39.0918C15.1903 39.4033 15.2063 39.7085 15.1757 39.9374C15.1238 40.3258 14.9303 40.5754 14.8917 40.626C14.8237 40.7151 14.7612 40.7747 14.7349 40.7991C14.6505 40.8774 14.5901 40.9104 14.6516 40.8707C14.7256 40.8229 14.8756 40.7344 15.1092 40.6036C15.5635 40.3491 16.2282 39.9938 16.9751 39.6011C18.4647 38.818 20.2323 37.9121 21.1892 37.4203L19.8439 34.8027ZM13.7307 41.2218L24.8797 41.2218V38.2787L13.7307 38.2787V41.2218Z" fill="#8C8C8C"/>
<path d="M38.3393 18.2996C40.6389 16.0001 40.4803 13.5419 39.8261 12.8877M38.3393 18.2996C36.0398 20.5992 34.89 21.7489 33.7403 22.8987L38.3393 18.2996ZM35.9009 8.96258C37.9447 11.0064 39.8261 12.8877 39.8261 12.8877M35.9009 8.96258C35.2467 8.30839 32.7885 8.14977 30.489 10.4493M35.9009 8.96258L39.8261 12.8877M30.489 10.4493C30.489 10.4493 27.0397 13.8986 25.8899 15.0484L30.489 10.4493Z" stroke="#8C8C8C" stroke-width="2.94309" stroke-linejoin="round"/>
</svg>
