<svg width="48" height="48" viewBox="0 0 48 48" fill="none" xmlns="http://www.w3.org/2000/svg">
<rect width="48" height="48" fill="none"/>
<path d="M0 9.6C0 4.29807 4.29807 0 9.6 0H38.4C43.7019 0 48 4.29807 48 9.6V38.4C48 43.7019 43.7019 48 38.4 48H9.6C4.29807 48 0 43.7019 0 38.4V9.6Z" fill="#FCFBF9"/>
<path d="M17.6263 37.4509L14.4175 34.2421L10.0277 29.8523C8.90784 28.7325 8.90784 26.9168 10.0277 25.797L24.797 11.0276C25.9169 9.90781 27.7325 9.90781 28.8523 11.0276L37.6289 19.8043C38.75 20.9253 38.7486 22.7433 37.6259 23.8626L24.6108 36.8385C24.0733 37.3744 23.9167 37.6753 24.6757 37.6753C25.5386 37.6753 27.034 37.6753 29.5065 37.6753" stroke="#8C8C8C" stroke-width="3" stroke-linecap="round" stroke-linejoin="round"/>
<path d="M15.1688 21.187L27.3558 33.374" stroke="#8C8C8C" stroke-width="3"/>
</svg>
