<svg width="187" height="56" viewBox="0 0 187 56" fill="none" xmlns="http://www.w3.org/2000/svg">
<g filter="url(#filter0_d_146_13629)">
<rect x="4" y="2" width="179" height="48" rx="11" fill="#FCFBF9"/>
<path d="M30.044 19.4H32.276V21.632H30.044V19.4ZM30.044 23H32.276V32H30.044V23ZM37.0072 23H39.1852L40.7332 29.282L42.4252 23.18H44.2972L45.9712 29.282L47.5372 23H49.7152L47.0872 32H45.2152L43.3612 26.132L41.5072 32H39.6352L37.0072 23ZM52.5354 32.18C51.7914 32.18 51.1674 31.94 50.6634 31.46C50.1714 30.968 49.9254 30.308 49.9254 29.48C49.9254 28.7 50.2074 28.076 50.7714 27.608C51.3354 27.128 52.0014 26.792 52.7694 26.6C53.5374 26.396 54.2754 26.282 54.9834 26.258C54.9594 25.73 54.8214 25.352 54.5694 25.124C54.3294 24.896 53.9274 24.782 53.3634 24.782C52.9674 24.782 52.5774 24.836 52.1934 24.944C51.8214 25.052 51.3894 25.226 50.8974 25.466L50.6994 23.648C51.7914 23.12 52.8834 22.856 53.9754 22.856C55.0314 22.856 55.8354 23.144 56.3874 23.72C56.9514 24.296 57.2334 25.214 57.2334 26.474V28.904C57.2334 29.36 57.2514 29.69 57.2874 29.894C57.3354 30.086 57.4074 30.212 57.5034 30.272C57.6114 30.32 57.7854 30.344 58.0254 30.344H58.3134L58.1154 32.18H57.3054C56.8134 32.18 56.3994 32.09 56.0634 31.91C55.7274 31.718 55.4694 31.46 55.2894 31.136C55.0014 31.46 54.6054 31.718 54.1014 31.91C53.6094 32.09 53.0874 32.18 52.5354 32.18ZM53.4714 30.47C53.6994 30.47 53.9574 30.416 54.2454 30.308C54.5334 30.188 54.7854 30.026 55.0014 29.822V27.77C54.2814 27.806 53.6454 27.962 53.0934 28.238C52.5414 28.514 52.2654 28.898 52.2654 29.39C52.2654 29.762 52.3614 30.038 52.5534 30.218C52.7454 30.386 53.0514 30.47 53.4714 30.47ZM63.8223 22.856C64.9383 22.856 65.7843 23.228 66.3603 23.972C66.9363 24.716 67.2243 25.718 67.2243 26.978V32H64.9923V27.158C64.9923 26.318 64.8483 25.7 64.5603 25.304C64.2843 24.896 63.8343 24.692 63.2103 24.692C62.5263 24.692 61.9623 24.95 61.5183 25.466V32H59.2863V23H61.3743L61.4103 23.63C62.1663 23.114 62.9703 22.856 63.8223 22.856ZM71.7764 32.18C70.9844 32.18 70.3844 31.952 69.9764 31.496C69.5684 31.028 69.3644 30.47 69.3644 29.822V24.836H68.0864L68.2844 23H69.3644V21.02L71.5964 20.786V23H73.5764V24.836H71.5964V28.904C71.5964 29.384 71.6204 29.72 71.6684 29.912C71.7284 30.092 71.8424 30.212 72.0104 30.272C72.1904 30.32 72.5084 30.344 72.9644 30.344H73.5764L73.3784 32.18H71.7764ZM81.4669 32.18C80.6749 32.18 80.0749 31.952 79.6669 31.496C79.2589 31.028 79.0549 30.47 79.0549 29.822V24.836H77.7769L77.9749 23H79.0549V21.02L81.2869 20.786V23H83.2669V24.836H81.2869V28.904C81.2869 29.384 81.3109 29.72 81.3589 29.912C81.4189 30.092 81.5329 30.212 81.7009 30.272C81.8809 30.32 82.1989 30.344 82.6549 30.344H83.2669L83.0689 32.18H81.4669ZM88.5364 32.18C87.5884 32.18 86.7664 31.97 86.0704 31.55C85.3744 31.13 84.8404 30.566 84.4684 29.858C84.0964 29.15 83.9104 28.37 83.9104 27.518C83.9104 26.666 84.0964 25.88 84.4684 25.16C84.8404 24.44 85.3744 23.87 86.0704 23.45C86.7664 23.03 87.5884 22.82 88.5364 22.82C89.4844 22.82 90.3064 23.03 91.0024 23.45C91.6984 23.87 92.2324 24.44 92.6044 25.16C92.9764 25.88 93.1624 26.666 93.1624 27.518C93.1624 28.37 92.9764 29.15 92.6044 29.858C92.2324 30.566 91.6984 31.13 91.0024 31.55C90.3064 31.97 89.4844 32.18 88.5364 32.18ZM88.5364 30.344C89.2684 30.344 89.8384 30.086 90.2464 29.57C90.6664 29.054 90.8764 28.37 90.8764 27.518C90.8764 26.654 90.6664 25.964 90.2464 25.448C89.8384 24.92 89.2684 24.656 88.5364 24.656C87.8044 24.656 87.2284 24.92 86.8084 25.448C86.4004 25.964 86.1964 26.654 86.1964 27.518C86.1964 28.37 86.4004 29.054 86.8084 29.57C87.2284 30.086 87.8044 30.344 88.5364 30.344ZM102.557 32.18C101.513 32.18 100.619 31.97 99.875 31.55C99.143 31.118 98.591 30.548 98.219 29.84C97.859 29.12 97.679 28.322 97.679 27.446C97.679 26.606 97.853 25.838 98.201 25.142C98.549 24.446 99.053 23.894 99.713 23.486C100.373 23.066 101.159 22.856 102.071 22.856C102.911 22.856 103.619 23.03 104.195 23.378C104.783 23.726 105.221 24.194 105.509 24.782C105.809 25.37 105.959 26.03 105.959 26.762C105.959 27.122 105.911 27.53 105.815 27.986H100.001C100.121 28.778 100.433 29.372 100.937 29.768C101.441 30.152 102.047 30.344 102.755 30.344C103.727 30.344 104.627 30.098 105.455 29.606L105.563 31.496C105.179 31.7 104.729 31.868 104.213 32C103.709 32.12 103.157 32.18 102.557 32.18ZM103.691 26.474C103.691 26.006 103.559 25.592 103.295 25.232C103.031 24.872 102.623 24.692 102.071 24.692C101.519 24.692 101.075 24.854 100.739 25.178C100.403 25.502 100.175 25.934 100.055 26.474H103.691ZM109.266 27.5L106.278 23H108.942L110.58 25.61L112.092 23H114.756L111.768 27.5L114.756 32H112.092L110.454 29.39L108.942 32H106.278L109.266 27.5ZM120.412 22.856C121.264 22.856 121.996 23.066 122.608 23.486C123.22 23.906 123.682 24.47 123.994 25.178C124.306 25.886 124.462 26.666 124.462 27.518C124.462 28.37 124.306 29.15 123.994 29.858C123.682 30.566 123.22 31.13 122.608 31.55C121.996 31.97 121.264 32.18 120.412 32.18C119.872 32.18 119.41 32.12 119.026 32C118.654 31.892 118.294 31.712 117.946 31.46V36.356H115.714V23H117.514L117.748 23.828C118.132 23.504 118.534 23.264 118.954 23.108C119.374 22.94 119.86 22.856 120.412 22.856ZM120.07 30.344C120.73 30.344 121.246 30.086 121.618 29.57C121.99 29.054 122.176 28.37 122.176 27.518C122.176 26.666 121.99 25.982 121.618 25.466C121.246 24.95 120.73 24.692 120.07 24.692C119.326 24.692 118.768 24.944 118.396 25.448C118.024 25.952 117.838 26.642 117.838 27.518C117.838 28.394 118.024 29.084 118.396 29.588C118.768 30.092 119.326 30.344 120.07 30.344ZM128.049 32.18C127.281 32.18 126.705 31.964 126.321 31.532C125.937 31.088 125.745 30.518 125.745 29.822V18.5H127.977V28.904C127.977 29.384 128.001 29.726 128.049 29.93C128.109 30.122 128.205 30.242 128.337 30.29C128.481 30.326 128.721 30.344 129.057 30.344L128.859 32.18H128.049ZM134.202 32.18C133.254 32.18 132.432 31.97 131.736 31.55C131.04 31.13 130.506 30.566 130.134 29.858C129.762 29.15 129.576 28.37 129.576 27.518C129.576 26.666 129.762 25.88 130.134 25.16C130.506 24.44 131.04 23.87 131.736 23.45C132.432 23.03 133.254 22.82 134.202 22.82C135.15 22.82 135.972 23.03 136.668 23.45C137.364 23.87 137.898 24.44 138.27 25.16C138.642 25.88 138.828 26.666 138.828 27.518C138.828 28.37 138.642 29.15 138.27 29.858C137.898 30.566 137.364 31.13 136.668 31.55C135.972 31.97 135.15 32.18 134.202 32.18ZM134.202 30.344C134.934 30.344 135.504 30.086 135.912 29.57C136.332 29.054 136.542 28.37 136.542 27.518C136.542 26.654 136.332 25.964 135.912 25.448C135.504 24.92 134.934 24.656 134.202 24.656C133.47 24.656 132.894 24.92 132.474 25.448C132.066 25.964 131.862 26.654 131.862 27.518C131.862 28.37 132.066 29.054 132.474 29.57C132.894 30.086 133.47 30.344 134.202 30.344ZM140.111 23H142.199L142.253 23.954C142.517 23.654 142.853 23.39 143.261 23.162C143.681 22.934 144.119 22.82 144.575 22.82C144.719 22.82 144.851 22.832 144.971 22.856L144.809 25.052C144.581 24.992 144.323 24.962 144.035 24.962C143.663 24.962 143.321 25.052 143.009 25.232C142.697 25.4 142.475 25.61 142.343 25.862V32H140.111V23ZM149.962 32.18C148.918 32.18 148.024 31.97 147.28 31.55C146.548 31.118 145.996 30.548 145.624 29.84C145.264 29.12 145.084 28.322 145.084 27.446C145.084 26.606 145.258 25.838 145.606 25.142C145.954 24.446 146.458 23.894 147.118 23.486C147.778 23.066 148.564 22.856 149.476 22.856C150.316 22.856 151.024 23.03 151.6 23.378C152.188 23.726 152.626 24.194 152.914 24.782C153.214 25.37 153.364 26.03 153.364 26.762C153.364 27.122 153.316 27.53 153.22 27.986H147.406C147.526 28.778 147.838 29.372 148.342 29.768C148.846 30.152 149.452 30.344 150.16 30.344C151.132 30.344 152.032 30.098 152.86 29.606L152.968 31.496C152.584 31.7 152.134 31.868 151.618 32C151.114 32.12 150.562 32.18 149.962 32.18ZM151.096 26.474C151.096 26.006 150.964 25.592 150.7 25.232C150.436 24.872 150.028 24.692 149.476 24.692C148.924 24.692 148.48 24.854 148.144 25.178C147.808 25.502 147.58 25.934 147.46 26.474H151.096ZM154.402 29.552H156.742V32H154.402V29.552Z" fill="#8C8C8C"/>
</g>
<defs>
<filter id="filter0_d_146_13629" x="0" y="0" width="187" height="56" filterUnits="userSpaceOnUse" color-interpolation-filters="sRGB">
<feFlood flood-opacity="0" result="BackgroundImageFix"/>
<feColorMatrix in="SourceAlpha" type="matrix" values="0 0 0 0 0 0 0 0 0 0 0 0 0 0 0 0 0 0 127 0" result="hardAlpha"/>
<feOffset dy="2"/>
<feGaussianBlur stdDeviation="2"/>
<feComposite in2="hardAlpha" operator="out"/>
<feColorMatrix type="matrix" values="0 0 0 0 0 0 0 0 0 0 0 0 0 0 0 0 0 0 0.25 0"/>
<feBlend mode="normal" in2="BackgroundImageFix" result="effect1_dropShadow_146_13629"/>
<feBlend mode="normal" in="SourceGraphic" in2="effect1_dropShadow_146_13629" result="shape"/>
</filter>
</defs>
</svg>
