<svg width="48" height="48" viewBox="0 0 48 48" fill="none" xmlns="http://www.w3.org/2000/svg">
<rect width="48" height="48" fill="none"/>
<path d="M0 9.6C0 4.29807 4.29807 0 9.6 0H38.4C43.7019 0 48 4.29807 48 9.6V38.4C48 43.7019 43.7019 48 38.4 48H9.6C4.29807 48 0 43.7019 0 38.4V9.6Z" fill="#FCFBF9"/>
<line x1="26.3706" y1="12.6783" x2="35.7203" y2="22.028" stroke="#8C8C8C" stroke-width="5.66674" stroke-linecap="round"/>
<line x1="37.056" y1="11.3427" x2="31.7133" y2="16.6853" stroke="#8C8C8C" stroke-width="7.55565" stroke-linecap="round"/>
<path d="M28.5024 25.7889C26.6173 27.674 24.0978 29.2591 21.4145 30.9286C21.3559 30.9651 21.2973 31.0016 21.2385 31.0381C18.6805 32.6293 15.9675 34.3168 13.9351 36.3492C12.7394 37.5449 11.6954 38.1003 10.9665 38.294C10.5132 38.4145 10.2604 38.3845 10.1417 38.3518C10.1403 38.3342 10.1392 38.3143 10.1386 38.2918C10.1318 38.0614 10.1813 37.6918 10.3495 37.201C10.6836 36.2263 11.4144 34.9853 12.6008 33.7989C14.6385 31.7612 16.1942 29.2031 17.655 26.8011C17.6879 26.747 17.7207 26.693 17.7536 26.639C19.2809 24.1282 20.7288 21.7772 22.6097 19.8963C26.0874 16.4186 28.0516 15.3849 29.1931 15.2285C30.0906 15.1056 30.7018 15.4971 31.8017 16.597C32.9016 17.6969 33.2931 18.308 33.1701 19.2056C33.0137 20.347 31.98 22.3113 28.5024 25.7889ZM10.1593 38.4596C10.1592 38.4597 10.1584 38.4578 10.1572 38.4536C10.1587 38.4574 10.1593 38.4595 10.1593 38.4596Z" stroke="#8C8C8C" stroke-width="3"/>
</svg>
