<svg width="48" height="48" viewBox="0 0 48 48" fill="none" xmlns="http://www.w3.org/2000/svg">
<rect width="48" height="48" fill="white"/>
<path d="M0 9.6C0 4.29807 4.29807 0 9.6 0H38.4C43.7019 0 48 4.29807 48 9.6V38.4C48 43.7019 43.7019 48 38.4 48H9.6C4.29807 48 0 43.7019 0 38.4V9.6Z" fill="#FCFBF9"/>
<path d="M37.441 19.1096L37.5669 12.2692C37.5964 10.6679 36.3063 9.35385 34.7047 9.35385H13.2878C11.7068 9.35385 10.4251 10.6355 10.4251 12.2165V36.5493C10.4251 38.1304 11.7068 39.412 13.2878 39.412H34.7579C36.3389 39.412 37.6206 38.1304 37.6206 36.5493V24.8123" stroke="#8C8C8C" stroke-width="3" stroke-linecap="round"/>
<path d="M10.4251 20.8046C10.4251 22.2359 13.2491 22.9516 14.0034 22.9516C14.7578 22.9516 16.1505 22.9516 17.5818 21.5203C19.0131 22.9516 20.6281 22.9516 21.1602 22.9516C21.6922 22.9516 23.3072 22.9516 24.7385 21.5203C26.1698 22.9516 27.6012 22.9516 28.3169 22.9516C29.0325 22.9516 30.4639 22.9516 31.8952 21.5203" stroke="#8C8C8C" stroke-width="3" stroke-linejoin="round"/>
<path d="M26.8855 15.0792C29.7482 18.6576 32.6109 22.2359 35.4736 23.6673C36.9049 24.3829 38.4874 25.0986 39.7676 25.0986C41.9146 25.0986 42.6941 22.8618 41.9436 21.3609" stroke="#8C8C8C" stroke-width="3" stroke-linecap="round"/>
</svg>
