<svg width="187" height="56" viewBox="0 0 187 56" fill="none" xmlns="http://www.w3.org/2000/svg">
<g filter="url(#filter0_d_277_10552)">
<rect x="4" y="2" width="179" height="48" rx="11" fill="#6F64BB"/>
<path d="M37.348 32.18C36.58 32.18 36.004 31.964 35.62 31.532C35.236 31.088 35.044 30.518 35.044 29.822V18.5H37.276V28.904C37.276 29.384 37.3 29.726 37.348 29.93C37.408 30.122 37.504 30.242 37.636 30.29C37.78 30.326 38.02 30.344 38.356 30.344L38.158 32.18H37.348ZM43.7526 32.18C42.7086 32.18 41.8146 31.97 41.0706 31.55C40.3386 31.118 39.7866 30.548 39.4146 29.84C39.0546 29.12 38.8746 28.322 38.8746 27.446C38.8746 26.606 39.0486 25.838 39.3966 25.142C39.7446 24.446 40.2486 23.894 40.9086 23.486C41.5686 23.066 42.3546 22.856 43.2666 22.856C44.1066 22.856 44.8146 23.03 45.3906 23.378C45.9786 23.726 46.4166 24.194 46.7046 24.782C47.0046 25.37 47.1546 26.03 47.1546 26.762C47.1546 27.122 47.1066 27.53 47.0106 27.986H41.1966C41.3166 28.778 41.6286 29.372 42.1326 29.768C42.6366 30.152 43.2426 30.344 43.9506 30.344C44.9226 30.344 45.8226 30.098 46.6506 29.606L46.7586 31.496C46.3746 31.7 45.9246 31.868 45.4086 32C44.9046 32.12 44.3526 32.18 43.7526 32.18ZM44.8866 26.474C44.8866 26.006 44.7546 25.592 44.4906 25.232C44.2266 24.872 43.8186 24.692 43.2666 24.692C42.7146 24.692 42.2706 24.854 41.9346 25.178C41.5986 25.502 41.3706 25.934 41.2506 26.474H44.8866ZM51.3423 32.18C50.5503 32.18 49.9503 31.952 49.5423 31.496C49.1343 31.028 48.9303 30.47 48.9303 29.822V24.836H47.6523L47.8503 23H48.9303V21.02L51.1623 20.786V23H53.1423V24.836H51.1623V28.904C51.1623 29.384 51.1863 29.72 51.2343 29.912C51.2943 30.092 51.4083 30.212 51.5763 30.272C51.7563 30.32 52.0743 30.344 52.5303 30.344H53.1423L52.9443 32.18H51.3423ZM54.2898 24.008L55.0638 21.848H54.1458V19.4H56.4858V21.632L55.3338 24.008H54.2898ZM60.1098 32.18C59.5338 32.18 59.0058 32.126 58.5258 32.018C58.0578 31.91 57.5718 31.742 57.0678 31.514L57.2658 29.606C57.7698 29.906 58.2378 30.134 58.6698 30.29C59.1138 30.434 59.5698 30.506 60.0378 30.506C60.9498 30.506 61.4058 30.206 61.4058 29.606C61.4058 29.282 61.2858 29.036 61.0458 28.868C60.8058 28.688 60.3738 28.478 59.7498 28.238C58.8618 27.914 58.2078 27.548 57.7878 27.14C57.3678 26.72 57.1578 26.156 57.1578 25.448C57.1578 24.668 57.4578 24.038 58.0578 23.558C58.6578 23.066 59.4678 22.82 60.4878 22.82C61.5078 22.82 62.4378 23.054 63.2778 23.522L63.0798 25.43C62.6238 25.118 62.1918 24.878 61.7838 24.71C61.3878 24.542 60.9678 24.458 60.5238 24.458C60.1398 24.458 59.8398 24.536 59.6238 24.692C59.4198 24.848 59.3178 25.07 59.3178 25.358C59.3178 25.586 59.3778 25.772 59.4978 25.916C59.6298 26.06 59.8098 26.192 60.0378 26.312C60.2658 26.42 60.6438 26.576 61.1718 26.78C62.0478 27.116 62.6778 27.488 63.0618 27.896C63.4458 28.292 63.6378 28.826 63.6378 29.498C63.6378 30.35 63.3318 31.01 62.7198 31.478C62.1078 31.946 61.2378 32.18 60.1098 32.18ZM72.2321 36.536C70.9601 36.536 69.9461 36.302 69.1901 35.834C68.4341 35.378 68.0561 34.754 68.0561 33.962C68.0561 33.098 68.5421 32.39 69.5141 31.838C68.9861 31.514 68.7221 31.088 68.7221 30.56C68.7221 30.284 68.8001 30.038 68.9561 29.822C69.1241 29.606 69.3461 29.432 69.6221 29.3C69.1661 28.976 68.8181 28.562 68.5781 28.058C68.3501 27.554 68.2361 27.002 68.2361 26.402C68.2361 25.742 68.3801 25.142 68.6681 24.602C68.9561 24.05 69.3761 23.618 69.9281 23.306C70.4801 22.982 71.1341 22.82 71.8901 22.82C72.6821 22.82 73.3661 23.012 73.9421 23.396C74.1461 23.288 74.4161 23.198 74.7521 23.126C75.1001 23.042 75.4721 23 75.8681 23H76.4441L76.3001 24.404H75.4901C75.2861 24.404 75.1181 24.41 74.9861 24.422C75.3461 24.974 75.5261 25.634 75.5261 26.402C75.5261 27.062 75.3821 27.668 75.0941 28.22C74.8181 28.76 74.4041 29.192 73.8521 29.516C73.3001 29.828 72.6461 29.984 71.8901 29.984C71.6141 29.984 71.2961 29.942 70.9361 29.858C70.8041 29.918 70.7381 30.014 70.7381 30.146C70.7381 30.302 70.8281 30.428 71.0081 30.524C71.2001 30.608 71.5181 30.68 71.9621 30.74L73.5101 30.938C75.5741 31.214 76.6061 32.084 76.6061 33.548C76.6061 34.46 76.2161 35.186 75.4361 35.726C74.6681 36.266 73.6001 36.536 72.2321 36.536ZM71.8901 28.328C72.4061 28.328 72.8021 28.16 73.0781 27.824C73.3661 27.476 73.5101 27.002 73.5101 26.402C73.5101 25.802 73.3661 25.334 73.0781 24.998C72.8021 24.65 72.4061 24.476 71.8901 24.476C71.3621 24.476 70.9541 24.65 70.6661 24.998C70.3901 25.334 70.2521 25.802 70.2521 26.402C70.2521 27.002 70.3901 27.476 70.6661 27.824C70.9541 28.16 71.3621 28.328 71.8901 28.328ZM72.3221 34.844C73.8581 34.844 74.6261 34.466 74.6261 33.71C74.6261 33.374 74.4941 33.122 74.2301 32.954C73.9661 32.798 73.5281 32.672 72.9161 32.576L70.9361 32.288C70.2521 32.564 69.9101 32.984 69.9101 33.548C69.9101 33.98 70.1201 34.304 70.5401 34.52C70.9601 34.736 71.5541 34.844 72.3221 34.844ZM81.6834 32.18C80.6394 32.18 79.7454 31.97 79.0014 31.55C78.2694 31.118 77.7174 30.548 77.3454 29.84C76.9854 29.12 76.8054 28.322 76.8054 27.446C76.8054 26.606 76.9794 25.838 77.3274 25.142C77.6754 24.446 78.1794 23.894 78.8394 23.486C79.4994 23.066 80.2854 22.856 81.1974 22.856C82.0374 22.856 82.7454 23.03 83.3214 23.378C83.9094 23.726 84.3474 24.194 84.6354 24.782C84.9354 25.37 85.0854 26.03 85.0854 26.762C85.0854 27.122 85.0374 27.53 84.9414 27.986H79.1274C79.2474 28.778 79.5594 29.372 80.0634 29.768C80.5674 30.152 81.1734 30.344 81.8814 30.344C82.8534 30.344 83.7534 30.098 84.5814 29.606L84.6894 31.496C84.3054 31.7 83.8554 31.868 83.3394 32C82.8354 32.12 82.2834 32.18 81.6834 32.18ZM82.8174 26.474C82.8174 26.006 82.6854 25.592 82.4214 25.232C82.1574 24.872 81.7494 24.692 81.1974 24.692C80.6454 24.692 80.2014 24.854 79.8654 25.178C79.5294 25.502 79.3014 25.934 79.1814 26.474H82.8174ZM89.2731 32.18C88.4811 32.18 87.8811 31.952 87.4731 31.496C87.0651 31.028 86.8611 30.47 86.8611 29.822V24.836H85.5831L85.7811 23H86.8611V21.02L89.0931 20.786V23H91.0731V24.836H89.0931V28.904C89.0931 29.384 89.1171 29.72 89.1651 29.912C89.2251 30.092 89.3391 30.212 89.5071 30.272C89.6871 30.32 90.0051 30.344 90.4611 30.344H91.0731L90.8751 32.18H89.2731ZM98.5855 32.18C98.0095 32.18 97.4815 32.126 97.0015 32.018C96.5335 31.91 96.0475 31.742 95.5435 31.514L95.7415 29.606C96.2455 29.906 96.7135 30.134 97.1455 30.29C97.5895 30.434 98.0455 30.506 98.5135 30.506C99.4255 30.506 99.8815 30.206 99.8815 29.606C99.8815 29.282 99.7615 29.036 99.5215 28.868C99.2815 28.688 98.8495 28.478 98.2255 28.238C97.3375 27.914 96.6835 27.548 96.2635 27.14C95.8435 26.72 95.6335 26.156 95.6335 25.448C95.6335 24.668 95.9335 24.038 96.5335 23.558C97.1335 23.066 97.9435 22.82 98.9635 22.82C99.9835 22.82 100.914 23.054 101.754 23.522L101.556 25.43C101.1 25.118 100.668 24.878 100.26 24.71C99.8635 24.542 99.4435 24.458 98.9995 24.458C98.6155 24.458 98.3155 24.536 98.0995 24.692C97.8955 24.848 97.7935 25.07 97.7935 25.358C97.7935 25.586 97.8535 25.772 97.9735 25.916C98.1055 26.06 98.2855 26.192 98.5135 26.312C98.7415 26.42 99.1195 26.576 99.6475 26.78C100.524 27.116 101.154 27.488 101.538 27.896C101.922 28.292 102.114 28.826 102.114 29.498C102.114 30.35 101.808 31.01 101.196 31.478C100.584 31.946 99.7135 32.18 98.5855 32.18ZM106.305 32.18C105.513 32.18 104.913 31.952 104.505 31.496C104.097 31.028 103.893 30.47 103.893 29.822V24.836H102.615L102.813 23H103.893V21.02L106.125 20.786V23H108.105V24.836H106.125V28.904C106.125 29.384 106.149 29.72 106.197 29.912C106.257 30.092 106.371 30.212 106.539 30.272C106.719 30.32 107.037 30.344 107.493 30.344H108.105L107.907 32.18H106.305ZM111.232 32.18C110.488 32.18 109.864 31.94 109.36 31.46C108.868 30.968 108.622 30.308 108.622 29.48C108.622 28.7 108.904 28.076 109.468 27.608C110.032 27.128 110.698 26.792 111.466 26.6C112.234 26.396 112.972 26.282 113.68 26.258C113.656 25.73 113.518 25.352 113.266 25.124C113.026 24.896 112.624 24.782 112.06 24.782C111.664 24.782 111.274 24.836 110.89 24.944C110.518 25.052 110.086 25.226 109.594 25.466L109.396 23.648C110.488 23.12 111.58 22.856 112.672 22.856C113.728 22.856 114.532 23.144 115.084 23.72C115.648 24.296 115.93 25.214 115.93 26.474V28.904C115.93 29.36 115.948 29.69 115.984 29.894C116.032 30.086 116.104 30.212 116.2 30.272C116.308 30.32 116.482 30.344 116.722 30.344H117.01L116.812 32.18H116.002C115.51 32.18 115.096 32.09 114.76 31.91C114.424 31.718 114.166 31.46 113.986 31.136C113.698 31.46 113.302 31.718 112.798 31.91C112.306 32.09 111.784 32.18 111.232 32.18ZM112.168 30.47C112.396 30.47 112.654 30.416 112.942 30.308C113.23 30.188 113.482 30.026 113.698 29.822V27.77C112.978 27.806 112.342 27.962 111.79 28.238C111.238 28.514 110.962 28.898 110.962 29.39C110.962 29.762 111.058 30.038 111.25 30.218C111.442 30.386 111.748 30.47 112.168 30.47ZM117.983 23H120.071L120.125 23.954C120.389 23.654 120.725 23.39 121.133 23.162C121.553 22.934 121.991 22.82 122.447 22.82C122.591 22.82 122.723 22.832 122.843 22.856L122.681 25.052C122.453 24.992 122.195 24.962 121.907 24.962C121.535 24.962 121.193 25.052 120.881 25.232C120.569 25.4 120.347 25.61 120.215 25.862V32H117.983V23ZM126.589 32.18C125.797 32.18 125.197 31.952 124.789 31.496C124.381 31.028 124.177 30.47 124.177 29.822V24.836H122.899L123.097 23H124.177V21.02L126.409 20.786V23H128.389V24.836H126.409V28.904C126.409 29.384 126.433 29.72 126.481 29.912C126.541 30.092 126.655 30.212 126.823 30.272C127.003 30.32 127.321 30.344 127.777 30.344H128.389L128.191 32.18H126.589ZM133.91 32.18C132.866 32.18 131.972 31.97 131.228 31.55C130.496 31.118 129.944 30.548 129.572 29.84C129.212 29.12 129.032 28.322 129.032 27.446C129.032 26.606 129.206 25.838 129.554 25.142C129.902 24.446 130.406 23.894 131.066 23.486C131.726 23.066 132.512 22.856 133.424 22.856C134.264 22.856 134.972 23.03 135.548 23.378C136.136 23.726 136.574 24.194 136.862 24.782C137.162 25.37 137.312 26.03 137.312 26.762C137.312 27.122 137.264 27.53 137.168 27.986H131.354C131.474 28.778 131.786 29.372 132.29 29.768C132.794 30.152 133.4 30.344 134.108 30.344C135.08 30.344 135.98 30.098 136.808 29.606L136.916 31.496C136.532 31.7 136.082 31.868 135.566 32C135.062 32.12 134.51 32.18 133.91 32.18ZM135.044 26.474C135.044 26.006 134.912 25.592 134.648 25.232C134.384 24.872 133.976 24.692 133.424 24.692C132.872 24.692 132.428 24.854 132.092 25.178C131.756 25.502 131.528 25.934 131.408 26.474H135.044ZM146.774 18.5V32H144.668L144.632 31.424C144.284 31.676 143.918 31.868 143.534 32C143.162 32.12 142.718 32.18 142.202 32.18C141.326 32.18 140.57 31.97 139.934 31.55C139.31 31.13 138.836 30.566 138.512 29.858C138.188 29.15 138.026 28.37 138.026 27.518C138.026 26.666 138.188 25.886 138.512 25.178C138.836 24.47 139.31 23.906 139.934 23.486C140.57 23.066 141.326 22.856 142.202 22.856C143.078 22.856 143.858 23.096 144.542 23.576V18.5H146.774ZM142.526 30.344C143.234 30.344 143.762 30.092 144.11 29.588C144.47 29.084 144.65 28.394 144.65 27.518C144.65 26.642 144.47 25.952 144.11 25.448C143.762 24.944 143.234 24.692 142.526 24.692C141.83 24.692 141.284 24.95 140.888 25.466C140.504 25.982 140.312 26.666 140.312 27.518C140.312 28.37 140.504 29.054 140.888 29.57C141.284 30.086 141.83 30.344 142.526 30.344ZM148.867 27.752L148.669 19.4H150.901L150.703 27.752V28.274H148.867V27.752ZM148.615 29.552H150.955V32H148.615V29.552Z" fill="#FCFBF9"/>
</g>
<defs>
<filter id="filter0_d_277_10552" x="0" y="0" width="187" height="56" filterUnits="userSpaceOnUse" color-interpolation-filters="sRGB">
<feFlood flood-opacity="0" result="BackgroundImageFix"/>
<feColorMatrix in="SourceAlpha" type="matrix" values="0 0 0 0 0 0 0 0 0 0 0 0 0 0 0 0 0 0 127 0" result="hardAlpha"/>
<feOffset dy="2"/>
<feGaussianBlur stdDeviation="2"/>
<feComposite in2="hardAlpha" operator="out"/>
<feColorMatrix type="matrix" values="0 0 0 0 0 0 0 0 0 0 0 0 0 0 0 0 0 0 0.25 0"/>
<feBlend mode="normal" in2="BackgroundImageFix" result="effect1_dropShadow_277_10552"/>
<feBlend mode="normal" in="SourceGraphic" in2="effect1_dropShadow_277_10552" result="shape"/>
</filter>
</defs>
</svg>
