<svg width="48" height="48" viewBox="0 0 48 48" fill="none" xmlns="http://www.w3.org/2000/svg">
<rect width="48" height="48" fill="none"/>
<path d="M0 9.6C0 4.29807 4.29807 0 9.6 0H38.4C43.7019 0 48 4.29807 48 9.6V38.4C48 43.7019 43.7019 48 38.4 48H9.6C4.29807 48 0 43.7019 0 38.4V9.6Z" fill="#FCFBF9"/>
<path d="M11.7391 26.5652V36.8478C11.7391 38.7174 12.9544 39.6521 14.3432 39.6521C15.732 39.6521 31.7034 39.6521 33.4394 39.6521C34.8468 39.6521 36.0435 38.2016 36.0435 36.8478C36.0435 35.494 36.0435 29.6197 36.0435 26.5652" stroke="#8C8C8C" stroke-width="3.73913" stroke-linecap="round"/>
<path d="M39.7826 21.8913L25.9535 8.06216C24.8145 6.92323 22.968 6.92324 21.8291 8.06216L7.99996 21.8913" stroke="#8C8C8C" stroke-width="3.73913" stroke-linecap="round" stroke-linejoin="round"/>
</svg>
