<svg width="571" height="345" viewBox="0 0 571 345" fill="none" xmlns="http://www.w3.org/2000/svg">
<g filter="url(#filter0_d_115_17279)">
<path d="M12.7187 129.106V0.647635H40.6998V61.0614L56.1742 46.4349H94.7542L116.588 68.4806V129.954L94.7542 152H35.4003L12.7187 129.106ZM80.5517 128.258L88.6068 119.991V78.4436L80.5517 70.1765H59.7778L40.6998 89.2545V119.991L48.755 128.258H80.5517ZM135.583 24.3892V10.8226L145.334 1.0716H160.173L169.924 10.8226V24.3892L160.173 34.1402H145.334L135.583 24.3892ZM138.763 46.4349H166.744V152H138.763V46.4349ZM257.78 152L234.463 119.779L211.145 152H179.56L218.988 98.3695L180.62 46.4349H212.205L234.463 77.3837L256.72 46.4349H288.305L250.149 98.7935L289.365 152H257.78ZM293.772 130.378V68.4806L315.606 46.4349H375.171L397.217 68.4806V108.544H321.753V122.111L328.536 129.106H363.089L369.448 122.535V117.024H397.005V130.802L376.019 152H315.182L293.772 130.378ZM369.236 89.0425V76.7478L362.029 69.3285H328.96L321.753 76.7478V89.0425H369.236ZM417.357 0.647635H445.338V152H417.357V0.647635ZM463.296 131.226V118.295H490.853V124.231L495.517 129.106H529.857L534.521 124.231V115.116L529.645 110.028H484.07L464.144 89.8904V66.7848L484.282 46.4349H539.396L559.958 67.2088V80.1394H532.401V74.204L527.738 69.3285H496.365L491.701 74.204V82.4712L496.577 87.5587H542.152L562.078 107.697V131.65L541.94 152H483.858L463.296 131.226Z" fill="#6F64BB"/>
<path d="M100.492 237.523C97.7603 237.523 95.3579 237.216 93.2852 236.604C91.2596 235.945 89.7051 235.238 88.6217 234.484L89.3989 228.337C90.3411 229.185 91.7778 229.986 93.7092 230.739C95.6876 231.493 97.8545 231.87 100.21 231.87C102.424 231.87 104.12 231.493 105.297 230.739C106.522 229.986 107.134 228.926 107.134 227.56C107.134 225.958 106.475 224.757 105.156 223.956C103.837 223.108 102.188 222.401 100.21 221.836C98.0429 221.271 96.2058 220.682 94.6984 220.07C93.2381 219.41 91.9662 218.421 90.8828 217.102C89.8465 215.783 89.3283 214.04 89.3283 211.873C89.3283 208.906 90.3882 206.432 92.508 204.454C94.6277 202.476 97.9016 201.486 102.33 201.486C104.355 201.486 106.075 201.698 107.488 202.122C108.901 202.499 110.314 203.041 111.727 203.747L110.95 209.541C109.82 208.599 108.571 207.869 107.205 207.351C105.839 206.786 104.261 206.503 102.471 206.503C100.398 206.503 98.7495 206.904 97.5248 207.704C96.3471 208.458 95.7583 209.612 95.7583 211.167C95.7583 212.203 96.0409 213.051 96.6062 213.71C97.1715 214.323 97.9723 214.841 99.0086 215.265C100.045 215.689 101.647 216.231 103.813 216.89C106.499 217.691 108.807 218.821 110.738 220.282C112.717 221.742 113.706 224.05 113.706 227.206C113.706 230.033 112.693 232.459 110.667 234.484C108.689 236.51 105.297 237.523 100.492 237.523ZM118.868 187.354H125.228V194.42H118.868V187.354ZM118.868 202.193H125.228V236.816H118.868V202.193ZM173.199 201.486C182.055 201.486 186.483 206.456 186.483 216.395V236.816H180.124V216.466C180.124 213.216 179.488 210.86 178.216 209.4C176.944 207.893 174.872 207.139 171.998 207.139C165.874 207.139 162.812 210.342 162.812 216.749V236.816H156.453V217.738C156.453 213.781 155.746 211.025 154.333 209.471C152.967 207.916 150.965 207.139 148.327 207.139C146.255 207.139 144.417 207.516 142.816 208.27C141.214 209.023 139.989 210.154 139.141 211.661V236.816H132.782V202.193H137.728L138.435 205.867C140.178 204.313 141.921 203.206 143.664 202.546C145.454 201.84 147.362 201.486 149.387 201.486C154.663 201.486 158.384 203.795 160.551 208.411C162.954 203.795 167.17 201.486 173.199 201.486ZM211.281 201.486C214.343 201.486 217.005 202.287 219.266 203.889C221.574 205.443 223.341 207.587 224.565 210.319C225.79 213.051 226.402 216.113 226.402 219.504C226.402 222.943 225.814 226.029 224.636 228.761C223.505 231.446 221.81 233.589 219.549 235.191C217.287 236.745 214.532 237.523 211.281 237.523C208.879 237.523 206.689 237.099 204.71 236.251C202.732 235.403 201.177 234.178 200.047 232.576V253.916H193.687V202.193H198.633L199.34 206.998C202.261 203.323 206.241 201.486 211.281 201.486ZM210.08 231.87C213.142 231.87 215.545 230.786 217.287 228.619C219.03 226.405 219.902 223.367 219.902 219.504C219.902 215.642 219.03 212.627 217.287 210.46C215.545 208.246 213.142 207.139 210.08 207.139C207.065 207.139 204.569 208.199 202.59 210.319C200.659 212.438 199.693 215.5 199.693 219.504C199.693 223.65 200.659 226.759 202.59 228.831C204.522 230.857 207.018 231.87 210.08 231.87ZM240.862 237.523C237.753 237.523 235.469 236.722 234.008 235.12C232.595 233.519 231.889 231.54 231.889 229.185V183.821H238.248V225.51C238.248 227.583 238.366 229.091 238.601 230.033C238.884 230.975 239.402 231.611 240.156 231.94C240.909 232.27 242.134 232.435 243.83 232.435L242.911 237.523H240.862ZM257.714 235.261L243.299 202.193H250.365L261.176 227.913L270.927 202.193H277.993L256.795 253.916H249.729L257.714 235.261ZM312.439 237.523C308.671 237.523 305.42 236.745 302.688 235.191C300.003 233.636 297.977 231.517 296.611 228.831C295.245 226.099 294.562 223.061 294.562 219.716C294.562 214.252 296.093 209.848 299.155 206.503C302.264 203.159 306.857 201.486 312.934 201.486C316.514 201.486 319.67 202.169 322.402 203.535L321.413 209.118C318.539 207.799 315.666 207.139 312.792 207.139C309.024 207.139 306.127 208.222 304.101 210.389C302.076 212.509 301.063 215.524 301.063 219.434C301.063 223.344 302.029 226.405 303.96 228.619C305.938 230.833 308.835 231.94 312.651 231.94C315.713 231.94 318.657 231.234 321.484 229.821L322.331 234.908C321.295 235.615 319.858 236.227 318.021 236.745C316.231 237.263 314.37 237.523 312.439 237.523ZM327.567 202.193H332.796L333.573 207.916C335.363 205.702 337.059 204.077 338.661 203.041C340.31 202.004 342.029 201.486 343.819 201.486C344.384 201.486 344.926 201.557 345.444 201.698L344.808 208.694C344.196 208.552 343.489 208.482 342.688 208.482C340.946 208.482 339.297 208.882 337.742 209.683C336.188 210.436 335.057 211.332 334.351 212.368V236.816H327.567V202.193ZM364.572 237.523C360.616 237.523 357.224 236.722 354.398 235.12C351.618 233.471 349.498 231.257 348.038 228.478C346.578 225.699 345.848 222.613 345.848 219.222C345.848 215.971 346.507 213.004 347.826 210.319C349.192 207.587 351.147 205.443 353.691 203.889C356.282 202.287 359.32 201.486 362.806 201.486C367.234 201.486 370.814 202.782 373.546 205.373C376.325 207.963 377.715 211.543 377.715 216.113C377.715 217.29 377.621 218.421 377.432 219.504H352.348C352.772 223.98 354.138 227.159 356.447 229.043C358.755 230.928 361.723 231.87 365.35 231.87C368.977 231.87 372.298 231.187 375.313 229.821L376.161 234.838C372.157 236.628 368.294 237.523 364.572 237.523ZM371.144 215.124C371.144 212.627 370.437 210.672 369.024 209.259C367.611 207.846 365.491 207.139 362.665 207.139C359.932 207.139 357.789 207.822 356.235 209.188C354.68 210.507 353.573 212.486 352.914 215.124H371.144ZM391.121 237.523C387.917 237.523 385.326 236.58 383.348 234.696C381.417 232.812 380.451 230.41 380.451 227.489C380.451 223.108 382.524 219.975 386.669 218.091C390.814 216.207 395.643 215.218 401.154 215.124C401.154 212.015 400.542 209.918 399.317 208.835C398.139 207.704 396.232 207.139 393.594 207.139C392.133 207.139 390.673 207.375 389.213 207.846C387.752 208.27 386.174 209.07 384.479 210.248L383.56 205.09C384.973 204.006 386.716 203.135 388.789 202.476C390.861 201.816 393.028 201.486 395.289 201.486C398.257 201.486 400.612 202.004 402.355 203.041C404.145 204.077 405.441 205.797 406.242 208.199C407.09 210.601 407.513 213.899 407.513 218.091V225.157C407.513 227.041 407.584 228.478 407.725 229.467C407.914 230.41 408.291 231.14 408.856 231.658C409.421 232.176 410.293 232.435 411.47 232.435H412.106L411.117 237.523H410.623C408.644 237.523 407.09 237.334 405.959 236.957C404.828 236.58 403.957 236.039 403.345 235.332C402.779 234.626 402.238 233.66 401.719 232.435C398.799 235.827 395.266 237.523 391.121 237.523ZM392.322 232.435C394.018 232.435 395.643 232.011 397.197 231.163C398.799 230.315 400.118 229.185 401.154 227.772V219.504C396.067 219.693 392.416 220.376 390.202 221.554C388.035 222.684 386.952 224.545 386.952 227.136C386.952 228.926 387.423 230.268 388.365 231.163C389.354 232.011 390.673 232.435 392.322 232.435ZM427.206 237.523C424.145 237.523 421.86 236.722 420.352 235.12C418.892 233.519 418.162 231.564 418.162 229.255V207.139H412.227L412.792 202.193H418.162V193.643L424.521 193.007V202.193H433.636V207.139H424.521V225.369C424.521 227.772 424.663 229.42 424.945 230.315C425.228 231.21 425.817 231.799 426.712 232.082C427.654 232.317 429.35 232.435 431.799 232.435H433.424L432.93 237.523H427.206ZM454.34 237.523C450.383 237.523 446.992 236.722 444.165 235.12C441.386 233.471 439.266 231.257 437.806 228.478C436.346 225.699 435.615 222.613 435.615 219.222C435.615 215.971 436.275 213.004 437.594 210.319C438.96 207.587 440.915 205.443 443.459 203.889C446.05 202.287 449.088 201.486 452.574 201.486C457.002 201.486 460.582 202.782 463.314 205.373C466.093 207.963 467.483 211.543 467.483 216.113C467.483 217.29 467.389 218.421 467.2 219.504H442.116C442.54 223.98 443.906 227.159 446.214 229.043C448.523 230.928 451.49 231.87 455.117 231.87C458.745 231.87 462.066 231.187 465.08 229.821L465.928 234.838C461.924 236.628 458.062 237.523 454.34 237.523ZM460.912 215.124C460.912 212.627 460.205 210.672 458.792 209.259C457.379 207.846 455.259 207.139 452.432 207.139C449.7 207.139 447.557 207.822 446.002 209.188C444.448 210.507 443.341 212.486 442.681 215.124H460.912ZM187.547 286.486C190.609 286.486 193.27 287.287 195.532 288.889C197.84 290.443 199.606 292.587 200.831 295.319C202.056 298.051 202.668 301.113 202.668 304.504C202.668 307.943 202.079 311.029 200.902 313.761C199.771 316.446 198.075 318.589 195.814 320.191C193.553 321.745 190.797 322.523 187.547 322.523C185.145 322.523 182.954 322.099 180.976 321.251C178.997 320.403 177.443 319.178 176.312 317.576V338.916H169.953V287.193H174.899L175.606 291.998C178.526 288.323 182.507 286.486 187.547 286.486ZM186.346 316.87C189.408 316.87 191.81 315.786 193.553 313.619C195.296 311.405 196.167 308.367 196.167 304.504C196.167 300.642 195.296 297.627 193.553 295.46C191.81 293.246 189.408 292.139 186.346 292.139C183.331 292.139 180.834 293.199 178.856 295.319C176.925 297.438 175.959 300.5 175.959 304.504C175.959 308.65 176.925 311.759 178.856 313.831C180.787 315.857 183.284 316.87 186.346 316.87ZM208.225 272.354H214.584V279.42H208.225V272.354ZM208.225 287.193H214.584V321.816H208.225V287.193ZM230.688 304.575L218.888 287.193H226.025L234.716 300.901L242.701 287.193H250.12L238.744 304.01L250.544 321.816H243.407L234.645 308.179L225.742 321.816H218.606L230.688 304.575ZM269.908 322.523C265.951 322.523 262.56 321.722 259.733 320.12C256.954 318.471 254.834 316.257 253.374 313.478C251.914 310.699 251.183 307.613 251.183 304.222C251.183 300.971 251.843 298.004 253.162 295.319C254.528 292.587 256.483 290.443 259.027 288.889C261.618 287.287 264.656 286.486 268.142 286.486C272.57 286.486 276.15 287.782 278.882 290.373C281.661 292.963 283.051 296.543 283.051 301.113C283.051 302.29 282.957 303.421 282.768 304.504H257.684C258.108 308.98 259.474 312.159 261.782 314.043C264.091 315.928 267.058 316.87 270.685 316.87C274.313 316.87 277.634 316.187 280.648 314.821L281.496 319.838C277.492 321.628 273.63 322.523 269.908 322.523ZM276.48 300.124C276.48 297.627 275.773 295.672 274.36 294.259C272.947 292.846 270.827 292.139 268 292.139C265.268 292.139 263.125 292.822 261.57 294.188C260.016 295.507 258.909 297.486 258.249 300.124H276.48ZM297.304 322.523C294.195 322.523 291.911 321.722 290.45 320.12C289.037 318.519 288.33 316.54 288.33 314.185V268.821H294.69V310.51C294.69 312.583 294.808 314.091 295.043 315.033C295.326 315.975 295.844 316.611 296.598 316.94C297.351 317.27 298.576 317.435 300.272 317.435L299.353 322.523H297.304ZM326.906 322.523C323.703 322.523 321.112 321.58 319.134 319.696C317.202 317.812 316.236 315.41 316.236 312.489C316.236 308.108 318.309 304.975 322.454 303.091C326.6 301.207 331.428 300.218 336.94 300.124C336.94 297.015 336.327 294.918 335.103 293.835C333.925 292.704 332.017 292.139 329.379 292.139C327.919 292.139 326.459 292.375 324.998 292.846C323.538 293.27 321.96 294.07 320.264 295.248L319.345 290.09C320.759 289.006 322.502 288.135 324.574 287.476C326.647 286.816 328.814 286.486 331.075 286.486C334.043 286.486 336.398 287.004 338.141 288.041C339.931 289.077 341.226 290.797 342.027 293.199C342.875 295.601 343.299 298.899 343.299 303.091V310.157C343.299 312.041 343.37 313.478 343.511 314.467C343.699 315.41 344.076 316.14 344.642 316.658C345.207 317.176 346.078 317.435 347.256 317.435H347.892L346.903 322.523H346.408C344.43 322.523 342.875 322.334 341.745 321.957C340.614 321.58 339.742 321.039 339.13 320.332C338.565 319.626 338.023 318.66 337.505 317.435C334.584 320.827 331.051 322.523 326.906 322.523ZM328.107 317.435C329.803 317.435 331.428 317.011 332.983 316.163C334.584 315.315 335.903 314.185 336.94 312.772V304.504C331.852 304.693 328.201 305.376 325.987 306.554C323.821 307.684 322.737 309.545 322.737 312.136C322.737 313.926 323.208 315.268 324.15 316.163C325.14 317.011 326.459 317.435 328.107 317.435ZM351.741 287.193H356.969L357.747 292.916C359.537 290.702 361.232 289.077 362.834 288.041C364.483 287.004 366.202 286.486 367.992 286.486C368.558 286.486 369.099 286.557 369.617 286.698L368.981 293.694C368.369 293.552 367.662 293.482 366.862 293.482C365.119 293.482 363.47 293.882 361.916 294.683C360.361 295.436 359.23 296.332 358.524 297.368V321.816H351.741V287.193ZM384.979 322.523C381.917 322.523 379.633 321.722 378.125 320.12C376.665 318.519 375.935 316.564 375.935 314.255V292.139H369.999L370.565 287.193H375.935V278.643L382.294 278.007V287.193H391.409V292.139H382.294V310.369C382.294 312.772 382.435 314.42 382.718 315.315C383.001 316.21 383.59 316.799 384.485 317.082C385.427 317.317 387.123 317.435 389.572 317.435H391.197L390.703 322.523H384.979ZM395.007 314.326H402.638V321.816H395.007V314.326Z" fill="#6F64BB"/>
</g>
<defs>
<filter id="filter0_d_115_17279" x="9.77461" y="0.647644" width="555.248" height="344.156" filterUnits="userSpaceOnUse" color-interpolation-filters="sRGB">
<feFlood flood-opacity="0" result="BackgroundImageFix"/>
<feColorMatrix in="SourceAlpha" type="matrix" values="0 0 0 0 0 0 0 0 0 0 0 0 0 0 0 0 0 0 127 0" result="hardAlpha"/>
<feOffset dy="2.94414"/>
<feGaussianBlur stdDeviation="1.47207"/>
<feComposite in2="hardAlpha" operator="out"/>
<feColorMatrix type="matrix" values="0 0 0 0 0 0 0 0 0 0 0 0 0 0 0 0 0 0 0.25 0"/>
<feBlend mode="normal" in2="BackgroundImageFix" result="effect1_dropShadow_115_17279"/>
<feBlend mode="normal" in="SourceGraphic" in2="effect1_dropShadow_115_17279" result="shape"/>
</filter>
</defs>
</svg>
