<svg width="913" height="468" viewBox="0 0 913 468" fill="none" xmlns="http://www.w3.org/2000/svg">
<g filter="url(#filter0_d_115_17279)">
<path d="M17.28 174.896V0.367987H55.296V82.448L76.32 62.576H128.736L158.4 92.528V176.048L128.736 206H48.096L17.28 174.896ZM109.44 173.744L120.384 162.512V106.064L109.44 94.832H81.216L55.296 120.752V162.512L66.24 173.744H109.44ZM184.207 32.624V14.192L197.455 0.943996H217.615L230.863 14.192V32.624L217.615 45.872H197.455L184.207 32.624ZM188.527 62.576H226.543V206H188.527V62.576ZM350.228 206L318.548 162.224L286.868 206H243.956L297.524 133.136L245.396 62.576H288.308L318.548 104.624L348.788 62.576H391.7L339.86 133.712L393.14 206H350.228ZM399.128 176.624V92.528L428.792 62.576H509.72L539.672 92.528V146.96H437.144V165.392L446.36 174.896H493.304L501.944 165.968V158.48H539.384V177.2L510.872 206H428.216L399.128 176.624ZM501.656 120.464V103.76L491.864 93.68H446.936L437.144 103.76V120.464H501.656ZM567.034 0.367987H605.05V206H567.034V0.367987ZM629.449 177.776V160.208H666.889V168.272L673.225 174.896H719.881L726.217 168.272V155.888L719.593 148.976H657.673L630.601 121.616V90.224L657.961 62.576H732.841L760.777 90.8V108.368H723.337V100.304L717.001 93.68H674.377L668.041 100.304V111.536L674.665 118.448H736.585L763.657 145.808V178.352L736.297 206H657.385L629.449 177.776Z" fill="#6F64BB"/>
<path d="M288.81 321.96C285.098 321.96 281.834 321.544 279.018 320.712C276.266 319.816 274.154 318.856 272.682 317.832L273.738 309.48C275.018 310.632 276.97 311.72 279.594 312.744C282.282 313.768 285.226 314.28 288.426 314.28C291.434 314.28 293.738 313.768 295.338 312.744C297.002 311.72 297.834 310.28 297.834 308.424C297.834 306.248 296.938 304.616 295.146 303.528C293.354 302.376 291.114 301.416 288.426 300.648C285.482 299.88 282.986 299.08 280.938 298.248C278.954 297.352 277.226 296.008 275.754 294.216C274.346 292.424 273.642 290.056 273.642 287.112C273.642 283.08 275.082 279.72 277.962 277.032C280.842 274.344 285.29 273 291.306 273C294.058 273 296.394 273.288 298.314 273.864C300.234 274.376 302.154 275.112 304.074 276.072L303.018 283.944C301.482 282.664 299.786 281.672 297.93 280.968C296.074 280.2 293.93 279.816 291.498 279.816C288.682 279.816 286.442 280.36 284.778 281.448C283.178 282.472 282.378 284.04 282.378 286.152C282.378 287.56 282.762 288.712 283.53 289.608C284.298 290.44 285.386 291.144 286.794 291.72C288.202 292.296 290.378 293.032 293.322 293.928C296.97 295.016 300.106 296.552 302.73 298.536C305.418 300.52 306.762 303.656 306.762 307.944C306.762 311.784 305.386 315.08 302.634 317.832C299.946 320.584 295.338 321.96 288.81 321.96ZM313.776 253.8H322.416V263.4H313.776V253.8ZM313.776 273.96H322.416V321H313.776V273.96ZM387.592 273C399.624 273 405.64 279.752 405.64 293.256V321H397V293.352C397 288.936 396.136 285.736 394.408 283.752C392.68 281.704 389.864 280.68 385.96 280.68C377.64 280.68 373.48 285.032 373.48 293.736V321H364.84V295.08C364.84 289.704 363.88 285.96 361.96 283.848C360.104 281.736 357.384 280.68 353.8 280.68C350.984 280.68 348.488 281.192 346.312 282.216C344.136 283.24 342.472 284.776 341.32 286.824V321H332.68V273.96H339.4L340.36 278.952C342.728 276.84 345.096 275.336 347.464 274.44C349.896 273.48 352.488 273 355.24 273C362.408 273 367.464 276.136 370.408 282.408C373.672 276.136 379.4 273 387.592 273ZM439.331 273C443.491 273 447.107 274.088 450.179 276.264C453.315 278.376 455.715 281.288 457.379 285C459.043 288.712 459.875 292.872 459.875 297.48C459.875 302.152 459.075 306.344 457.475 310.056C455.939 313.704 453.635 316.616 450.563 318.792C447.491 320.904 443.747 321.96 439.331 321.96C436.067 321.96 433.091 321.384 430.403 320.232C427.715 319.08 425.603 317.416 424.067 315.24V344.232H415.427V273.96H422.147L423.107 280.488C427.075 275.496 432.483 273 439.331 273ZM437.699 314.28C441.859 314.28 445.123 312.808 447.491 309.864C449.859 306.856 451.043 302.728 451.043 297.48C451.043 292.232 449.859 288.136 447.491 285.192C445.123 282.184 441.859 280.68 437.699 280.68C433.603 280.68 430.211 282.12 427.523 285C424.899 287.88 423.587 292.04 423.587 297.48C423.587 303.112 424.899 307.336 427.523 310.152C430.147 312.904 433.539 314.28 437.699 314.28ZM479.521 321.96C475.297 321.96 472.193 320.872 470.209 318.696C468.289 316.52 467.329 313.832 467.329 310.632V249H475.969V305.64C475.969 308.456 476.129 310.504 476.449 311.784C476.833 313.064 477.537 313.928 478.561 314.376C479.585 314.824 481.249 315.048 483.553 315.048L482.305 321.96H479.521ZM502.416 318.888L482.832 273.96H492.432L507.12 308.904L520.368 273.96H529.968L501.168 344.232H491.568L502.416 318.888ZM576.767 321.96C571.647 321.96 567.231 320.904 563.519 318.792C559.871 316.68 557.119 313.8 555.263 310.152C553.407 306.44 552.479 302.312 552.479 297.768C552.479 290.344 554.559 284.36 558.719 279.816C562.943 275.272 569.183 273 577.439 273C582.303 273 586.591 273.928 590.303 275.784L588.959 283.368C585.055 281.576 581.151 280.68 577.247 280.68C572.127 280.68 568.191 282.152 565.439 285.096C562.687 287.976 561.311 292.072 561.311 297.384C561.311 302.696 562.623 306.856 565.247 309.864C567.935 312.872 571.871 314.376 577.055 314.376C581.215 314.376 585.215 313.416 589.055 311.496L590.207 318.408C588.799 319.368 586.847 320.2 584.351 320.904C581.919 321.608 579.391 321.96 576.767 321.96ZM597.321 273.96H604.425L605.481 281.736C607.913 278.728 610.217 276.52 612.393 275.112C614.633 273.704 616.969 273 619.401 273C620.169 273 620.905 273.096 621.609 273.288L620.745 282.792C619.913 282.6 618.953 282.504 617.865 282.504C615.497 282.504 613.257 283.048 611.145 284.136C609.033 285.16 607.497 286.376 606.537 287.784V321H597.321V273.96ZM647.597 321.96C642.221 321.96 637.613 320.872 633.773 318.696C629.997 316.456 627.117 313.448 625.133 309.672C623.149 305.896 622.157 301.704 622.157 297.096C622.157 292.68 623.053 288.648 624.845 285C626.701 281.288 629.357 278.376 632.813 276.264C636.333 274.088 640.461 273 645.197 273C651.213 273 656.077 274.76 659.789 278.28C663.565 281.8 665.453 286.664 665.453 292.872C665.453 294.472 665.325 296.008 665.069 297.48H630.989C631.565 303.56 633.421 307.88 636.557 310.44C639.693 313 643.725 314.28 648.653 314.28C653.581 314.28 658.093 313.352 662.189 311.496L663.341 318.312C657.901 320.744 652.653 321.96 647.597 321.96ZM656.525 291.528C656.525 288.136 655.565 285.48 653.645 283.56C651.725 281.64 648.845 280.68 645.005 280.68C641.293 280.68 638.381 281.608 636.269 283.464C634.157 285.256 632.653 287.944 631.757 291.528H656.525ZM683.666 321.96C679.314 321.96 675.794 320.68 673.106 318.12C670.482 315.56 669.17 312.296 669.17 308.328C669.17 302.376 671.986 298.12 677.618 295.56C683.25 293 689.81 291.656 697.298 291.528C697.298 287.304 696.466 284.456 694.802 282.984C693.202 281.448 690.61 280.68 687.026 280.68C685.042 280.68 683.058 281 681.074 281.64C679.09 282.216 676.946 283.304 674.642 284.904L673.394 277.896C675.314 276.424 677.682 275.24 680.498 274.344C683.314 273.448 686.258 273 689.33 273C693.362 273 696.562 273.704 698.93 275.112C701.362 276.52 703.122 278.856 704.21 282.12C705.362 285.384 705.938 289.864 705.938 295.56V305.16C705.938 307.72 706.034 309.672 706.226 311.016C706.482 312.296 706.994 313.288 707.762 313.992C708.53 314.696 709.714 315.048 711.314 315.048H712.178L710.834 321.96H710.162C707.474 321.96 705.362 321.704 703.826 321.192C702.29 320.68 701.106 319.944 700.274 318.984C699.506 318.024 698.77 316.712 698.066 315.048C694.098 319.656 689.298 321.96 683.666 321.96ZM685.298 315.048C687.602 315.048 689.81 314.472 691.922 313.32C694.098 312.168 695.89 310.632 697.298 308.712V297.48C690.386 297.736 685.426 298.664 682.418 300.264C679.474 301.8 678.002 304.328 678.002 307.848C678.002 310.28 678.642 312.104 679.922 313.32C681.266 314.472 683.058 315.048 685.298 315.048ZM732.694 321.96C728.534 321.96 725.43 320.872 723.382 318.696C721.398 316.52 720.406 313.864 720.406 310.728V280.68H712.342L713.11 273.96H720.406V262.344L729.046 261.48V273.96H741.43V280.68H729.046V305.448C729.046 308.712 729.238 310.952 729.622 312.168C730.006 313.384 730.806 314.184 732.022 314.568C733.302 314.888 735.606 315.048 738.934 315.048H741.142L740.47 321.96H732.694ZM769.558 321.96C764.182 321.96 759.574 320.872 755.734 318.696C751.958 316.456 749.078 313.448 747.094 309.672C745.11 305.896 744.118 301.704 744.118 297.096C744.118 292.68 745.014 288.648 746.806 285C748.662 281.288 751.318 278.376 754.774 276.264C758.294 274.088 762.422 273 767.158 273C773.174 273 778.038 274.76 781.75 278.28C785.526 281.8 787.414 286.664 787.414 292.872C787.414 294.472 787.286 296.008 787.03 297.48H752.95C753.526 303.56 755.382 307.88 758.518 310.44C761.654 313 765.686 314.28 770.614 314.28C775.542 314.28 780.054 313.352 784.15 311.496L785.302 318.312C779.862 320.744 774.614 321.96 769.558 321.96ZM778.486 291.528C778.486 288.136 777.526 285.48 775.606 283.56C773.686 281.64 770.806 280.68 766.966 280.68C763.254 280.68 760.342 281.608 758.23 283.464C756.118 285.256 754.614 287.944 753.718 291.528H778.486ZM407.085 388C411.245 388 414.861 389.088 417.933 391.264C421.069 393.376 423.469 396.288 425.133 400C426.797 403.712 427.629 407.872 427.629 412.48C427.629 417.152 426.829 421.344 425.229 425.056C423.693 428.704 421.389 431.616 418.317 433.792C415.245 435.904 411.501 436.96 407.085 436.96C403.821 436.96 400.845 436.384 398.157 435.232C395.469 434.08 393.357 432.416 391.821 430.24V459.232H383.181V388.96H389.901L390.861 395.488C394.829 390.496 400.237 388 407.085 388ZM405.453 429.28C409.613 429.28 412.877 427.808 415.245 424.864C417.613 421.856 418.797 417.728 418.797 412.48C418.797 407.232 417.613 403.136 415.245 400.192C412.877 397.184 409.613 395.68 405.453 395.68C401.357 395.68 397.965 397.12 395.277 400C392.653 402.88 391.341 407.04 391.341 412.48C391.341 418.112 392.653 422.336 395.277 425.152C397.901 427.904 401.293 429.28 405.453 429.28ZM435.179 368.8H443.819V378.4H435.179V368.8ZM435.179 388.96H443.819V436H435.179V388.96ZM465.698 412.576L449.666 388.96H459.362L471.17 407.584L482.018 388.96H492.098L476.642 411.808L492.674 436H482.978L471.074 417.472L458.978 436H449.282L465.698 412.576ZM518.984 436.96C513.608 436.96 509 435.872 505.16 433.696C501.384 431.456 498.504 428.448 496.52 424.672C494.536 420.896 493.544 416.704 493.544 412.096C493.544 407.68 494.44 403.648 496.232 400C498.088 396.288 500.744 393.376 504.2 391.264C507.72 389.088 511.848 388 516.584 388C522.6 388 527.464 389.76 531.176 393.28C534.952 396.8 536.84 401.664 536.84 407.872C536.84 409.472 536.712 411.008 536.456 412.48H502.376C502.952 418.56 504.808 422.88 507.944 425.44C511.08 428 515.112 429.28 520.04 429.28C524.968 429.28 529.48 428.352 533.576 426.496L534.728 433.312C529.288 435.744 524.04 436.96 518.984 436.96ZM527.912 406.528C527.912 403.136 526.952 400.48 525.032 398.56C523.112 396.64 520.232 395.68 516.392 395.68C512.68 395.68 509.768 396.608 507.656 398.464C505.544 400.256 504.04 402.944 503.144 406.528H527.912ZM556.205 436.96C551.981 436.96 548.877 435.872 546.893 433.696C544.973 431.52 544.013 428.832 544.013 425.632V364H552.653V420.64C552.653 423.456 552.813 425.504 553.133 426.784C553.517 428.064 554.221 428.928 555.245 429.376C556.269 429.824 557.933 430.048 560.237 430.048L558.989 436.96H556.205ZM596.422 436.96C592.07 436.96 588.55 435.68 585.862 433.12C583.238 430.56 581.926 427.296 581.926 423.328C581.926 417.376 584.742 413.12 590.374 410.56C596.006 408 602.566 406.656 610.054 406.528C610.054 402.304 609.222 399.456 607.558 397.984C605.958 396.448 603.366 395.68 599.782 395.68C597.798 395.68 595.814 396 593.83 396.64C591.846 397.216 589.702 398.304 587.398 399.904L586.15 392.896C588.07 391.424 590.438 390.24 593.254 389.344C596.07 388.448 599.014 388 602.086 388C606.118 388 609.318 388.704 611.686 390.112C614.118 391.52 615.878 393.856 616.967 397.12C618.118 400.384 618.694 404.864 618.694 410.56V420.16C618.694 422.72 618.79 424.672 618.983 426.016C619.239 427.296 619.751 428.288 620.519 428.992C621.286 429.696 622.47 430.048 624.071 430.048H624.935L623.591 436.96H622.919C620.23 436.96 618.118 436.704 616.582 436.192C615.047 435.68 613.863 434.944 613.03 433.984C612.262 433.024 611.526 431.712 610.822 430.048C606.854 434.656 602.054 436.96 596.422 436.96ZM598.054 430.048C600.358 430.048 602.566 429.472 604.678 428.32C606.854 427.168 608.646 425.632 610.054 423.712V412.48C603.142 412.736 598.182 413.664 595.174 415.264C592.23 416.8 590.758 419.328 590.758 422.848C590.758 425.28 591.398 427.104 592.678 428.32C594.022 429.472 595.814 430.048 598.054 430.048ZM630.163 388.96H637.267L638.323 396.736C640.755 393.728 643.059 391.52 645.235 390.112C647.475 388.704 649.811 388 652.243 388C653.011 388 653.747 388.096 654.451 388.288L653.587 397.792C652.755 397.6 651.795 397.504 650.707 397.504C648.339 397.504 646.099 398.048 643.987 399.136C641.875 400.16 640.339 401.376 639.379 402.784V436H630.163V388.96ZM675.322 436.96C671.162 436.96 668.058 435.872 666.01 433.696C664.026 431.52 663.034 428.864 663.034 425.728V395.68H654.97L655.738 388.96H663.034V377.344L671.674 376.48V388.96H684.058V395.68H671.674V420.448C671.674 423.712 671.866 425.952 672.25 427.168C672.634 428.384 673.434 429.184 674.65 429.568C675.93 429.888 678.234 430.048 681.562 430.048H683.77L683.098 436.96H675.322ZM688.946 425.824H699.314V436H688.946V425.824Z" fill="#6F64BB"/>
</g>
<defs>
<filter id="filter0_d_115_17279" x="13.2798" y="0.367981" width="778.135" height="466.864" filterUnits="userSpaceOnUse" color-interpolation-filters="sRGB">
<feFlood flood-opacity="0" result="BackgroundImageFix"/>
<feColorMatrix in="SourceAlpha" type="matrix" values="0 0 0 0 0 0 0 0 0 0 0 0 0 0 0 0 0 0 127 0" result="hardAlpha"/>
<feOffset dy="4"/>
<feGaussianBlur stdDeviation="2"/>
<feComposite in2="hardAlpha" operator="out"/>
<feColorMatrix type="matrix" values="0 0 0 0 0 0 0 0 0 0 0 0 0 0 0 0 0 0 0.25 0"/>
<feBlend mode="normal" in2="BackgroundImageFix" result="effect1_dropShadow_115_17279"/>
<feBlend mode="normal" in="SourceGraphic" in2="effect1_dropShadow_115_17279" result="shape"/>
</filter>
</defs>
</svg>
