<svg width="48" height="48" viewBox="0 0 48 48" fill="none" xmlns="http://www.w3.org/2000/svg">
<rect width="48" height="48" fill="white"/>
<path d="M0 9.6C0 4.29807 4.29807 0 9.6 0H38.4C43.7019 0 48 4.29807 48 9.6V38.4C48 43.7019 43.7019 48 38.4 48H9.6C4.29807 48 0 43.7019 0 38.4V9.6Z" fill="#FCFBF9"/>
<path d="M28.6667 34.8333L28.6667 37.0476C28.6667 38.6782 27.3448 40 25.7143 40L10.9524 40C9.32182 40 8 38.6782 8 37.0476L8 22.2857C8 20.6552 9.32182 19.3333 10.9524 19.3333L13.1667 19.3333" stroke="#8C8C8C" stroke-width="3" stroke-linecap="round" stroke-linejoin="round"/>
<path d="M21.2857 29.6667C20.3188 29.6667 18.3333 28.9286 18.3333 26.7143V11.9524C18.3333 10.7252 19.2843 9 21.2857 9H36.0476C37.8488 9 39 10.4762 39 11.9524V26.7143C39 28.6518 37.2443 29.6667 36.0476 29.6667L21.2857 29.6667Z" stroke="#8C8C8C" stroke-width="3" stroke-linecap="round"/>
</svg>
