<svg width="127" height="56" viewBox="0 0 127 56" fill="none" xmlns="http://www.w3.org/2000/svg">
<g filter="url(#filter0_d_146_13627)">
<rect x="4" y="2" width="119" height="48" rx="11" fill="#FCFBF9"/>
<path d="M47.348 32.18C46.58 32.18 46.004 31.964 45.62 31.532C45.236 31.088 45.044 30.518 45.044 29.822V18.5H47.276V28.904C47.276 29.384 47.3 29.726 47.348 29.93C47.408 30.122 47.504 30.242 47.636 30.29C47.78 30.326 48.02 30.344 48.356 30.344L48.158 32.18H47.348ZM53.5006 32.18C52.5526 32.18 51.7306 31.97 51.0346 31.55C50.3386 31.13 49.8046 30.566 49.4326 29.858C49.0606 29.15 48.8746 28.37 48.8746 27.518C48.8746 26.666 49.0606 25.88 49.4326 25.16C49.8046 24.44 50.3386 23.87 51.0346 23.45C51.7306 23.03 52.5526 22.82 53.5006 22.82C54.4486 22.82 55.2706 23.03 55.9666 23.45C56.6626 23.87 57.1966 24.44 57.5686 25.16C57.9406 25.88 58.1266 26.666 58.1266 27.518C58.1266 28.37 57.9406 29.15 57.5686 29.858C57.1966 30.566 56.6626 31.13 55.9666 31.55C55.2706 31.97 54.4486 32.18 53.5006 32.18ZM53.5006 30.344C54.2326 30.344 54.8026 30.086 55.2106 29.57C55.6306 29.054 55.8406 28.37 55.8406 27.518C55.8406 26.654 55.6306 25.964 55.2106 25.448C54.8026 24.92 54.2326 24.656 53.5006 24.656C52.7686 24.656 52.1926 24.92 51.7726 25.448C51.3646 25.964 51.1606 26.654 51.1606 27.518C51.1606 28.37 51.3646 29.054 51.7726 29.57C52.1926 30.086 52.7686 30.344 53.5006 30.344ZM62.9743 36.536C61.7023 36.536 60.6883 36.302 59.9323 35.834C59.1763 35.378 58.7983 34.754 58.7983 33.962C58.7983 33.098 59.2843 32.39 60.2563 31.838C59.7283 31.514 59.4643 31.088 59.4643 30.56C59.4643 30.284 59.5423 30.038 59.6983 29.822C59.8663 29.606 60.0883 29.432 60.3643 29.3C59.9083 28.976 59.5603 28.562 59.3203 28.058C59.0923 27.554 58.9783 27.002 58.9783 26.402C58.9783 25.742 59.1223 25.142 59.4103 24.602C59.6983 24.05 60.1183 23.618 60.6703 23.306C61.2223 22.982 61.8763 22.82 62.6323 22.82C63.4243 22.82 64.1083 23.012 64.6843 23.396C64.8883 23.288 65.1583 23.198 65.4943 23.126C65.8423 23.042 66.2143 23 66.6103 23H67.1863L67.0423 24.404H66.2323C66.0283 24.404 65.8603 24.41 65.7283 24.422C66.0883 24.974 66.2683 25.634 66.2683 26.402C66.2683 27.062 66.1243 27.668 65.8363 28.22C65.5603 28.76 65.1463 29.192 64.5943 29.516C64.0423 29.828 63.3883 29.984 62.6323 29.984C62.3563 29.984 62.0383 29.942 61.6783 29.858C61.5463 29.918 61.4803 30.014 61.4803 30.146C61.4803 30.302 61.5703 30.428 61.7503 30.524C61.9423 30.608 62.2603 30.68 62.7043 30.74L64.2523 30.938C66.3163 31.214 67.3483 32.084 67.3483 33.548C67.3483 34.46 66.9583 35.186 66.1783 35.726C65.4103 36.266 64.3423 36.536 62.9743 36.536ZM62.6323 28.328C63.1483 28.328 63.5443 28.16 63.8203 27.824C64.1083 27.476 64.2523 27.002 64.2523 26.402C64.2523 25.802 64.1083 25.334 63.8203 24.998C63.5443 24.65 63.1483 24.476 62.6323 24.476C62.1043 24.476 61.6963 24.65 61.4083 24.998C61.1323 25.334 60.9943 25.802 60.9943 26.402C60.9943 27.002 61.1323 27.476 61.4083 27.824C61.6963 28.16 62.1043 28.328 62.6323 28.328ZM63.0643 34.844C64.6003 34.844 65.3683 34.466 65.3683 33.71C65.3683 33.374 65.2363 33.122 64.9723 32.954C64.7083 32.798 64.2703 32.672 63.6583 32.576L61.6783 32.288C60.9943 32.564 60.6523 32.984 60.6523 33.548C60.6523 33.98 60.8623 34.304 61.2823 34.52C61.7023 34.736 62.2963 34.844 63.0643 34.844ZM71.9308 19.4H74.1628V21.632H71.9308V19.4ZM71.9308 23H74.1628V32H71.9308V23ZM80.521 22.856C81.637 22.856 82.483 23.228 83.059 23.972C83.635 24.716 83.923 25.718 83.923 26.978V32H81.691V27.158C81.691 26.318 81.547 25.7 81.259 25.304C80.983 24.896 80.533 24.692 79.909 24.692C79.225 24.692 78.661 24.95 78.217 25.466V32H75.985V23H78.073L78.109 23.63C78.865 23.114 79.669 22.856 80.521 22.856Z" fill="#8C8C8C"/>
</g>
<defs>
<filter id="filter0_d_146_13627" x="0" y="0" width="127" height="56" filterUnits="userSpaceOnUse" color-interpolation-filters="sRGB">
<feFlood flood-opacity="0" result="BackgroundImageFix"/>
<feColorMatrix in="SourceAlpha" type="matrix" values="0 0 0 0 0 0 0 0 0 0 0 0 0 0 0 0 0 0 127 0" result="hardAlpha"/>
<feOffset dy="2"/>
<feGaussianBlur stdDeviation="2"/>
<feComposite in2="hardAlpha" operator="out"/>
<feColorMatrix type="matrix" values="0 0 0 0 0 0 0 0 0 0 0 0 0 0 0 0 0 0 0.25 0"/>
<feBlend mode="normal" in2="BackgroundImageFix" result="effect1_dropShadow_146_13627"/>
<feBlend mode="normal" in="SourceGraphic" in2="effect1_dropShadow_146_13627" result="shape"/>
</filter>
</defs>
</svg>
