<svg width="48" height="48" viewBox="0 0 48 48" fill="none" xmlns="http://www.w3.org/2000/svg">
<rect width="48" height="48" fill="none"/>
<path d="M0 9.6C0 4.29807 4.29807 0 9.6 0H38.4C43.7019 0 48 4.29807 48 9.6V38.4C48 43.7019 43.7019 48 38.4 48H9.6C4.29807 48 0 43.7019 0 38.4V9.6Z" fill="#FCFBF9"/>
<path d="M32.8672 19.0453C32.1754 17.3797 31.1563 15.8891 29.892 14.6569C27.5676 12.3918 24.4141 11 20.9411 11C13.7939 11 8 16.8942 8 24.165C8 31.4358 13.7939 37.3299 20.9411 37.3299C23.0802 37.3299 25.098 36.802 26.8756 35.8672" stroke="#8C8C8C" stroke-width="3" stroke-linecap="round"/>
<path d="M26.3934 19.6058L33.8746 24.3102L39.3037 16.9272" stroke="#8C8C8C" stroke-width="3" stroke-linecap="round" stroke-linejoin="round"/>
</svg>
