<svg width="48" height="48" viewBox="0 0 48 48" fill="none" xmlns="http://www.w3.org/2000/svg">
<rect width="48" height="48" fill="none"/>
<path d="M0 9.6C0 4.29807 4.29807 0 9.6 0H38.4C43.7019 0 48 4.29807 48 9.6V38.4C48 43.7019 43.7019 48 38.4 48H9.6C4.29807 48 0 43.7019 0 38.4V9.6Z" fill="#FCFBF9"/>
<circle cx="26.106" cy="20.9275" r="11.3116" stroke="#8C8C8C" stroke-width="3.23188"/>
<path d="M17.553 32.4352L18.6956 31.2925L16.4103 29.0072L15.2677 30.1499L17.553 32.4352ZM7.85733 37.5602C7.22627 38.1913 7.22627 39.2145 7.85733 39.8455C8.4884 40.4766 9.51155 40.4766 10.1426 39.8455L7.85733 37.5602ZM15.2677 30.1499L7.85733 37.5602L10.1426 39.8455L17.553 32.4352L15.2677 30.1499Z" fill="#8C8C8C"/>
</svg>
