<svg width="48" height="48" viewBox="0 0 48 48" fill="none" xmlns="http://www.w3.org/2000/svg">
<rect width="48" height="48" fill="none"/>
<path d="M5.14286 46.5C4.02551 46.5 3.09435 46.1925 2.47664 45.7011C1.90018 45.2426 1.5 44.554 1.5 43.5V4.60931C1.50166 4.59969 1.50353 4.5891 1.50565 4.57757C1.52098 4.49412 1.54835 4.36432 1.59356 4.20403C1.68545 3.87821 1.8426 3.45633 2.09946 3.04624C2.57592 2.28556 3.41647 1.5 5.14286 1.5H42.8571C44.5466 1.5 45.3855 2.08317 45.8338 2.63419C46.3334 3.24819 46.5 4.015 46.5 4.5V43.5C46.5 45.1228 45.0611 46.5 42.8571 46.5H5.14286Z" stroke="#8C8C8C" stroke-width="3" stroke-linecap="round"/>
</svg>
