<svg width="126" height="56" viewBox="0 0 126 56" fill="none" xmlns="http://www.w3.org/2000/svg">
<g filter="url(#filter0_d_146_13626)">
<rect x="4" y="2" width="118" height="48" rx="11" fill="#FCFBF9"/>
<path d="M39.6 32.18C39.024 32.18 38.496 32.126 38.016 32.018C37.548 31.91 37.062 31.742 36.558 31.514L36.756 29.606C37.26 29.906 37.728 30.134 38.16 30.29C38.604 30.434 39.06 30.506 39.528 30.506C40.44 30.506 40.896 30.206 40.896 29.606C40.896 29.282 40.776 29.036 40.536 28.868C40.296 28.688 39.864 28.478 39.24 28.238C38.352 27.914 37.698 27.548 37.278 27.14C36.858 26.72 36.648 26.156 36.648 25.448C36.648 24.668 36.948 24.038 37.548 23.558C38.148 23.066 38.958 22.82 39.978 22.82C40.998 22.82 41.928 23.054 42.768 23.522L42.57 25.43C42.114 25.118 41.682 24.878 41.274 24.71C40.878 24.542 40.458 24.458 40.014 24.458C39.63 24.458 39.33 24.536 39.114 24.692C38.91 24.848 38.808 25.07 38.808 25.358C38.808 25.586 38.868 25.772 38.988 25.916C39.12 26.06 39.3 26.192 39.528 26.312C39.756 26.42 40.134 26.576 40.662 26.78C41.538 27.116 42.168 27.488 42.552 27.896C42.936 28.292 43.128 28.826 43.128 29.498C43.128 30.35 42.822 31.01 42.21 31.478C41.598 31.946 40.728 32.18 39.6 32.18ZM44.3853 19.4H46.6173V21.632H44.3853V19.4ZM44.3853 23H46.6173V32H44.3853V23ZM52.0035 36.536C50.7315 36.536 49.7175 36.302 48.9615 35.834C48.2055 35.378 47.8275 34.754 47.8275 33.962C47.8275 33.098 48.3135 32.39 49.2855 31.838C48.7575 31.514 48.4935 31.088 48.4935 30.56C48.4935 30.284 48.5715 30.038 48.7275 29.822C48.8955 29.606 49.1175 29.432 49.3935 29.3C48.9375 28.976 48.5895 28.562 48.3495 28.058C48.1215 27.554 48.0075 27.002 48.0075 26.402C48.0075 25.742 48.1515 25.142 48.4395 24.602C48.7275 24.05 49.1475 23.618 49.6995 23.306C50.2515 22.982 50.9055 22.82 51.6615 22.82C52.4535 22.82 53.1375 23.012 53.7135 23.396C53.9175 23.288 54.1875 23.198 54.5235 23.126C54.8715 23.042 55.2435 23 55.6395 23H56.2155L56.0715 24.404H55.2615C55.0575 24.404 54.8895 24.41 54.7575 24.422C55.1175 24.974 55.2975 25.634 55.2975 26.402C55.2975 27.062 55.1535 27.668 54.8655 28.22C54.5895 28.76 54.1755 29.192 53.6235 29.516C53.0715 29.828 52.4175 29.984 51.6615 29.984C51.3855 29.984 51.0675 29.942 50.7075 29.858C50.5755 29.918 50.5095 30.014 50.5095 30.146C50.5095 30.302 50.5995 30.428 50.7795 30.524C50.9715 30.608 51.2895 30.68 51.7335 30.74L53.2815 30.938C55.3455 31.214 56.3775 32.084 56.3775 33.548C56.3775 34.46 55.9875 35.186 55.2075 35.726C54.4395 36.266 53.3715 36.536 52.0035 36.536ZM51.6615 28.328C52.1775 28.328 52.5735 28.16 52.8495 27.824C53.1375 27.476 53.2815 27.002 53.2815 26.402C53.2815 25.802 53.1375 25.334 52.8495 24.998C52.5735 24.65 52.1775 24.476 51.6615 24.476C51.1335 24.476 50.7255 24.65 50.4375 24.998C50.1615 25.334 50.0235 25.802 50.0235 26.402C50.0235 27.002 50.1615 27.476 50.4375 27.824C50.7255 28.16 51.1335 28.328 51.6615 28.328ZM52.0935 34.844C53.6295 34.844 54.3975 34.466 54.3975 33.71C54.3975 33.374 54.2655 33.122 54.0015 32.954C53.7375 32.798 53.2995 32.672 52.6875 32.576L50.7075 32.288C50.0235 32.564 49.6815 32.984 49.6815 33.548C49.6815 33.98 49.8915 34.304 50.3115 34.52C50.7315 34.736 51.3255 34.844 52.0935 34.844ZM61.7231 22.856C62.8391 22.856 63.6851 23.228 64.2611 23.972C64.8371 24.716 65.1251 25.718 65.1251 26.978V32H62.8931V27.158C62.8931 26.318 62.7491 25.7 62.4611 25.304C62.1851 24.896 61.7351 24.692 61.1111 24.692C60.4271 24.692 59.8631 24.95 59.4191 25.466V32H57.1871V23H59.2751L59.3111 23.63C60.0671 23.114 60.8711 22.856 61.7231 22.856ZM78.4697 23V32H76.3817L76.3457 31.46C76.0697 31.664 75.7517 31.838 75.3917 31.982C75.0317 32.114 74.6837 32.18 74.3477 32.18C73.0157 32.18 72.0437 31.796 71.4317 31.028C70.8317 30.26 70.5317 29.198 70.5317 27.842V23H72.7637V27.842C72.7637 28.682 72.9017 29.306 73.1777 29.714C73.4657 30.11 73.9217 30.308 74.5457 30.308C75.2417 30.308 75.8057 30.056 76.2377 29.552V23H78.4697ZM84.9814 22.856C85.8334 22.856 86.5654 23.066 87.1774 23.486C87.7894 23.906 88.2514 24.47 88.5634 25.178C88.8754 25.886 89.0314 26.666 89.0314 27.518C89.0314 28.37 88.8754 29.15 88.5634 29.858C88.2514 30.566 87.7894 31.13 87.1774 31.55C86.5654 31.97 85.8334 32.18 84.9814 32.18C84.4414 32.18 83.9794 32.12 83.5954 32C83.2234 31.892 82.8634 31.712 82.5154 31.46V36.356H80.2834V23H82.0834L82.3174 23.828C82.7014 23.504 83.1034 23.264 83.5234 23.108C83.9434 22.94 84.4294 22.856 84.9814 22.856ZM84.6394 30.344C85.2994 30.344 85.8154 30.086 86.1874 29.57C86.5594 29.054 86.7454 28.37 86.7454 27.518C86.7454 26.666 86.5594 25.982 86.1874 25.466C85.8154 24.95 85.2994 24.692 84.6394 24.692C83.8954 24.692 83.3374 24.944 82.9654 25.448C82.5934 25.952 82.4074 26.642 82.4074 27.518C82.4074 28.394 82.5934 29.084 82.9654 29.588C83.3374 30.092 83.8954 30.344 84.6394 30.344Z" fill="#8C8C8C"/>
</g>
<defs>
<filter id="filter0_d_146_13626" x="0" y="0" width="126" height="56" filterUnits="userSpaceOnUse" color-interpolation-filters="sRGB">
<feFlood flood-opacity="0" result="BackgroundImageFix"/>
<feColorMatrix in="SourceAlpha" type="matrix" values="0 0 0 0 0 0 0 0 0 0 0 0 0 0 0 0 0 0 127 0" result="hardAlpha"/>
<feOffset dy="2"/>
<feGaussianBlur stdDeviation="2"/>
<feComposite in2="hardAlpha" operator="out"/>
<feColorMatrix type="matrix" values="0 0 0 0 0 0 0 0 0 0 0 0 0 0 0 0 0 0 0.25 0"/>
<feBlend mode="normal" in2="BackgroundImageFix" result="effect1_dropShadow_146_13626"/>
<feBlend mode="normal" in="SourceGraphic" in2="effect1_dropShadow_146_13626" result="shape"/>
</filter>
</defs>
</svg>
