<svg width="24" height="24" viewBox="0 0 24 24" fill="none" xmlns="http://www.w3.org/2000/svg">
<path d="M0 4.8C0 2.14903 2.14903 0 4.8 0H19.2C21.851 0 24 2.14903 24 4.8V19.2C24 21.851 21.851 24 19.2 24H4.8C2.14903 24 0 21.851 0 19.2V4.8Z" fill="#FCFBF9"/>
<path d="M5.30173 18.75V8.75C5.30173 8.50563 5.4526 8.1255 5.7997 7.78674C6.13473 7.45977 6.57513 7.25 7.03449 7.25H16.9655C18.1677 7.25 18.6983 8.1243 18.6983 8.75V18.75C18.6983 18.9944 18.5474 19.3745 18.2003 19.7133C17.8653 20.0402 17.4249 20.25 16.9655 20.25H7.03449C6.57513 20.25 6.13473 20.0402 5.7997 19.7133C5.4526 19.3745 5.30173 18.9944 5.30173 18.75Z" stroke="#8C8C8C" stroke-width="1.5"/>
<line x1="9.75" y1="9.75" x2="9.75" y2="17.75" stroke="#8C8C8C" stroke-width="1.5" stroke-linecap="round"/>
<line x1="14.25" y1="9.75" x2="14.25" y2="17.75" stroke="#8C8C8C" stroke-width="1.5" stroke-linecap="round"/>
<line x1="4.75" y1="5.25" x2="19.25" y2="5.25" stroke="#8C8C8C" stroke-width="1.5" stroke-linecap="round"/>
<line x1="10.819" y1="4.25" x2="13.181" y2="4.25" stroke="#8C8C8C" stroke-width="1.5" stroke-linecap="round"/>
</svg>